<svg xmlns="http://www.w3.org/2000/svg" viewBox="0 0 361.5 541.5"><defs><style>.cls-1{fill:#fff;stroke:#000;stroke-width:2.5px;}</style></defs><title>g3088</title><g id="Layer_2" data-name="Layer 2"><g id="svg2"><g id="g3088"><rect id="rect6472-8" class="cls-1" x="1.25" y="1.25" width="359" height="539" rx="29.94"/><path id="rect3163-6-0-0-2-6" d="M20.75,30.75v20h10a5,5,0,0,1,5,5v15a5,5,0,0,1-10,0v-5h-5v5a10,10,0,0,0,20,0v-15a10,10,0,0,0-10-10h-5v-10h15v-5h-20Z"/><path id="rect3163-6-0-0-2-4-7" d="M340.75,510.75v-20h-10a5,5,0,0,1-5-5v-15a5,5,0,0,1,10,0v5h5v-5a10,10,0,0,0-20,0v15a10,10,0,0,0,10,10h5v10h-15v5h20Z"/><g id="g3008"><path id="path3010" d="M95.76,101.73c1,4,5,14,12,14,9,0,13-8,13-18,0-7-2.55-11.63-5-17-2.58-5.74-6.38-10.88-10-16-4.64-6.59-15-19-15-19s-10.38,12.4-15,19c-3.62,5.14-7.41,10.28-10,16-2.41,5.38-5,10-5,17,0,10,4,18,13,18,7,0,11-10,12-14,1-1,1,0,1,1-1,8-1,10-2,16s-4,17-4,17c5-2,15-2,20,0,0,0-3-11-4-17s-1-8-2-16C94.77,101.73,94.77,100.74,95.76,101.73Z"/></g><g id="g3022"><path id="path3024" d="M275.76,101.73c1,4,5,14,12,14,9,0,13-8,13-18,0-7-2.55-11.63-5-17-2.58-5.74-6.38-10.88-10-16-4.64-6.59-15-19-15-19s-10.38,12.4-15,19c-3.62,5.14-7.41,10.28-10,16-2.41,5.38-5,10-5,17,0,10,4,18,13,18,7,0,11-10,12-14,1-1,1,0,1,1-1,8-1,10-2,16s-4,17-4,17c5-2,15-2,20,0,0,0-3-11-4-17s-1-8-2-16C274.77,101.73,274.77,100.74,275.76,101.73Z"/></g><g id="g3036"><path id="path3038" d="M185.76,281.73c1,4,5,14,12,14,9,0,13-8,13-18,0-7-2.55-11.63-5-17-2.58-5.74-6.38-10.88-10-16-4.64-6.59-15-19-15-19s-10.38,12.4-15,19c-3.62,5.14-7.41,10.28-10,16-2.41,5.38-5,10-5,17,0,10,4,18,13,18,7,0,11-10,12-14,1-1,1,0,1,1-1,8-1,10-2,16s-4,17-4,17c5-2,15-2,20,0,0,0-3-11-4-17s-1-8-2-16C184.77,281.73,184.77,280.74,185.76,281.73Z"/></g><g id="g3050"><path id="path3052" d="M95.76,439.77c1-4,5-14,12-14,9,0,13,8,13,18,0,7-2.55,11.63-5,17-2.58,5.74-6.38,10.88-10,16-4.64,6.59-15,19-15,19s-10.38-12.4-15-19c-3.62-5.14-7.41-10.28-10-16-2.41-5.38-5-10-5-17,0-10,4-18,13-18,7,0,11,10,12,14,1,1,1,0,1-1-1-8-1-10-2-16s-4-17-4-17c5,2,15,2,20,0,0,0-3,11-4,17s-1,8-2,16C94.77,439.77,94.77,440.76,95.76,439.77Z"/></g><g id="g3064"><path id="path3066" d="M275.76,439.77c1-4,5-14,12-14,9,0,13,8,13,18,0,7-2.55,11.63-5,17-2.58,5.74-6.38,10.88-10,16-4.64,6.59-15,19-15,19s-10.38-12.4-15-19c-3.62-5.14-7.41-10.28-10-16-2.41-5.38-5-10-5-17,0-10,4-18,13-18,7,0,11,10,12,14,1,1,1,0,1-1-1-8-1-10-2-16s-4-17-4-17c5,2,15,2,20,0,0,0-3,11-4,17s-1,8-2,16C274.77,439.77,274.77,440.76,275.76,439.77Z"/></g><path id="path3037-7-4-72" d="M33.25,118.75c.5,2,2.5,7,6,7,4.5,0,6.5-4,6.5-9,0-3.5-1.29-5.81-2.5-8.5a49.56,49.56,0,0,0-5-8c-2.32-3.3-7.5-9.5-7.5-9.5s-5.18,6.2-7.5,9.5a49.56,49.56,0,0,0-5,8c-1.21,2.69-2.5,5-2.5,8.5,0,5,2,9,6.5,9,3.5,0,5.5-5,6-7,.5-.5.5,0,.5.5-.5,4-.5,5-1,8s-2,8.5-2,8.5a17,17,0,0,1,10,0s-1.5-5.5-2-8.5-.5-4-1-8C32.75,118.75,32.75,118.25,33.25,118.75Z"/><path id="path3037-7-4-1-2" d="M333.25,422.75c.5-2,2.5-7,6-7,4.5,0,6.5,4,6.5,9,0,3.5-1.29,5.81-2.5,8.5a49.56,49.56,0,0,1-5,8c-2.32,3.3-7.5,9.5-7.5,9.5s-5.18-6.2-7.5-9.5a49.56,49.56,0,0,1-5-8c-1.21-2.69-2.5-5-2.5-8.5,0-5,2-9,6.5-9,3.5,0,5.5,5,6,7,.5.5.5,0,.5-.5-.5-4-.5-5-1-8s-2-8.5-2-8.5a17,17,0,0,0,10,0s-1.5,5.5-2,8.5-.5,4-1,8C332.75,422.75,332.75,423.25,333.25,422.75Z"/></g></g></g></svg>