<svg xmlns="http://www.w3.org/2000/svg" viewBox="0 0 361.5 541.5"><defs><style>.cls-1{fill:#fff;stroke:#000;stroke-width:2.5px;}.cls-2{fill:#f55;}</style></defs><title>g3197</title><g id="Layer_2" data-name="Layer 2"><g id="svg2"><g id="g3197"><rect id="rect6472-38" class="cls-1" x="1.25" y="1.25" width="359" height="539" rx="29.94"/><path id="path3204-24-49" class="cls-2" d="M180.75,225.75s6,15,13,25a177,177,0,0,0,17,20,177,177,0,0,0-17,20c-7,10-13,25-13,25s-6-15-13-25a177,177,0,0,0-17-20,177,177,0,0,0,17-20c7-10,13-25,13-25"/><path id="path3497-2" class="cls-2" d="M28.25,30.75l-9,50h5l2.34-13h8.32l2.34,13h5l-9-50Zm2.5,13.91L34,62.75H27.5Z"/><path id="path3497-5-6" class="cls-2" d="M328.25,510.75l-9-50h5l2.34,13h8.32l2.34-13h5l-9,50Zm2.5-13.91L334,478.75h-6.5l3.25,18.09Z"/><path id="path3204-24-1-57" class="cls-2" d="M30.75,90.75a74.45,74.45,0,0,0,6.5,12.5,88.5,88.5,0,0,0,8.5,10,88.5,88.5,0,0,0-8.5,10,74.45,74.45,0,0,0-6.5,12.5,74.45,74.45,0,0,0-6.5-12.5,88.5,88.5,0,0,0-8.5-10,88.5,88.5,0,0,0,8.5-10,74.45,74.45,0,0,0,6.5-12.5"/><path id="path3204-24-1-7" class="cls-2" d="M330.75,405.75a74.45,74.45,0,0,0,6.5,12.5,88.5,88.5,0,0,0,8.5,10,88.5,88.5,0,0,0-8.5,10,74.45,74.45,0,0,0-6.5,12.5,74.45,74.45,0,0,0-6.5-12.5,88.5,88.5,0,0,0-8.5-10,88.5,88.5,0,0,0,8.5-10,74.45,74.45,0,0,0,6.5-12.5"/></g></g></g></svg>