<svg xmlns="http://www.w3.org/2000/svg" viewBox="0 0 361.5 541.5"><defs><style>.cls-1{fill:#fff;stroke:#000;stroke-width:2.5px;}.cls-2{fill:#f55;}</style></defs><title>g3042</title><g id="Layer_2" data-name="Layer 2"><g id="svg2"><g id="g3042"><rect id="rect6472-03" class="cls-1" x="1.25" y="1.25" width="359" height="539" rx="29.94"/><path id="rect3163-5-1-4-3-4-0-8" class="cls-2" d="M30.75,30.75a10,10,0,0,0-10,10v5h5v-5a5,5,0,0,1,10,0v5a5,5,0,0,1-5,5h-5v5h5a5,5,0,0,1,5,5v10a5,5,0,0,1-10,0v-5h-5v5a10,10,0,0,0,20,0v-10a9.92,9.92,0,0,0-3.41-7.5,9.92,9.92,0,0,0,3.41-7.5v-5A10,10,0,0,0,30.75,30.75Z"/><path id="rect3163-5-1-4-3-4-0-4-2" class="cls-2" d="M330.75,510.75a10,10,0,0,0,10-10v-5h-5v5a5,5,0,0,1-10,0v-5a5,5,0,0,1,5-5h5v-5h-5a5,5,0,0,1-5-5v-10a5,5,0,0,1,10,0v5h5v-5a10,10,0,0,0-20,0v10a9.92,9.92,0,0,0,3.41,7.5,9.92,9.92,0,0,0-3.41,7.5v5a10,10,0,0,0,10,10Z"/><path id="path3204-24-1-52" class="cls-2" d="M30.75,90.75a74.45,74.45,0,0,0,6.5,12.5,88.5,88.5,0,0,0,8.5,10,88.5,88.5,0,0,0-8.5,10,74.45,74.45,0,0,0-6.5,12.5,74.45,74.45,0,0,0-6.5-12.5,88.5,88.5,0,0,0-8.5-10,88.5,88.5,0,0,0,8.5-10,74.45,74.45,0,0,0,6.5-12.5"/><path id="path3204-24-1-1-0" class="cls-2" d="M330.75,405.75a74.45,74.45,0,0,0,6.5,12.5,88.5,88.5,0,0,0,8.5,10,88.5,88.5,0,0,0-8.5,10,74.45,74.45,0,0,0-6.5,12.5,74.45,74.45,0,0,0-6.5-12.5,88.5,88.5,0,0,0-8.5-10,88.5,88.5,0,0,0,8.5-10,74.45,74.45,0,0,0,6.5-12.5"/><path id="path3204-24-4-3" class="cls-2" d="M180.75,45.75s6,15,13,25a177,177,0,0,0,17,20,177,177,0,0,0-17,20c-7,10-13,25-13,25s-6-15-13-25a177,177,0,0,0-17-20,177,177,0,0,0,17-20c7-10,13-25,13-25"/><path id="path3204-24-72" class="cls-2" d="M180.75,225.75s6,15,13,25a177,177,0,0,0,17,20,177,177,0,0,0-17,20c-7,10-13,25-13,25s-6-15-13-25a177,177,0,0,0-17-20,177,177,0,0,0,17-20c7-10,13-25,13-25"/><path id="path3204-24-0-97" class="cls-2" d="M180.75,405.75s6,15,13,25a177,177,0,0,0,17,20,177,177,0,0,0-17,20c-7,10-13,25-13,25s-6-15-13-25a177,177,0,0,0-17-20,177,177,0,0,0,17-20c7-10,13-25,13-25"/></g></g></g></svg>