<svg xmlns="http://www.w3.org/2000/svg" viewBox="0 0 361.5 541.5"><defs><style>.cls-1{fill:#fff;stroke:#000;stroke-width:2.5px;}.cls-2{fill:#f55;}</style></defs><title>g3044</title><g id="Layer_2" data-name="Layer 2"><g id="svg2"><g id="g3044"><rect id="rect6472-33" class="cls-1" x="1.25" y="1.25" width="359" height="539" rx="29.94"/><path id="rect3980-7-6-2-9-9" class="cls-2" d="M30.75,30.75l-10,35v5h12v10h5v-10h3v-5h-3v-15h-5v15H26l10-35Z"/><path id="rect3980-7-6-2-9-9-8" class="cls-2" d="M330.75,510.75l10-35v-5h-12v-10h-5v10h-3v5h3v15h5v-15h6.8l-10,35Z"/><path id="path3204-24-55" class="cls-2" d="M90.75,45.75s6,15,13,25a177,177,0,0,0,17,20,177,177,0,0,0-17,20c-7,10-13,25-13,25s-6-15-13-25a177,177,0,0,0-17-20,177,177,0,0,0,17-20c7-10,13-25,13-25"/><path id="path3204-24-1-32" class="cls-2" d="M270.75,45.75s6,15,13,25a177,177,0,0,0,17,20,177,177,0,0,0-17,20c-7,10-13,25-13,25s-6-15-13-25a177,177,0,0,0-17-20,177,177,0,0,0,17-20c7-10,13-25,13-25"/><path id="path3204-24-7-8" class="cls-2" d="M90.75,405.75s6,15,13,25a177,177,0,0,0,17,20,177,177,0,0,0-17,20c-7,10-13,25-13,25s-6-15-13-25a177,177,0,0,0-17-20,177,177,0,0,0,17-20c7-10,13-25,13-25"/><path id="path3204-24-4-25" class="cls-2" d="M270.75,405.75s6,15,13,25a177,177,0,0,0,17,20,177,177,0,0,0-17,20c-7,10-13,25-13,25s-6-15-13-25a177,177,0,0,0-17-20,177,177,0,0,0,17-20c7-10,13-25,13-25"/><path id="path3204-24-1-0-3" class="cls-2" d="M30.75,90.75a74.45,74.45,0,0,0,6.5,12.5,88.5,88.5,0,0,0,8.5,10,88.5,88.5,0,0,0-8.5,10,74.45,74.45,0,0,0-6.5,12.5,74.45,74.45,0,0,0-6.5-12.5,88.5,88.5,0,0,0-8.5-10,88.5,88.5,0,0,0,8.5-10,74.45,74.45,0,0,0,6.5-12.5"/><path id="path3204-24-1-9-6" class="cls-2" d="M330.75,405.75a74.45,74.45,0,0,0,6.5,12.5,88.5,88.5,0,0,0,8.5,10,88.5,88.5,0,0,0-8.5,10,74.45,74.45,0,0,0-6.5,12.5,74.45,74.45,0,0,0-6.5-12.5,88.5,88.5,0,0,0-8.5-10,88.5,88.5,0,0,0,8.5-10,74.45,74.45,0,0,0,6.5-12.5"/></g></g></g></svg>