<svg xmlns="http://www.w3.org/2000/svg" viewBox="0 0 361.5 541.5"><defs><style>.cls-1{fill:#fff;stroke:#000;stroke-width:2.5px;}.cls-2{fill:#f55;}</style></defs><title>g3092</title><g id="Layer_2" data-name="Layer 2"><g id="svg2"><g id="g3092"><rect id="rect6472-39" class="cls-1" x="1.25" y="1.25" width="359" height="539" rx="29.94"/><path id="rect3980-2-1-93-8" class="cls-2" d="M20.75,30.75v10h5v-5h10l-10,45h5l10-45v-5Z"/><path id="rect3980-2-1-93-0-80" class="cls-2" d="M340.75,510.75v-10h-5v5h-10l10-45h-5l-10,45v5Z"/><path id="path3204-24-1-8" class="cls-2" d="M30.75,90.75a74.45,74.45,0,0,0,6.5,12.5,88.5,88.5,0,0,0,8.5,10,88.5,88.5,0,0,0-8.5,10,74.45,74.45,0,0,0-6.5,12.5,74.45,74.45,0,0,0-6.5-12.5,88.5,88.5,0,0,0-8.5-10,88.5,88.5,0,0,0,8.5-10,74.45,74.45,0,0,0,6.5-12.5"/><path id="path3204-24-1-1-7" class="cls-2" d="M330.75,405.75a74.45,74.45,0,0,0,6.5,12.5,88.5,88.5,0,0,0,8.5,10,88.5,88.5,0,0,0-8.5,10,74.45,74.45,0,0,0-6.5,12.5,74.45,74.45,0,0,0-6.5-12.5,88.5,88.5,0,0,0-8.5-10,88.5,88.5,0,0,0,8.5-10,74.45,74.45,0,0,0,6.5-12.5"/><path id="path3204-24-9-7" class="cls-2" d="M90.75,45.75s6,15,13,25a177,177,0,0,0,17,20,177,177,0,0,0-17,20c-7,10-13,25-13,25s-6-15-13-25a177,177,0,0,0-17-20,177,177,0,0,0,17-20c7-10,13-25,13-25"/><path id="path3204-24-4-83" class="cls-2" d="M270.75,45.75s6,15,13,25a177,177,0,0,0,17,20,177,177,0,0,0-17,20c-7,10-13,25-13,25s-6-15-13-25a177,177,0,0,0-17-20,177,177,0,0,0,17-20c7-10,13-25,13-25"/><path id="path3204-24-8-8" class="cls-2" d="M180.75,135.75s6,15,13,25a177,177,0,0,0,17,20,177,177,0,0,0-17,20c-7,10-13,25-13,25s-6-15-13-25a177,177,0,0,0-17-20,177,177,0,0,0,17-20c7-10,13-25,13-25"/><path id="path3204-24-37" class="cls-2" d="M90.75,225.75s6,15,13,25a177,177,0,0,0,17,20,177,177,0,0,0-17,20c-7,10-13,25-13,25s-6-15-13-25a177,177,0,0,0-17-20,177,177,0,0,0,17-20c7-10,13-25,13-25"/><path id="path3204-24-82" class="cls-2" d="M270.75,225.75s6,15,13,25a177,177,0,0,0,17,20,177,177,0,0,0-17,20c-7,10-13,25-13,25s-6-15-13-25a177,177,0,0,0-17-20,177,177,0,0,0,17-20c7-10,13-25,13-25"/><path id="path3204-24-45-1" class="cls-2" d="M90.75,405.75s6,15,13,25a177,177,0,0,0,17,20,177,177,0,0,0-17,20c-7,10-13,25-13,25s-6-15-13-25a177,177,0,0,0-17-20,177,177,0,0,0,17-20c7-10,13-25,13-25"/><path id="path3204-24-5" class="cls-2" d="M270.75,405.75s6,15,13,25a177,177,0,0,0,17,20,177,177,0,0,0-17,20c-7,10-13,25-13,25s-6-15-13-25a177,177,0,0,0-17-20,177,177,0,0,0,17-20c7-10,13-25,13-25"/></g></g></g></svg>