<svg xmlns="http://www.w3.org/2000/svg" viewBox="0 0 361.5 541.5"><defs><style>.cls-1{fill:#fff;stroke:#000;stroke-width:2.5px;}.cls-2{fill:#f55;}</style></defs><title>g2996</title><g id="Layer_2" data-name="Layer 2"><g id="svg2"><g id="g2996"><rect id="rect6472-0" class="cls-1" x="1.25" y="1.25" width="359" height="539" rx="29.94"/><path id="rect3163-5-18-0-7-9" class="cls-2" d="M30.75,30.75a10,10,0,0,0-10,10v5a9.92,9.92,0,0,0,3.41,7.5,9.92,9.92,0,0,0-3.41,7.5v10a10,10,0,0,0,20,0v-10a9.92,9.92,0,0,0-3.41-7.5,9.92,9.92,0,0,0,3.41-7.5v-5A10,10,0,0,0,30.75,30.75Zm0,5a5,5,0,0,1,5,5v5a5,5,0,0,1-10,0v-5A5,5,0,0,1,30.75,35.75Zm0,20a5,5,0,0,1,5,5v10a5,5,0,0,1-10,0v-10A5,5,0,0,1,30.75,55.75Z"/><path id="rect3163-5-18-0-7-4-7" class="cls-2" d="M330.75,510.75a10,10,0,0,1-10-10v-5a9.92,9.92,0,0,1,3.41-7.5,9.92,9.92,0,0,1-3.41-7.5v-10a10,10,0,0,1,20,0v10a9.92,9.92,0,0,1-3.41,7.5,9.92,9.92,0,0,1,3.41,7.5v5a10,10,0,0,1-10,10Zm0-5a5,5,0,0,0,5-5v-5a5,5,0,0,0-10,0v5A5,5,0,0,0,330.75,505.75Zm0-20a5,5,0,0,0,5-5v-10a5,5,0,0,0-10,0v10A5,5,0,0,0,330.75,485.75Z"/><path id="path3204-24-1-3" class="cls-2" d="M90.75,45.75s6,15,13,25a177,177,0,0,0,17,20,177,177,0,0,0-17,20c-7,10-13,25-13,25s-6-15-13-25a177,177,0,0,0-17-20,177,177,0,0,0,17-20c7-10,13-25,13-25"/><path id="path3204-24-7-7" class="cls-2" d="M270.75,45.75s6,15,13,25a177,177,0,0,0,17,20,177,177,0,0,0-17,20c-7,10-13,25-13,25s-6-15-13-25a177,177,0,0,0-17-20,177,177,0,0,0,17-20c7-10,13-25,13-25"/><path id="path3204-24-4-2" class="cls-2" d="M180.75,135.75s6,15,13,25a177,177,0,0,0,17,20,177,177,0,0,0-17,20c-7,10-13,25-13,25s-6-15-13-25a177,177,0,0,0-17-20,177,177,0,0,0,17-20c7-10,13-25,13-25"/><path id="path3204-24-6" class="cls-2" d="M90.75,225.75s6,15,13,25a177,177,0,0,0,17,20,177,177,0,0,0-17,20c-7,10-13,25-13,25s-6-15-13-25a177,177,0,0,0-17-20,177,177,0,0,0,17-20c7-10,13-25,13-25"/><path id="path3204-24-0-0" class="cls-2" d="M270.75,225.75s6,15,13,25a177,177,0,0,0,17,20,177,177,0,0,0-17,20c-7,10-13,25-13,25s-6-15-13-25a177,177,0,0,0-17-20,177,177,0,0,0,17-20c7-10,13-25,13-25"/><path id="path3204-24-9-1" class="cls-2" d="M180.75,315.75s6,15,13,25a177,177,0,0,0,17,20,177,177,0,0,0-17,20c-7,10-13,25-13,25s-6-15-13-25a177,177,0,0,0-17-20,177,177,0,0,0,17-20c7-10,13-25,13-25"/><path id="path3204-24-48-6" class="cls-2" d="M90.75,405.75s6,15,13,25a177,177,0,0,0,17,20,177,177,0,0,0-17,20c-7,10-13,25-13,25s-6-15-13-25a177,177,0,0,0-17-20,177,177,0,0,0,17-20c7-10,13-25,13-25"/><path id="path3204-24-8-5" class="cls-2" d="M270.75,405.75s6,15,13,25a177,177,0,0,0,17,20,177,177,0,0,0-17,20c-7,10-13,25-13,25s-6-15-13-25a177,177,0,0,0-17-20,177,177,0,0,0,17-20c7-10,13-25,13-25"/><path id="path3204-24-1-2" class="cls-2" d="M30.75,90.75a74.45,74.45,0,0,0,6.5,12.5,88.5,88.5,0,0,0,8.5,10,88.5,88.5,0,0,0-8.5,10,74.45,74.45,0,0,0-6.5,12.5,74.45,74.45,0,0,0-6.5-12.5,88.5,88.5,0,0,0-8.5-10,88.5,88.5,0,0,0,8.5-10,74.45,74.45,0,0,0,6.5-12.5"/><path id="path3204-24-1-4" class="cls-2" d="M330.75,405.75a74.45,74.45,0,0,0,6.5,12.5,88.5,88.5,0,0,0,8.5,10,88.5,88.5,0,0,0-8.5,10,74.45,74.45,0,0,0-6.5,12.5,74.45,74.45,0,0,0-6.5-12.5,88.5,88.5,0,0,0-8.5-10,88.5,88.5,0,0,0,8.5-10,74.45,74.45,0,0,0,6.5-12.5"/></g></g></g></svg>