<svg xmlns="http://www.w3.org/2000/svg" viewBox="0 0 361.5 541.5"><defs><style>.cls-1{fill:#fff;stroke:#000;stroke-width:2.5px;}.cls-2{fill:#f55;}</style></defs><title>g3053</title><g id="Layer_2" data-name="Layer 2"><g id="svg2"><g id="g3053"><rect id="rect6472-58" class="cls-1" x="1.25" y="1.25" width="359" height="539" rx="29.94"/><path id="path3126-1-6" class="cls-2" d="M179.75,245.75c0-11.05-5.72-20-14-20s-15,8.95-15,20c0,1,0,1.89,0,2.81,0,7.3,2.68,14.38,5,21,2.39,6.81,5.83,12.78,9.06,18.88,5,9.44,15.94,27.31,15.94,27.31s10.94-17.87,15.94-27.31c3.23-6.1,6.67-12.07,9.06-18.88,2.32-6.62,5-13.7,5-21,0-1,0-1.91,0-2.81,0-11.05-6.72-20-15-20s-14,8.95-14,20Z"/><path id="rect3163-6-0-0-2" class="cls-2" d="M20.75,30.75v20h10a5,5,0,0,1,5,5v15a5,5,0,0,1-10,0v-5h-5v5a10,10,0,0,0,20,0v-15a10,10,0,0,0-10-10h-5v-10h15v-5h-20Z"/><path id="rect3163-6-0-0-2-4" class="cls-2" d="M340.75,510.75v-20h-10a5,5,0,0,1-5-5v-15a5,5,0,0,1,10,0v5h5v-5a10,10,0,0,0-20,0v15a10,10,0,0,0,10,10h5v10h-15v5h20Z"/><path id="path3126-2" class="cls-2" d="M89.75,63.75c0-11-5.72-18-14-18s-15,9-15,20c0,1,0,1.89,0,2.81,0,7.3,2.68,14.38,5,21,2.39,6.81,5.83,12.78,9.06,18.88,5,9.44,15.94,27.31,15.94,27.31s10.94-17.87,15.94-27.31c3.23-6.1,6.67-12.07,9.06-18.88,2.32-6.62,5-13.7,5-21,0-1,0-1.91,0-2.81,0-11-6.72-20-15-20s-14,7-14,18C91.75,65.75,89.75,65.75,89.75,63.75Z"/><path id="path3126-17-6" class="cls-2" d="M269.75,63.75c0-11-5.72-18-14-18s-15,9-15,20c0,1,0,1.89,0,2.81,0,7.3,2.68,14.38,5,21,2.39,6.81,5.83,12.78,9.06,18.88,5,9.44,15.94,27.31,15.94,27.31s10.94-17.87,15.94-27.31c3.23-6.1,6.67-12.07,9.06-18.88,2.32-6.62,5-13.7,5-21,0-1,0-1.91,0-2.81,0-11-6.72-20-15-20s-14,7-14,18C271.75,65.75,269.75,65.75,269.75,63.75Z"/><path id="path3126-4-5" class="cls-2" d="M179.75,243.75c0-11.05-5.72-18-14-18s-15,8.95-15,20c0,1,0,1.89,0,2.81,0,7.3,2.68,14.38,5,21,2.39,6.81,5.83,12.78,9.06,18.88,5,9.44,15.94,27.31,15.94,27.31s10.94-17.87,15.94-27.31c3.23-6.1,6.67-12.07,9.06-18.88,2.32-6.62,5-13.7,5-21,0-1,0-1.91,0-2.81,0-11.05-6.72-20-15-20s-14,6.95-14,18C181.75,245.75,179.75,245.75,179.75,243.75Z"/><path id="path3126-0-3" class="cls-2" d="M89.75,477.75c0,11.05-5.72,18-14,18s-15-8.95-15-20c0-1,0-1.89,0-2.81,0-7.3,2.68-14.38,5-21,2.39-6.81,5.83-12.78,9.06-18.88,5-9.44,15.94-27.31,15.94-27.31s10.94,17.87,15.94,27.31c3.23,6.1,6.67,12.07,9.06,18.88,2.32,6.62,5,13.7,5,21,0,1,0,1.91,0,2.81,0,11.05-6.72,20-15,20s-14-6.95-14-18C91.75,475.75,89.75,475.75,89.75,477.75Z"/><path id="path3126-9-92" class="cls-2" d="M269.75,477.75c0,11.05-5.72,18-14,18s-15-8.95-15-20c0-1,0-1.89,0-2.81,0-7.3,2.68-14.38,5-21,2.39-6.81,5.83-12.78,9.06-18.88,5-9.44,15.94-27.31,15.94-27.31s10.94,17.87,15.94,27.31c3.23,6.1,6.67,12.07,9.06,18.88,2.32,6.62,5,13.7,5,21,0,1,0,1.91,0,2.81,0,11.05-6.72,20-15,20s-14-6.95-14-18C271.75,475.75,269.75,475.75,269.75,477.75Z"/><path id="path3126-1-4-4" class="cls-2" d="M30.25,99.75c0-5.52-2.86-9-7-9s-7.5,4.48-7.5,10c0,.48,0,1,0,1.41,0,3.65,1.34,7.18,2.5,10.5a68.35,68.35,0,0,0,4.53,9.43c2.5,4.72,8,13.66,8,13.66s5.47-8.94,8-13.66a68.35,68.35,0,0,0,4.53-9.43c1.16-3.32,2.5-6.85,2.5-10.5q0-.73,0-1.41c0-5.52-3.36-10-7.5-10s-7,3.48-7,9C31.25,100.75,30.25,100.75,30.25,99.75Z"/><path id="path3126-1-8" class="cls-2" d="M330.25,441.75c0,5.52-2.86,9-7,9s-7.5-4.48-7.5-10c0-.48,0-.95,0-1.41,0-3.65,1.34-7.18,2.5-10.5a68.35,68.35,0,0,1,4.53-9.43c2.5-4.72,8-13.66,8-13.66s5.47,8.94,8,13.66a68.35,68.35,0,0,1,4.53,9.43c1.16,3.32,2.5,6.85,2.5,10.5q0,.74,0,1.41c0,5.52-3.36,10-7.5,10s-7-3.48-7-9C331.25,440.75,330.25,440.75,330.25,441.75Z"/></g></g></g></svg>