<svg xmlns="http://www.w3.org/2000/svg" viewBox="0 0 277.85 431.77"><defs><style>.cls-1{fill:#1f1f1f;}.cls-2{fill:#5b5b5b;}.cls-3{fill:#fff;}</style></defs><title>Asset 6</title><g id="Layer_2" data-name="Layer 2"><g id="Layer_1-2" data-name="Layer 1"><path class="cls-1" d="M271.85,431.77H6a6,6,0,0,1-6-6V6A6,6,0,0,1,6,0H271.85a6,6,0,0,1,6,6V425.77A6,6,0,0,1,271.85,431.77Z"/><path class="cls-2" d="M13.05,417.73V14.05a1,1,0,0,1,1-1H263.81a1,1,0,0,1,1,1V417.73a1,1,0,0,1-1,1H14.05A1,1,0,0,1,13.05,417.73Z"/><rect class="cls-1" x="49.19" y="49.18" width="179.49" height="333.42"/><path class="cls-2" d="M84.74,91.59,84,92.93a28.17,28.17,0,0,0-3.2,10.46,36,36,0,0,0,.17,8.55,47.11,47.11,0,0,0,2.54,9.76,54,54,0,0,0,5.12,10c.49.75,1.15,1.64,1.72,2.46l1.81,2.37c1.29,1.57,2.57,3.18,4,4.73,2.76,3.13,5.8,6.12,8.83,9.18s6.12,6.08,9.09,9.19,5.67,6.38,8.27,9.49,5,6.29,7.16,9.36a78,78,0,0,1,5.53,9.07,46.53,46.53,0,0,1,3.4,8.34,28.07,28.07,0,0,1,1.15,6.85,20.54,20.54,0,0,1-.31,4.43l-.34,1.52s0-.54.13-1.55a22.84,22.84,0,0,0-.27-4.32,30.52,30.52,0,0,0-1.83-6.41,51.09,51.09,0,0,0-4-7.68,92.17,92.17,0,0,0-6-8.38c-2.26-2.88-4.8-5.8-7.48-8.79s-5.46-6.09-8.44-9-6-6-9.14-9-6.11-6.2-9-9.46c-1.42-1.63-2.79-3.3-4.06-5L87,136.4c-.57-.89-1.1-1.66-1.69-2.62a48.13,48.13,0,0,1-5-11,42.44,42.44,0,0,1-2-10.6,33.18,33.18,0,0,1,.69-9.06,26.17,26.17,0,0,1,2.32-6.56,24,24,0,0,1,2.37-3.76C84.39,92,84.74,91.59,84.74,91.59Z"/><path class="cls-2" d="M138.86,205.54s-.09-.55-.27-1.57-.41-2.54-.79-4.43-.87-4.16-1.66-6.72c-.37-1.28-.73-2.66-1.26-4.06s-.94-2.91-1.61-4.41-1.23-3.1-2-4.68l-1.13-2.43c-.42-.81-.84-1.63-1.28-2.46-1.71-3.33-3.8-6.69-6-10.14s-4.72-6.87-7.23-10.4l-7.81-10.64c-2.59-3.62-5.1-7.33-7.39-11.13a65.85,65.85,0,0,1-5.74-11.8,45.29,45.29,0,0,1-2.75-12.07,40.88,40.88,0,0,1,.54-11c.16-.84.27-1.66.46-2.46s.43-1.55.63-2.29.39-1.47.64-2.16l.75-2a59.08,59.08,0,0,1,2.88-6.44c.9-1.73,1.75-3,2.26-3.92l.82-1.37-.61,1.48c-.38,1-1,2.36-1.68,4.16s-1.48,4-2.09,6.6c-.17.64-.35,1.3-.53,2s-.26,1.41-.4,2.13-.27,1.47-.42,2.24-.16,1.56-.25,2.36a44,44,0,0,0,.21,10.33,47.77,47.77,0,0,0,3.1,11.05,73,73,0,0,0,5.76,11c2.24,3.63,4.74,7.22,7.34,10.78L119,151.82c2.53,3.58,4.89,7.21,7.06,10.82a101.28,101.28,0,0,1,5.65,10.74c.4.88.78,1.75,1.17,2.61s.68,1.74,1,2.59c.68,1.68,1.18,3.38,1.7,5s.89,3.18,1.27,4.66.63,2.92.87,4.26a68,68,0,0,1,.9,7c.17,1.94.12,3.46.17,4.5S138.86,205.54,138.86,205.54Z"/><path class="cls-2" d="M123.36,68.08l-1.12,1.26-1.35,1.51-.86,1L119.16,73c-.6.82-1.3,1.69-2,2.69l-2,3.36c-.6,1.26-1.25,2.6-1.85,4-.25.74-.5,1.49-.77,2.26l-.4,1.17-.27,1.23c-.18.83-.36,1.67-.55,2.53s-.19,1.77-.29,2.68a21.08,21.08,0,0,0-.13,2.77,25.08,25.08,0,0,0,0,2.87,59.4,59.4,0,0,0,2,12.09,115.91,115.91,0,0,0,4.22,12.61c1.62,4.26,3.48,8.53,5.35,12.81L128,148.93c1.82,4.26,3.45,8.54,4.95,12.7.75,2.09,1.44,4.16,2.09,6.19s1.23,4.05,1.7,6,1,3.89,1.34,5.79c.18.94.36,1.87.54,2.78s.27,1.82.4,2.7.25,1.74.37,2.59.14,1.68.21,2.49c.13,1.62.26,3.15.24,4.6s.1,2.79,0,4-.14,2.39-.21,3.42a22.2,22.2,0,0,1-.29,2.74c-.11.79-.21,1.47-.29,2-.16,1.09-.24,1.67-.24,1.67s0-.59,0-1.69.08-2.71,0-4.75c-.06-1-.12-2.14-.19-3.37s-.27-2.54-.41-3.95-.38-2.89-.67-4.45c-.13-.78-.27-1.58-.4-2.4s-.36-1.64-.55-2.49-.38-1.71-.58-2.59-.48-1.76-.73-2.66c-.46-1.81-1-3.66-1.63-5.56-1.2-3.79-2.67-7.73-4.25-11.79s-3.42-8.17-5.23-12.4-3.76-8.5-5.65-12.78c-3.68-8.63-7.33-17.43-9.29-26.24a55.13,55.13,0,0,1-1.55-12.93,36.73,36.73,0,0,1,1.78-11.59c.13-.43.26-.87.39-1.29s.35-.82.52-1.22l1-2.33c.78-1.45,1.59-2.79,2.34-4l2.45-3.26c.83-1,1.65-1.77,2.36-2.53l1-1.07,1-.83,1.55-1.31Z"/><path class="cls-2" d="M72.58,130.91l1.72,4.14,1,2.1.57,1.18c.22.4.46.81.7,1.24a59.79,59.79,0,0,0,3.47,5.51,64.77,64.77,0,0,0,4.87,5.9l1.42,1.49,1.54,1.45c1,1,2.14,1.93,3.25,2.9,2.28,1.9,4.74,3.73,7.32,5.51s5.26,3.52,8,5.2l8.21,5.08c2.74,1.65,5.37,3.45,7.91,5.22a59.26,59.26,0,0,1,7,5.67,36.06,36.06,0,0,1,5.3,6.19,25.55,25.55,0,0,1,1.79,3.17c.24.52.47,1,.7,1.53s.35,1,.51,1.51a15.91,15.91,0,0,1,.71,2.77,14.74,14.74,0,0,1,.32,2.39,17.86,17.86,0,0,1,0,3.34c0,.76-.06,1.17-.06,1.17s-.06-.4-.18-1.16a22.46,22.46,0,0,0-.65-3.2,13,13,0,0,0-.68-2.2,18.05,18.05,0,0,0-1-2.48l-.66-1.32-.84-1.32a30.13,30.13,0,0,0-2-2.71,41.38,41.38,0,0,0-5.44-5.24,79.13,79.13,0,0,0-7-4.93c-2.51-1.62-5.21-3.16-7.94-4.8s-5.54-3.26-8.33-5-5.51-3.55-8.15-5.47a79.52,79.52,0,0,1-7.42-6.07c-1.12-1.09-2.27-2.11-3.26-3.25l-1.5-1.65-1.38-1.69a48.49,48.49,0,0,1-4.52-6.67,48.32,48.32,0,0,1-4.49-11.09c-.36-1.38-.51-2.49-.68-3.24S72.58,130.91,72.58,130.91Z"/><path class="cls-2" d="M64.39,158s.38-.21,1.11-.55a14.86,14.86,0,0,1,3.39-1.06,18.71,18.71,0,0,1,12.61,2.18,22.44,22.44,0,0,1,6.65,5.73A27.51,27.51,0,0,1,92.78,173a57.35,57.35,0,0,1,2.12,10,69.51,69.51,0,0,0,1.83,9.75c.1.39.23.77.34,1.15l.16.51.23.6c.3.85.62,1.5.92,2.19a29.37,29.37,0,0,0,2.42,4,34.38,34.38,0,0,0,3,3.55,30.28,30.28,0,0,0,3.48,3,27.71,27.71,0,0,0,7.75,3.87,28.52,28.52,0,0,0,7.75,1.25,30.6,30.6,0,0,0,11.82-2.13,33.22,33.22,0,0,0,3.14-1.45l1.08-.6-.95.8a23.94,23.94,0,0,1-2.89,2,28,28,0,0,1-12.13,3.85,27.4,27.4,0,0,1-8.7-.62,27.9,27.9,0,0,1-9-3.83,30.32,30.32,0,0,1-7.73-7.17,33.43,33.43,0,0,1-2.88-4.65c-.41-.86-.83-1.76-1.11-2.52l-.24-.6-.24-.71c-.14-.44-.3-.87-.41-1.31a73,73,0,0,1-1.81-10.38,65.67,65.67,0,0,0-1.62-9.45,26.89,26.89,0,0,0-3.58-7.86,22.12,22.12,0,0,0-5.41-5.57,19.25,19.25,0,0,0-6-2.78A18.53,18.53,0,0,0,69,157.3a17.7,17.7,0,0,0-3.4.43C64.8,157.89,64.39,158,64.39,158Z"/><path class="cls-2" d="M71.1,172.68a7.37,7.37,0,0,1,1-.36,7.9,7.9,0,0,1,3.07-.25,10.8,10.8,0,0,1,4.57,1.68,15.48,15.48,0,0,1,4.57,4.45,17,17,0,0,1,1,1.56c.15.28.29.54.43.86l.37.8a31.72,31.72,0,0,1,1.25,3.67c.71,2.52,1.23,5.16,1.82,7.76a37.24,37.24,0,0,0,1.1,3.82l.08.23s0-.14,0-.05v0l0,.06,0,.12.2.49.41,1c.27.65.57,1.14.84,1.73a25.07,25.07,0,0,0,4.91,6.33,26.26,26.26,0,0,0,6.58,4.67,26.69,26.69,0,0,0,7.41,2.5,29.92,29.92,0,0,0,3.73.35c.53,0,1.28,0,1.9,0s1.2-.05,1.8-.11a57.8,57.8,0,0,0,6.82-1,78.7,78.7,0,0,0,10.09-2.91c2.41-.86,3.78-1.42,3.78-1.42l-.88.59c-.58.38-1.42,1-2.54,1.6a53.32,53.32,0,0,1-9.8,4.51,44.28,44.28,0,0,1-7.08,1.81c-.64.12-1.33.19-2,.29s-1.23.16-2,.17-1.43.08-2.15,0-1.46-.08-2.19-.17a27.56,27.56,0,0,1-8.71-2.5,31,31,0,0,1-7.73-5.29,29.28,29.28,0,0,1-5.64-7.54c-.34-.72-.74-1.49-1-2.17l-.36-1-.18-.5-.12-.34-.08-.27a42.41,42.41,0,0,1-1-4.28c-.52-2.78-.78-5.4-1.24-7.79-.22-1.19-.51-2.35-.8-3.37l-.27-.84c-.07-.23-.17-.49-.26-.73a15.1,15.1,0,0,0-.64-1.41c-1.9-3.63-4.84-5.9-7.18-6.57a8.4,8.4,0,0,0-2.85-.37A9.45,9.45,0,0,0,71.1,172.68Z"/><path class="cls-2" d="M193.13,91.59l1,1.21a24.8,24.8,0,0,1,2.37,3.76,26.57,26.57,0,0,1,2.32,6.56,33.18,33.18,0,0,1,.69,9.06,42.44,42.44,0,0,1-2,10.6,47.89,47.89,0,0,1-5,11c-.59,1-1.12,1.74-1.69,2.62s-1.23,1.75-1.86,2.63c-1.27,1.71-2.64,3.38-4.06,5-2.85,3.26-5.86,6.43-9,9.46s-6.2,6-9.14,9-5.75,6-8.44,9-5.23,5.91-7.48,8.79a93.58,93.58,0,0,0-6,8.38,51.57,51.57,0,0,0-4,7.68,30.69,30.69,0,0,0-1.83,6.41,22.93,22.93,0,0,0-.27,4.32c.08,1,.13,1.55.13,1.55l-.34-1.52a21,21,0,0,1-.32-4.43,28.64,28.64,0,0,1,1.15-6.85,46.53,46.53,0,0,1,3.4-8.34,78.88,78.88,0,0,1,5.53-9.07c2.16-3.07,4.56-6.22,7.16-9.36s5.32-6.35,8.27-9.49,6-6.14,9.09-9.19,6.06-6,8.83-9.18c1.4-1.55,2.69-3.15,4-4.73l1.81-2.37c.57-.82,1.23-1.71,1.72-2.46a52.5,52.5,0,0,0,5.12-10,47.11,47.11,0,0,0,2.54-9.76,36,36,0,0,0,.17-8.55,28.17,28.17,0,0,0-3.2-10.46Z"/><path class="cls-2" d="M139,205.54s0-.55,0-1.59,0-2.57.17-4.5.34-4.33.9-7c.24-1.34.47-2.78.87-4.26s.72-3.07,1.27-4.66,1-3.29,1.7-5l1-2.59q.57-1.29,1.17-2.61a100.32,100.32,0,0,1,5.65-10.74c2.17-3.6,4.53-7.23,7.06-10.82s5.12-7.14,7.69-10.74,5.09-7.14,7.34-10.78a72.08,72.08,0,0,0,5.76-11,47.91,47.91,0,0,0,3.1-11.05,44,44,0,0,0,.21-10.33c-.09-.8-.13-1.6-.25-2.36s-.28-1.51-.42-2.24-.23-1.45-.4-2.13-.36-1.34-.53-2c-.61-2.6-1.5-4.76-2.09-6.6s-1.3-3.19-1.68-4.16-.61-1.48-.61-1.48l.81,1.37c.51.9,1.36,2.18,2.26,3.92a58.9,58.9,0,0,1,2.88,6.44l.75,2c.25.69.42,1.42.64,2.16s.42,1.51.63,2.29.3,1.62.46,2.46a40.9,40.9,0,0,1,.54,11,45.29,45.29,0,0,1-2.75,12.07,66.53,66.53,0,0,1-5.74,11.8c-2.29,3.8-4.81,7.52-7.39,11.13l-7.81,10.64c-2.51,3.53-5,6.95-7.23,10.4s-4.28,6.82-6,10.14l-1.28,2.46-1.13,2.43c-.79,1.58-1.4,3.17-2,4.68s-1.09,3-1.61,4.41-.9,2.77-1.26,4.06c-.79,2.56-1.2,4.84-1.66,6.72s-.6,3.41-.79,4.43S139,205.54,139,205.54Z"/><path class="cls-2" d="M154.51,68.08l1.29,1.09,1.55,1.31,1,.83,1,1.07c.7.76,1.53,1.58,2.36,2.53s1.57,2.1,2.45,3.26,1.56,2.59,2.34,4c.33.76.66,1.54,1,2.33l.51,1.22.39,1.29a36.74,36.74,0,0,1,1.76,11.59,54.65,54.65,0,0,1-1.57,12.93c-2,8.8-5.64,17.6-9.33,26.23l-5.67,12.78c-1.81,4.22-3.65,8.34-5.24,12.39s-3.06,8-4.26,11.78c-.59,1.9-1.18,3.75-1.64,5.56-.25.9-.49,1.79-.73,2.66s-.39,1.74-.58,2.59-.37,1.68-.55,2.49-.27,1.62-.41,2.4c-.28,1.56-.55,3-.67,4.45s-.34,2.72-.41,3.95-.13,2.35-.19,3.37c-.12,2,0,3.65,0,4.75s0,1.69,0,1.69-.08-.58-.24-1.67c-.08-.55-.18-1.22-.29-2a22,22,0,0,1-.29-2.74c-.06-1-.13-2.18-.21-3.42s0-2.59,0-4,.11-3,.25-4.6c.07-.81.14-1.64.22-2.49s.25-1.71.37-2.59.26-1.78.4-2.7.36-1.84.54-2.78c.34-1.9.86-3.81,1.35-5.79s1.13-4,1.71-6,1.34-4.11,2.09-6.19c1.51-4.17,3.14-8.44,5-12.7s3.68-8.55,5.54-12.85,3.75-8.55,5.37-12.8a118.31,118.31,0,0,0,4.24-12.61,58.91,58.91,0,0,0,2-12.09,25.05,25.05,0,0,0,0-2.87,21.23,21.23,0,0,0-.13-2.78c-.1-.91-.19-1.8-.29-2.68s-.37-1.7-.54-2.53q-.14-.63-.27-1.23l-.4-1.17c-.26-.77-.52-1.53-.76-2.26-.6-1.43-1.25-2.77-1.85-4l-2-3.36c-.69-1-1.38-1.87-2-2.69-.3-.41-.59-.79-.87-1.16l-.86-1-1.35-1.51C154.9,68.52,154.51,68.08,154.51,68.08Z"/><path class="cls-2" d="M205.28,130.91s-.08.4-.22,1.15-.32,1.86-.68,3.24a44.81,44.81,0,0,1-1.61,4.95,42.93,42.93,0,0,1-2.88,6.14,47.9,47.9,0,0,1-4.52,6.67L194,154.75c-.49.54-1,1.1-1.5,1.65-1,1.14-2.13,2.16-3.26,3.25a78.23,78.23,0,0,1-7.42,6.07c-2.63,1.92-5.38,3.72-8.15,5.47s-5.6,3.35-8.33,5-5.43,3.18-7.94,4.8a84.54,84.54,0,0,0-7,4.93,42,42,0,0,0-5.44,5.24,28.28,28.28,0,0,0-2,2.71l-.84,1.32-.66,1.32a19.39,19.39,0,0,0-1,2.48,14,14,0,0,0-.68,2.2,24,24,0,0,0-.65,3.2c-.12.76-.18,1.16-.18,1.16s0-.41-.06-1.17a17.85,17.85,0,0,1,0-3.34,13.84,13.84,0,0,1,.32-2.39,16.14,16.14,0,0,1,.71-2.77c.16-.49.33-1,.51-1.51l.7-1.53a26.9,26.9,0,0,1,1.79-3.17,36.06,36.06,0,0,1,5.3-6.19,62.24,62.24,0,0,1,7-5.67c2.53-1.77,5.16-3.57,7.91-5.22l8.21-5.08c2.75-1.68,5.45-3.39,8-5.2s5-3.61,7.32-5.51c1.12-1,2.23-1.91,3.25-2.9l1.54-1.45,1.42-1.49a61.62,61.62,0,0,0,4.87-5.9,58.48,58.48,0,0,0,3.47-5.51l.7-1.24.57-1.18,1-2.1C204.66,132.41,205.28,130.91,205.28,130.91Z"/><path class="cls-2" d="M213.47,158s-.41-.13-1.19-.33a17,17,0,0,0-3.4-.43,18.13,18.13,0,0,0-5.18.62,19.25,19.25,0,0,0-6,2.78,22,22,0,0,0-5.41,5.57,27,27,0,0,0-3.58,7.86,65.67,65.67,0,0,0-1.62,9.45,72.74,72.74,0,0,1-1.81,10.38c-.11.44-.27.88-.41,1.31l-.24.71-.24.6c-.28.77-.7,1.66-1.11,2.52a33.79,33.79,0,0,1-2.88,4.65,30.32,30.32,0,0,1-7.73,7.17,27.9,27.9,0,0,1-9,3.83,27.39,27.39,0,0,1-8.7.62,28,28,0,0,1-12.13-3.85,23.94,23.94,0,0,1-2.89-2l-.95-.8,1.08.6a30.57,30.57,0,0,0,15,3.58,28.52,28.52,0,0,0,7.75-1.25,28,28,0,0,0,7.75-3.87,30.28,30.28,0,0,0,3.48-3,37,37,0,0,0,3-3.55,28.41,28.41,0,0,0,2.42-4c.3-.69.62-1.34.92-2.19l.23-.6.16-.51c.12-.38.24-.76.34-1.15a69.51,69.51,0,0,0,1.83-9.75,57.54,57.54,0,0,1,2.12-10,27.4,27.4,0,0,1,4.63-8.67,22.46,22.46,0,0,1,6.65-5.73A18.77,18.77,0,0,1,209,156.37a15.38,15.38,0,0,1,3.39,1.06Z"/><path class="cls-2" d="M206.76,172.68a6.51,6.51,0,0,0-1-.13,8.16,8.16,0,0,0-2.85.37c-2.35.68-5.28,2.94-7.18,6.57a15.1,15.1,0,0,0-.64,1.41c-.09.24-.19.5-.26.73l-.27.84c-.29,1-.58,2.18-.8,3.37-.46,2.39-.71,5-1.24,7.79a39.86,39.86,0,0,1-1,4.28l-.08.27-.12.34-.18.5-.36,1c-.26.68-.66,1.45-1,2.17a29.05,29.05,0,0,1-5.64,7.54,30.67,30.67,0,0,1-7.73,5.29,27.56,27.56,0,0,1-8.71,2.5c-.73.08-1.47.11-2.19.17s-1.44,0-2.15,0-1.35-.12-2-.17-1.36-.17-2-.29a44.28,44.28,0,0,1-7.08-1.81,53,53,0,0,1-9.8-4.51c-1.13-.64-2-1.22-2.54-1.6l-.88-.59s1.37.56,3.78,1.42A78.7,78.7,0,0,0,152.87,213a56.37,56.37,0,0,0,6.82,1c.61.06,1.19.07,1.8.11s1.37.05,1.9,0a32,32,0,0,0,3.73-.35,26.26,26.26,0,0,0,7.41-2.5,26.78,26.78,0,0,0,6.58-4.67,25.3,25.3,0,0,0,4.91-6.33c.28-.58.58-1.08.84-1.73l.41-1,.2-.49.05-.12,0-.06v0c0-.09,0,.08,0,0l.08-.23a37.24,37.24,0,0,0,1.1-3.82c.6-2.6,1.11-5.24,1.82-7.76a31.72,31.72,0,0,1,1.25-3.67l.37-.8c.14-.32.28-.58.43-.86a17,17,0,0,1,.95-1.56,15.6,15.6,0,0,1,4.57-4.45,10.66,10.66,0,0,1,4.57-1.68,7.9,7.9,0,0,1,3.07.25A6.16,6.16,0,0,1,206.76,172.68Z"/><path class="cls-2" d="M84.74,340.18l-1-1.21a24.8,24.8,0,0,1-2.37-3.76,26.57,26.57,0,0,1-2.32-6.56,33.18,33.18,0,0,1-.69-9.06,42.44,42.44,0,0,1,2-10.6,47.89,47.89,0,0,1,5-11c.59-1,1.12-1.74,1.69-2.62s1.23-1.75,1.86-2.63c1.27-1.71,2.64-3.38,4.06-5,2.85-3.26,5.86-6.43,9-9.46s6.2-6,9.14-9,5.75-6,8.44-9,5.23-5.91,7.48-8.79a93.58,93.58,0,0,0,6-8.38,51.57,51.57,0,0,0,4-7.68,30.69,30.69,0,0,0,1.83-6.41,22.93,22.93,0,0,0,.27-4.32c-.08-1-.13-1.55-.13-1.55l.34,1.52a20.48,20.48,0,0,1,.31,4.43,28.64,28.64,0,0,1-1.15,6.85,46.53,46.53,0,0,1-3.4,8.34,78.88,78.88,0,0,1-5.53,9.07c-2.16,3.07-4.56,6.22-7.16,9.36S117,269,114,272.16s-6,6.14-9.09,9.19-6.06,6-8.83,9.18c-1.4,1.55-2.69,3.15-4,4.73l-1.81,2.37c-.57.82-1.23,1.71-1.72,2.46a52.5,52.5,0,0,0-5.12,10,47.11,47.11,0,0,0-2.54,9.76,36,36,0,0,0-.17,8.55A28.17,28.17,0,0,0,84,338.85Z"/><path class="cls-2" d="M138.86,226.24s0,.55,0,1.59,0,2.57-.17,4.5-.34,4.33-.9,7c-.24,1.34-.47,2.78-.87,4.26s-.72,3.07-1.27,4.66-1,3.29-1.7,5l-1,2.59q-.57,1.29-1.17,2.61a100.32,100.32,0,0,1-5.65,10.74c-2.17,3.6-4.53,7.23-7.06,10.82s-5.12,7.14-7.69,10.74-5.09,7.14-7.34,10.78a72.08,72.08,0,0,0-5.76,11,47.91,47.91,0,0,0-3.1,11.05,44,44,0,0,0-.21,10.33c.09.8.13,1.6.25,2.36s.28,1.51.42,2.24.23,1.45.4,2.13.36,1.34.53,2c.61,2.6,1.5,4.76,2.09,6.6s1.3,3.19,1.68,4.16.61,1.48.61,1.48-.28-.48-.82-1.37-1.36-2.18-2.26-3.92A58.9,58.9,0,0,1,95,343.13l-.75-2c-.25-.69-.42-1.42-.64-2.16s-.42-1.51-.63-2.29-.3-1.62-.46-2.46a40.9,40.9,0,0,1-.54-11,45.29,45.29,0,0,1,2.75-12.07,66.53,66.53,0,0,1,5.74-11.8c2.29-3.8,4.81-7.52,7.39-11.13l7.81-10.64c2.51-3.53,5-6.95,7.23-10.4s4.28-6.82,6-10.14l1.28-2.46,1.13-2.43c.79-1.58,1.4-3.17,2-4.68s1.09-3,1.61-4.41.9-2.77,1.26-4.06c.79-2.56,1.2-4.84,1.66-6.72s.6-3.41.79-4.43Z"/><path class="cls-2" d="M123.36,363.69l-1.29-1.09-1.55-1.31-1-.83-1-1.07c-.7-.76-1.53-1.58-2.36-2.53l-2.45-3.26c-.75-1.25-1.56-2.58-2.34-4l-1-2.33c-.17-.4-.34-.81-.52-1.22l-.39-1.29a36.69,36.69,0,0,1-1.78-11.59,54.6,54.6,0,0,1,1.55-12.93c2-8.8,5.61-17.6,9.29-26.24l5.65-12.78c1.81-4.22,3.64-8.34,5.23-12.4s3-8,4.25-11.79c.59-1.9,1.17-3.75,1.63-5.56.25-.9.49-1.79.73-2.66s.39-1.74.58-2.59.37-1.68.55-2.49.27-1.62.4-2.4c.28-1.56.54-3,.67-4.45s.34-2.72.41-4,.13-2.35.19-3.37c.12-2,0-3.65.05-4.75s0-1.69,0-1.69.08.58.24,1.67c.08.55.18,1.22.29,2a22,22,0,0,1,.29,2.74c.06,1,.13,2.18.21,3.42s0,2.59,0,4-.11,3-.24,4.6q-.1,1.22-.21,2.49c-.12.84-.24,1.7-.37,2.59s-.26,1.78-.4,2.7-.36,1.84-.54,2.78c-.33,1.9-.85,3.81-1.34,5.79s-1.12,4-1.7,6-1.34,4.11-2.09,6.19c-1.51,4.17-3.13,8.44-4.95,12.7l-5.52,12.86c-1.87,4.28-3.73,8.55-5.35,12.81a115.91,115.91,0,0,0-4.22,12.61,58.83,58.83,0,0,0-2,12.09,49.44,49.44,0,0,0,.1,5.65c.1.91.19,1.8.29,2.68s.37,1.7.55,2.53l.27,1.23.4,1.17.77,2.26c.6,1.43,1.25,2.77,1.85,4l2,3.36c.69,1,1.38,1.87,2,2.69L120,360l.86,1,1.35,1.51Z"/><path class="cls-2" d="M72.58,300.86s.08-.4.22-1.15.32-1.86.68-3.24a44.81,44.81,0,0,1,1.61-5A42.93,42.93,0,0,1,78,285.38a47.9,47.9,0,0,1,4.52-6.67L83.87,277c.49-.54,1-1.1,1.5-1.65,1-1.14,2.13-2.16,3.26-3.25a78.23,78.23,0,0,1,7.42-6.07c2.63-1.92,5.38-3.72,8.15-5.47s5.6-3.35,8.33-5,5.43-3.18,7.94-4.8a84.54,84.54,0,0,0,7-4.93,42,42,0,0,0,5.44-5.24,28.28,28.28,0,0,0,2-2.71l.84-1.32.66-1.32a19.39,19.39,0,0,0,1-2.48,14,14,0,0,0,.68-2.2,24,24,0,0,0,.65-3.2c.12-.76.18-1.16.18-1.16s0,.41.06,1.17a17.85,17.85,0,0,1,0,3.34,13.84,13.84,0,0,1-.32,2.39,16.14,16.14,0,0,1-.71,2.77c-.16.49-.33,1-.51,1.51l-.7,1.53a26.9,26.9,0,0,1-1.79,3.17,36.06,36.06,0,0,1-5.3,6.19,62.24,62.24,0,0,1-7,5.67c-2.53,1.77-5.16,3.57-7.91,5.22l-8.21,5.08c-2.75,1.68-5.45,3.39-8,5.2s-5,3.61-7.32,5.51c-1.12,1-2.23,1.91-3.25,2.9l-1.54,1.45L85,280.83a61.62,61.62,0,0,0-4.87,5.9,58.48,58.48,0,0,0-3.47,5.51l-.7,1.24-.57,1.18-1,2.1C73.21,299.36,72.58,300.86,72.58,300.86Z"/><path class="cls-2" d="M64.39,273.75s.41.13,1.19.33a17,17,0,0,0,3.4.43,18.13,18.13,0,0,0,5.18-.62,19.25,19.25,0,0,0,6-2.78,22,22,0,0,0,5.41-5.57,27,27,0,0,0,3.58-7.86,65.67,65.67,0,0,0,1.62-9.45,72.74,72.74,0,0,1,1.81-10.38c.11-.44.27-.88.41-1.31l.24-.71.24-.6c.28-.77.7-1.66,1.11-2.52a33.79,33.79,0,0,1,2.88-4.65,30.32,30.32,0,0,1,7.73-7.17,27.9,27.9,0,0,1,9-3.83,27.39,27.39,0,0,1,8.7-.62A28,28,0,0,1,135,220.29a23.94,23.94,0,0,1,2.89,2l1,.8-1.08-.6a30.57,30.57,0,0,0-15-3.58,28.52,28.52,0,0,0-7.75,1.25,28,28,0,0,0-7.75,3.87,30.28,30.28,0,0,0-3.48,3,37,37,0,0,0-3,3.55,28.41,28.41,0,0,0-2.42,4c-.3.69-.62,1.34-.92,2.19l-.23.6-.16.51c-.12.38-.24.76-.34,1.15a69.51,69.51,0,0,0-1.83,9.75,57.54,57.54,0,0,1-2.12,10,27.4,27.4,0,0,1-4.63,8.67,22.46,22.46,0,0,1-6.65,5.73,18.77,18.77,0,0,1-12.61,2.18,15.38,15.38,0,0,1-3.39-1.06C64.77,274,64.39,273.75,64.39,273.75Z"/><path class="cls-2" d="M71.1,259.09a6.51,6.51,0,0,0,1,.13,8.16,8.16,0,0,0,2.85-.37c2.34-.68,5.28-2.94,7.18-6.57a15.1,15.1,0,0,0,.64-1.41c.09-.24.19-.5.26-.73l.27-.84c.29-1,.58-2.18.8-3.37.46-2.39.71-5,1.24-7.79a39.86,39.86,0,0,1,1-4.28l.08-.27.12-.34.18-.5.36-1c.26-.68.66-1.45,1-2.17A29.05,29.05,0,0,1,93.76,222a30.67,30.67,0,0,1,7.73-5.29,27.56,27.56,0,0,1,8.71-2.5c.73-.08,1.47-.11,2.19-.17s1.44,0,2.15,0,1.35.12,2,.17,1.36.17,2,.29a44.28,44.28,0,0,1,7.08,1.81,53,53,0,0,1,9.8,4.51c1.13.64,2,1.22,2.54,1.6l.88.59s-1.37-.56-3.78-1.42A78.7,78.7,0,0,0,125,218.75a56.37,56.37,0,0,0-6.82-1c-.61-.06-1.19-.07-1.8-.11s-1.37,0-1.9,0a32,32,0,0,0-3.73.35,26.26,26.26,0,0,0-7.41,2.5,26.78,26.78,0,0,0-6.58,4.67,25.3,25.3,0,0,0-4.91,6.33c-.28.58-.58,1.08-.84,1.73l-.41,1-.2.49,0,.12,0,.06v0c0,.09,0-.08,0,0l-.08.23a37.24,37.24,0,0,0-1.1,3.82c-.6,2.6-1.11,5.24-1.82,7.76a31.72,31.72,0,0,1-1.25,3.67l-.37.8c-.14.32-.28.58-.43.86a17,17,0,0,1-1,1.56A15.6,15.6,0,0,1,79.75,258a10.66,10.66,0,0,1-4.57,1.68,7.9,7.9,0,0,1-3.07-.25A6.69,6.69,0,0,1,71.1,259.09Z"/><path class="cls-2" d="M193.13,340.18l.78-1.34a28.17,28.17,0,0,0,3.2-10.46,36,36,0,0,0-.17-8.55,47.11,47.11,0,0,0-2.54-9.76,54,54,0,0,0-5.12-10c-.49-.75-1.15-1.64-1.72-2.46l-1.81-2.37c-1.29-1.57-2.57-3.18-4-4.73-2.76-3.13-5.8-6.12-8.83-9.18s-6.12-6.08-9.09-9.19-5.67-6.38-8.27-9.49-5-6.29-7.16-9.36a78,78,0,0,1-5.53-9.07,46.53,46.53,0,0,1-3.4-8.34,28.07,28.07,0,0,1-1.15-6.85,19.79,19.79,0,0,1,.32-4.43l.34-1.52s0,.54-.13,1.55a22.84,22.84,0,0,0,.27,4.32,30.52,30.52,0,0,0,1.83,6.41,51.09,51.09,0,0,0,4,7.68,92.17,92.17,0,0,0,6,8.38c2.26,2.88,4.8,5.8,7.48,8.79s5.46,6.09,8.44,9,6,6,9.14,9,6.11,6.2,9,9.46c1.42,1.63,2.79,3.3,4.06,5l1.86,2.63c.57.89,1.1,1.66,1.69,2.62a48.13,48.13,0,0,1,5,11,42.44,42.44,0,0,1,2,10.6,33.18,33.18,0,0,1-.69,9.06,26.17,26.17,0,0,1-2.32,6.56,24,24,0,0,1-2.37,3.76Z"/><path class="cls-2" d="M139,226.24s.09.55.27,1.57.41,2.54.79,4.43.87,4.16,1.66,6.72c.37,1.28.73,2.66,1.26,4.06s.94,2.91,1.61,4.41,1.23,3.1,2,4.68l1.13,2.43c.42.81.84,1.63,1.28,2.46,1.71,3.33,3.8,6.69,6,10.14s4.72,6.87,7.23,10.4l7.81,10.64c2.59,3.62,5.1,7.33,7.39,11.13a65.85,65.85,0,0,1,5.74,11.8,45.29,45.29,0,0,1,2.75,12.07,40.88,40.88,0,0,1-.54,11c-.16.84-.27,1.66-.46,2.46s-.43,1.55-.63,2.29-.39,1.47-.64,2.16l-.75,2a59.08,59.08,0,0,1-2.88,6.44c-.9,1.73-1.75,3-2.26,3.92l-.81,1.37.61-1.48c.38-1,1-2.36,1.68-4.16s1.48-4,2.09-6.6c.17-.64.35-1.3.53-2s.26-1.41.4-2.13.27-1.47.42-2.24.16-1.56.25-2.36a44,44,0,0,0-.21-10.33,47.77,47.77,0,0,0-3.1-11.05,73,73,0,0,0-5.76-11c-2.24-3.63-4.74-7.22-7.34-10.78L158.84,280c-2.53-3.58-4.89-7.21-7.06-10.82a101.28,101.28,0,0,1-5.65-10.74c-.4-.88-.78-1.75-1.17-2.61s-.68-1.74-1-2.59c-.68-1.68-1.18-3.38-1.7-5s-.89-3.18-1.27-4.66-.63-2.92-.87-4.26a68,68,0,0,1-.9-7c-.17-1.94-.12-3.46-.17-4.5S139,226.24,139,226.24Z"/><path class="cls-2" d="M154.51,363.69l1.12-1.26,1.35-1.51.86-1,.87-1.16c.6-.82,1.3-1.69,2-2.69l2-3.36c.6-1.26,1.25-2.6,1.85-4l.76-2.26.4-1.17.27-1.23c.18-.83.38-1.67.54-2.53s.19-1.77.29-2.68a21.15,21.15,0,0,0,.13-2.78,23,23,0,0,0,0-2.87,58.8,58.8,0,0,0-2-12.09,116.11,116.11,0,0,0-4.24-12.61c-1.62-4.26-3.49-8.53-5.37-12.8l-5.54-12.85c-1.83-4.26-3.46-8.53-5-12.7-.75-2.09-1.45-4.16-2.09-6.19s-1.23-4-1.71-6-1-3.89-1.35-5.79c-.18-.94-.36-1.87-.54-2.78s-.27-1.82-.4-2.7-.25-1.74-.37-2.59-.15-1.68-.22-2.49c-.14-1.62-.26-3.15-.25-4.6s-.1-2.79,0-4,.14-2.39.21-3.42a22,22,0,0,1,.29-2.74c.11-.79.21-1.47.29-2,.16-1.09.24-1.67.24-1.67s0,.59,0,1.69-.08,2.71,0,4.75c.06,1,.12,2.15.19,3.37s.27,2.54.41,3.95.39,2.89.67,4.45c.13.78.27,1.58.41,2.4s.36,1.64.55,2.49.39,1.71.58,2.59.48,1.76.73,2.66c.46,1.81,1,3.66,1.64,5.56,1.2,3.79,2.68,7.73,4.26,11.78s3.43,8.17,5.24,12.39L159.24,294c3.69,8.63,7.35,17.43,9.33,26.23a54.65,54.65,0,0,1,1.57,12.93,36.74,36.74,0,0,1-1.76,11.59L168,346l-.51,1.22c-.34.8-.68,1.57-1,2.33-.78,1.45-1.59,2.79-2.34,4l-2.45,3.26c-.83,1-1.65,1.77-2.36,2.53l-1,1.07-1,.83-1.55,1.31Z"/><path class="cls-2" d="M205.28,300.86l-1.72-4.14-1-2.1-.57-1.18c-.22-.4-.46-.81-.7-1.24a59.79,59.79,0,0,0-3.47-5.51,64.77,64.77,0,0,0-4.87-5.9l-1.42-1.49L190,277.85c-1-1-2.14-1.93-3.25-2.9-2.28-1.9-4.74-3.73-7.32-5.51s-5.26-3.52-8-5.2l-8.21-5.08c-2.74-1.65-5.37-3.45-7.91-5.22a59.26,59.26,0,0,1-7-5.67,36.06,36.06,0,0,1-5.3-6.19,25.55,25.55,0,0,1-1.79-3.17c-.24-.52-.47-1-.7-1.53s-.35-1-.51-1.51a15.91,15.91,0,0,1-.71-2.77,14.74,14.74,0,0,1-.32-2.39,17.86,17.86,0,0,1,0-3.34c0-.76.06-1.17.06-1.17s.06.4.18,1.16a22.46,22.46,0,0,0,.65,3.2,13,13,0,0,0,.68,2.2,18.05,18.05,0,0,0,1,2.48q.31.64.66,1.32l.84,1.32a30.13,30.13,0,0,0,2,2.71,41.38,41.38,0,0,0,5.44,5.24,79.13,79.13,0,0,0,7,4.93c2.51,1.62,5.21,3.16,7.94,4.8s5.54,3.26,8.33,5,5.51,3.55,8.15,5.47a79.52,79.52,0,0,1,7.42,6.07c1.12,1.09,2.27,2.11,3.26,3.25L194,277l1.38,1.69a48.49,48.49,0,0,1,4.52,6.67,48.32,48.32,0,0,1,4.49,11.09c.36,1.38.51,2.49.68,3.24S205.28,300.86,205.28,300.86Z"/><path class="cls-2" d="M213.47,273.75s-.38.21-1.11.55a14.86,14.86,0,0,1-3.39,1.06,18.71,18.71,0,0,1-12.61-2.18,22.44,22.44,0,0,1-6.65-5.73,27.51,27.51,0,0,1-4.63-8.67,57.35,57.35,0,0,1-2.12-10,69.51,69.51,0,0,0-1.83-9.75c-.1-.39-.22-.77-.34-1.15l-.16-.51-.23-.6c-.3-.85-.62-1.5-.92-2.19a29.37,29.37,0,0,0-2.42-4,34.38,34.38,0,0,0-3-3.55,30.28,30.28,0,0,0-3.48-3,27.71,27.71,0,0,0-7.75-3.87,28.52,28.52,0,0,0-7.75-1.25A30.6,30.6,0,0,0,143.23,221a33.22,33.22,0,0,0-3.14,1.45l-1.08.6,1-.8a23.94,23.94,0,0,1,2.89-2A28,28,0,0,1,155,216.4a27.4,27.4,0,0,1,8.7.62,27.9,27.9,0,0,1,9,3.83,30.32,30.32,0,0,1,7.73,7.17,33.43,33.43,0,0,1,2.88,4.65c.41.86.83,1.76,1.11,2.52l.24.6.24.71c.14.44.3.87.41,1.31a73,73,0,0,1,1.81,10.38,65.67,65.67,0,0,0,1.62,9.45,26.89,26.89,0,0,0,3.58,7.86,22.12,22.12,0,0,0,5.41,5.57,19,19,0,0,0,6,2.78,18.53,18.53,0,0,0,5.18.62,17.7,17.7,0,0,0,3.4-.43C213.06,273.88,213.47,273.75,213.47,273.75Z"/><path class="cls-2" d="M206.76,259.09a7.37,7.37,0,0,1-1,.36,7.9,7.9,0,0,1-3.07.25,10.8,10.8,0,0,1-4.57-1.68,15.48,15.48,0,0,1-4.57-4.45,17,17,0,0,1-1-1.56c-.15-.28-.29-.54-.43-.86l-.37-.8a31.72,31.72,0,0,1-1.25-3.67c-.71-2.52-1.23-5.16-1.82-7.76a37.24,37.24,0,0,0-1.1-3.82l-.08-.23s0,.14,0,0v0l0-.06-.05-.12-.2-.49-.41-1c-.27-.65-.57-1.14-.84-1.73a25.07,25.07,0,0,0-4.91-6.33,26.26,26.26,0,0,0-6.58-4.67,26.69,26.69,0,0,0-7.41-2.5,29.92,29.92,0,0,0-3.73-.35c-.53-.05-1.28,0-1.9,0s-1.2,0-1.8.11a57.8,57.8,0,0,0-6.82,1,78.7,78.7,0,0,0-10.09,2.91c-2.41.86-3.78,1.42-3.78,1.42l.88-.59c.58-.38,1.42-1,2.54-1.6a53.32,53.32,0,0,1,9.8-4.51,44.28,44.28,0,0,1,7.08-1.81c.64-.12,1.33-.19,2-.29s1.23-.16,2-.17,1.43-.08,2.15,0,1.46.08,2.19.17a27.56,27.56,0,0,1,8.71,2.5,31,31,0,0,1,7.73,5.29,29.28,29.28,0,0,1,5.64,7.54c.34.72.74,1.49,1,2.17l.36,1,.18.5.12.34.08.27a42.41,42.41,0,0,1,1,4.28c.52,2.78.78,5.4,1.24,7.79.22,1.19.51,2.35.8,3.37l.27.84c.07.23.17.49.26.73a15.1,15.1,0,0,0,.64,1.41c1.9,3.63,4.84,5.9,7.18,6.57a8.4,8.4,0,0,0,2.85.37A7.09,7.09,0,0,0,206.76,259.09Z"/><ellipse class="cls-1" cx="140.2" cy="215.6" rx="50.25" ry="23.47"/><ellipse class="cls-2" cx="140.2" cy="215.6" rx="41.92" ry="19.58"/><path class="cls-2" d="M140.2,235.79A55.24,55.24,0,0,1,97.81,216l-.33-.39.33-.39a55.28,55.28,0,0,1,84.78,0l.33.39-.33.39A55.19,55.19,0,0,1,140.2,235.79ZM99.09,215.6a54,54,0,0,0,82.22,0,54,54,0,0,0-82.22,0Z"/><ellipse class="cls-1" cx="140.2" cy="215.6" rx="29.42" ry="13.74"/><path class="cls-3" d="M95.23,30.83a33.8,33.8,0,0,0,52.34,0,33.8,33.8,0,0,0-52.34,0ZM121.4,44.24A35,35,0,0,1,94.2,31.15l-.26-.32.26-.32a34.8,34.8,0,0,1,54.4,0l.26.32-.26.32A35,35,0,0,1,121.4,44.24Z"/><path class="cls-3" d="M104,30.83a22.58,22.58,0,0,0,34.8,0,22.58,22.58,0,0,0-34.8,0ZM121.4,40A23.73,23.73,0,0,1,103,31.15l-.26-.32.26-.32a23.6,23.6,0,0,1,36.88,0l.26.32-.26.32A23.76,23.76,0,0,1,121.4,40Z"/><path class="cls-3" d="M112.77,30.83a11.36,11.36,0,0,0,17.26,0,11.36,11.36,0,0,0-17.26,0Zm8.63,5a12.47,12.47,0,0,1-9.67-4.65l-.26-.32.26-.32a12.38,12.38,0,0,1,19.34,0l.26.32-.26.32A12.47,12.47,0,0,1,121.4,35.8Z"/><path class="cls-3" d="M59.14,30.83a33.8,33.8,0,0,0,52.34,0,33.8,33.8,0,0,0-52.34,0ZM85.3,44.24A35,35,0,0,1,58.1,31.15l-.26-.32.26-.32a34.8,34.8,0,0,1,54.4,0l.26.32-.26.32A35,35,0,0,1,85.3,44.24Z"/><path class="cls-3" d="M67.9,30.83a22.58,22.58,0,0,0,34.8,0,22.58,22.58,0,0,0-34.8,0ZM85.3,40a23.73,23.73,0,0,1-18.44-8.87l-.26-.32.26-.32a23.6,23.6,0,0,1,36.88,0l.26.32-.26.32A23.76,23.76,0,0,1,85.3,40Z"/><path class="cls-3" d="M76.67,30.83a11.36,11.36,0,0,0,17.26,0,11.36,11.36,0,0,0-17.26,0Zm8.63,5a12.47,12.47,0,0,1-9.67-4.65l-.26-.32.26-.32a12.38,12.38,0,0,1,19.34,0l.26.32-.26.32A12.45,12.45,0,0,1,85.3,35.8Z"/><path class="cls-3" d="M23.62,31.52C30,39.19,38.83,43.24,49.21,43.24A34,34,0,0,0,75.38,30.83,34,34,0,0,0,49.21,18.42C38.22,18.42,28.69,23.31,23.62,31.52ZM49.2,44.24c-10.81,0-20-4.27-26.59-12.36l-.22-.27.18-.3c5.2-8.69,15.16-13.89,26.63-13.89A35,35,0,0,1,76.4,30.51l.26.32-.26.32A35,35,0,0,1,49.2,44.24Z"/><path class="cls-3" d="M32.1,31.17A21.79,21.79,0,0,0,49.21,39a22.72,22.72,0,0,0,17.4-8.19,22.72,22.72,0,0,0-17.4-8.19C42.06,22.64,35.73,25.8,32.1,31.17ZM49.2,40a22.78,22.78,0,0,1-18.13-8.51l-.24-.29.22-.31c3.8-5.83,10.54-9.27,18.15-9.27a23.73,23.73,0,0,1,18.44,8.87l.26.32-.26.32A23.76,23.76,0,0,1,49.2,40Z"/><path class="cls-3" d="M40.57,30.83a11.36,11.36,0,0,0,17.26,0,11.36,11.36,0,0,0-17.26,0Zm8.63,5a12.47,12.47,0,0,1-9.67-4.65l-.26-.32.26-.32a12.38,12.38,0,0,1,19.34,0l.26.32-.26.32A12.45,12.45,0,0,1,49.2,35.8Z"/><path class="cls-3" d="M131.33,30.83a33.8,33.8,0,0,0,52.34,0,33.8,33.8,0,0,0-52.34,0ZM157.5,44.24a35,35,0,0,1-27.2-13.09l-.26-.32.26-.32a34.8,34.8,0,0,1,54.4,0l.26.32-.26.32A35.06,35.06,0,0,1,157.5,44.24Z"/><path class="cls-3" d="M140.1,30.83a22.58,22.58,0,0,0,34.8,0,22.58,22.58,0,0,0-34.8,0ZM157.5,40a23.73,23.73,0,0,1-18.44-8.87l-.26-.32.26-.32a23.6,23.6,0,0,1,36.88,0l.26.32-.26.32A23.79,23.79,0,0,1,157.5,40Z"/><path class="cls-3" d="M148.87,30.83a11.36,11.36,0,0,0,17.26,0,11.36,11.36,0,0,0-17.26,0Zm8.63,5a12.47,12.47,0,0,1-9.67-4.65l-.26-.32.26-.32a12.38,12.38,0,0,1,19.34,0l.26.32-.26.32A12.47,12.47,0,0,1,157.5,35.8Z"/><path class="cls-3" d="M167.43,30.83a33.8,33.8,0,0,0,52.34,0,33.8,33.8,0,0,0-52.34,0Zm26.16,13.41a35,35,0,0,1-27.2-13.09l-.26-.32.26-.32a34.8,34.8,0,0,1,54.4,0l.26.32-.26.32A35,35,0,0,1,193.59,44.24Z"/><path class="cls-3" d="M176.2,30.83a22.58,22.58,0,0,0,34.8,0,22.58,22.58,0,0,0-34.8,0ZM193.59,40a23.73,23.73,0,0,1-18.44-8.87l-.26-.32.26-.32a23.6,23.6,0,0,1,36.88,0l.26.32-.26.32A23.76,23.76,0,0,1,193.59,40Z"/><path class="cls-3" d="M185,30.83a11.36,11.36,0,0,0,17.26,0,11.36,11.36,0,0,0-17.26,0Zm8.63,5a12.47,12.47,0,0,1-9.67-4.65l-.26-.32.26-.32a12.38,12.38,0,0,1,19.34,0l.26.32-.26.32A12.45,12.45,0,0,1,193.59,35.8Z"/><path class="cls-3" d="M202.34,30.83a34,34,0,0,0,26.17,12.41c10.38,0,19.23-4.06,25.6-11.73-4.13-7.84-14.36-13.08-25.6-13.08A34,34,0,0,0,202.34,30.83Zm26.17,13.41a35,35,0,0,1-27.2-13.09l-.26-.32.26-.32a35,35,0,0,1,27.2-13.09c11.74,0,22.44,5.6,26.64,13.92l.15.29-.2.25C248.51,40,239.32,44.24,228.51,44.24Z"/><path class="cls-3" d="M211.11,30.83A22.72,22.72,0,0,0,228.51,39a21.78,21.78,0,0,0,17.11-7.85c-3.17-5.18-9.85-8.53-17.11-8.53A22.72,22.72,0,0,0,211.11,30.83ZM228.51,40a23.73,23.73,0,0,1-18.44-8.87l-.26-.32.26-.32a23.73,23.73,0,0,1,18.44-8.87c7.74,0,14.85,3.65,18.15,9.29l.2.3-.23.28A22.78,22.78,0,0,1,228.51,40Z"/><path class="cls-3" d="M219.88,30.83a11.36,11.36,0,0,0,17.26,0,11.36,11.36,0,0,0-17.26,0Zm8.63,5a12.47,12.47,0,0,1-9.67-4.65l-.26-.32.26-.32a12.38,12.38,0,0,1,19.34,0l.26.32-.26.32A12.47,12.47,0,0,1,228.51,35.8Z"/><path class="cls-3" d="M246.88,97.08a36.27,36.27,0,0,0,0,53.94,36.27,36.27,0,0,0,0-53.94Zm0,55.26-.33-.28a37.24,37.24,0,0,1,0-56l.33-.28.33.28a37.24,37.24,0,0,1,0,56Z"/><path class="cls-3" d="M246.88,106.11a24.24,24.24,0,0,0,0,35.86,24.24,24.24,0,0,0,0-35.86Zm0,37.2-.33-.28a25.24,25.24,0,0,1,0-38l.33-.28.33.28a25.24,25.24,0,0,1,0,38Z"/><path class="cls-3" d="M246.88,115.15a12.23,12.23,0,0,0,0,17.8,12.23,12.23,0,0,0,0-17.8Zm0,19.13-.33-.28a13.23,13.23,0,0,1,0-19.9l.33-.28.33.28a13.23,13.23,0,0,1,0,19.9Z"/><path class="cls-3" d="M246.88,59.87a36.27,36.27,0,0,0,0,53.94,36.27,36.27,0,0,0,0-53.94Zm0,55.27-.33-.28a37.24,37.24,0,0,1,0-56l.33-.28.33.28a37.24,37.24,0,0,1,0,56Z"/><path class="cls-3" d="M246.88,68.91a24.24,24.24,0,0,0,0,35.86,24.24,24.24,0,0,0,0-35.86Zm0,37.2-.33-.28a25.24,25.24,0,0,1,0-38l.33-.28.33.28a25.24,25.24,0,0,1,0,38Z"/><path class="cls-3" d="M246.88,78a12.23,12.23,0,0,0,0,17.8,12.23,12.23,0,0,0,0-17.8Zm0,19.12-.33-.28a13.23,13.23,0,0,1,0-19.9l.33-.28.33.28a13.23,13.23,0,0,1,0,19.9Z"/><path class="cls-3" d="M246.09,23.39c-7.45,6.57-11.23,15.4-11.23,26.25a36,36,0,0,0,12,27,36,36,0,0,0,12-27C258.91,38.19,254,28.17,246.09,23.39Zm.79,54.55-.33-.28a37,37,0,0,1-12.7-28c0-11.12,4.1-20.54,11.84-27.25l.27-.23.31.18c8.41,4.88,13.63,15.34,13.63,27.3a37,37,0,0,1-12.7,28Z"/><path class="cls-3" d="M246.48,32.07A22.74,22.74,0,0,0,239,49.64a24,24,0,0,0,7.93,17.93,24,24,0,0,0,7.93-17.93C254.81,42.21,251.67,35.59,246.48,32.07Zm.4,36.83-.33-.28a25,25,0,0,1-8.6-19A24,24,0,0,1,246.13,31l.3-.26.32.23c5.64,3.68,9.07,10.72,9.07,18.62a25.07,25.07,0,0,1-8.6,19Z"/><path class="cls-3" d="M246.88,40.74a12.23,12.23,0,0,0,0,17.8,12.23,12.23,0,0,0,0-17.8Zm0,19.13-.33-.28a13.23,13.23,0,0,1,0-19.9l.33-.28.33.28a13.23,13.23,0,0,1,0,19.9Z"/><path class="cls-3" d="M246.88,134.28a36.27,36.27,0,0,0,0,53.94,36.27,36.27,0,0,0,0-53.94Zm0,55.26-.33-.28a37.24,37.24,0,0,1,0-56l.33-.28.33.28a37.24,37.24,0,0,1,0,56Z"/><path class="cls-3" d="M246.88,143.32a24.24,24.24,0,0,0,0,35.86,24.24,24.24,0,0,0,0-35.86Zm0,37.19-.33-.28a25.24,25.24,0,0,1,0-38l.33-.28.33.28a25.24,25.24,0,0,1,0,38Z"/><path class="cls-3" d="M246.88,152.35a12.23,12.23,0,0,0,0,17.8,12.23,12.23,0,0,0,0-17.8Zm0,19.13-.33-.28a13.23,13.23,0,0,1,0-19.9l.33-.28.33.28a13.23,13.23,0,0,1,0,19.9Z"/><path class="cls-3" d="M246.88,171.48a36.27,36.27,0,0,0,0,53.94,36.27,36.27,0,0,0,0-53.94Zm0,55.27-.33-.28a37.24,37.24,0,0,1,0-56l.33-.28.33.28a37.24,37.24,0,0,1,0,56Z"/><path class="cls-3" d="M246.88,180.52a24.24,24.24,0,0,0,0,35.86,24.24,24.24,0,0,0,0-35.86Zm0,37.19-.33-.28a25.24,25.24,0,0,1,0-38l.33-.28.33.28a25.24,25.24,0,0,1,0,38Z"/><path class="cls-3" d="M246.88,189.55a12.23,12.23,0,0,0,0,17.8,12.23,12.23,0,0,0,0-17.8Zm0,19.13-.33-.28a13.23,13.23,0,0,1,0-19.9l.33-.28.33.28a13.23,13.23,0,0,1,0,19.9Z"/><path class="cls-3" d="M246.88,208.22a36.27,36.27,0,0,0,0,53.94,36.27,36.27,0,0,0,0-53.94Zm0,55.26-.33-.28a37.24,37.24,0,0,1,0-56l.33-.28.33.28a37.24,37.24,0,0,1,0,56Z"/><path class="cls-3" d="M246.88,217.25a24.24,24.24,0,0,0,0,35.86,24.24,24.24,0,0,0,0-35.86Zm0,37.2-.33-.28a25.24,25.24,0,0,1,0-38l.33-.28.33.28a25.24,25.24,0,0,1,0,38Z"/><path class="cls-3" d="M246.88,226.29a12.23,12.23,0,0,0,0,17.8,12.23,12.23,0,0,0,0-17.8Zm0,19.13-.33-.28a13.23,13.23,0,0,1,0-19.9l.33-.28.33.28a13.23,13.23,0,0,1,0,19.9Z"/><path class="cls-3" d="M246.88,245a36.27,36.27,0,0,0,0,53.94,36.27,36.27,0,0,0,0-53.94Zm0,55.27-.33-.28a37.24,37.24,0,0,1,0-56l.33-.28.33.28a37.24,37.24,0,0,1,0,56Z"/><path class="cls-3" d="M246.88,254a24.24,24.24,0,0,0,0,35.86,24.24,24.24,0,0,0,0-35.86Zm0,37.19-.33-.28a25.24,25.24,0,0,1,0-38l.33-.28.33.28a25.24,25.24,0,0,1,0,38Z"/><path class="cls-3" d="M246.88,263a12.23,12.23,0,0,0,0,17.8,12.23,12.23,0,0,0,0-17.8Zm0,19.13-.33-.28a13.23,13.23,0,0,1,0-19.9l.33-.28.33.28a13.23,13.23,0,0,1,0,19.9Z"/><path class="cls-3" d="M246.88,281.68a36.27,36.27,0,0,0,0,53.94,36.27,36.27,0,0,0,0-53.94Zm0,55.27-.33-.28a37.24,37.24,0,0,1,0-56l.33-.28.33.28a37.24,37.24,0,0,1,0,56Z"/><path class="cls-3" d="M246.88,290.72a24.24,24.24,0,0,0,0,35.86,24.24,24.24,0,0,0,0-35.86Zm0,37.2-.33-.28a25.24,25.24,0,0,1,0-38l.33-.28.33.28a25.24,25.24,0,0,1,0,38Z"/><path class="cls-3" d="M246.88,299.76a12.23,12.23,0,0,0,0,17.8,12.23,12.23,0,0,0,0-17.8Zm0,19.12-.33-.28a13.23,13.23,0,0,1,0-19.9l.33-.28.33.28a13.23,13.23,0,0,1,0,19.9Z"/><path class="cls-3" d="M246.88,318.42a36.27,36.27,0,0,0,0,53.94,36.27,36.27,0,0,0,0-53.94Zm0,55.26-.33-.28a37.24,37.24,0,0,1,0-56l.33-.28.33.28a37.24,37.24,0,0,1,0,56Z"/><path class="cls-3" d="M246.88,327.46a24.24,24.24,0,0,0,0,35.86,24.24,24.24,0,0,0,0-35.86Zm0,37.19-.33-.28a25.24,25.24,0,0,1,0-38l.33-.28.33.28a25.24,25.24,0,0,1,0,38Z"/><path class="cls-3" d="M246.88,336.49a12.23,12.23,0,0,0,0,17.8,12.23,12.23,0,0,0,0-17.8Zm0,19.13-.33-.28a13.23,13.23,0,0,1,0-19.9l.33-.28.33.28a13.23,13.23,0,0,1,0,19.9Z"/><path class="cls-3" d="M246.88,355.15a36,36,0,0,0-12,27c0,10.84,3.75,19.64,11.14,26.18,8.45-5.72,12.91-14.76,12.91-26.18A36,36,0,0,0,246.88,355.15Zm-1,54.41-.29-.25c-7.81-6.76-11.77-15.9-11.77-27.18a37,37,0,0,1,12.7-28l.33-.28.33.28a37,37,0,0,1,12.7,28c0,11.91-4.73,21.32-13.67,27.22Z"/><path class="cls-3" d="M246.88,364.19A24,24,0,0,0,239,382.12a22.73,22.73,0,0,0,7.49,17.54c5.44-4,8.37-10.13,8.37-17.54A24,24,0,0,0,246.88,364.19ZM246.4,401l-.31-.27c-5.34-4.62-8.14-11-8.14-18.57a25.07,25.07,0,0,1,8.6-19l.33-.28.33.28a25,25,0,0,1,8.6,19c0,7.88-3.19,14.4-9.09,18.58Z"/><path class="cls-3" d="M246.88,373.23a12.23,12.23,0,0,0,0,17.8,12.23,12.23,0,0,0,0-17.8Zm0,19.12-.33-.28a13.23,13.23,0,0,1,0-19.9l.33-.28.33.28a13.23,13.23,0,0,1,0,19.9Z"/><path class="cls-3" d="M130.3,401a33.8,33.8,0,0,0,52.34,0,33.8,33.8,0,0,0-52.34,0Zm26.16,13.4a35,35,0,0,1-27.2-13.09l-.26-.32.26-.32a34.8,34.8,0,0,1,54.4,0l.26.32-.26.32A35,35,0,0,1,156.46,414.35Z"/><path class="cls-3" d="M139.07,401a22.58,22.58,0,0,0,34.8,0,22.58,22.58,0,0,0-34.8,0Zm17.39,9.19A23.73,23.73,0,0,1,138,401.27l-.26-.32.26-.32a23.6,23.6,0,0,1,36.88,0l.26.32-.26.32A23.76,23.76,0,0,1,156.46,410.14Z"/><path class="cls-3" d="M147.83,401a11.36,11.36,0,0,0,17.26,0,11.36,11.36,0,0,0-17.26,0Zm8.63,5a12.47,12.47,0,0,1-9.67-4.65l-.26-.32.26-.32a12.38,12.38,0,0,1,19.34,0l.26.32-.26.32A12.45,12.45,0,0,1,156.46,405.92Z"/><path class="cls-3" d="M166.4,401a33.8,33.8,0,0,0,52.34,0,33.8,33.8,0,0,0-52.34,0Zm26.16,13.4a35,35,0,0,1-27.2-13.09l-.26-.32.26-.32a34.8,34.8,0,0,1,54.4,0l.26.32-.26.32A35,35,0,0,1,192.56,414.35Z"/><path class="cls-3" d="M175.16,401a22.58,22.58,0,0,0,34.8,0,22.58,22.58,0,0,0-34.8,0Zm17.4,9.19a23.73,23.73,0,0,1-18.44-8.87l-.26-.32.26-.32a23.6,23.6,0,0,1,36.88,0l.26.32-.26.32A23.76,23.76,0,0,1,192.56,410.14Z"/><path class="cls-3" d="M183.93,401a11.36,11.36,0,0,0,17.26,0,11.36,11.36,0,0,0-17.26,0Zm8.63,5a12.47,12.47,0,0,1-9.67-4.65l-.26-.32.26-.32a12.38,12.38,0,0,1,19.34,0l.26.32-.26.32A12.45,12.45,0,0,1,192.56,405.92Z"/><path class="cls-3" d="M202.49,401a34,34,0,0,0,26.17,12.41c10.62,0,19.89-4.82,25.47-13.23-6.31-7.58-15.11-11.59-25.47-11.59A34,34,0,0,0,202.49,401Zm26.17,13.4a35,35,0,0,1-27.2-13.09l-.26-.32.26-.32a35,35,0,0,1,27.2-13.09c10.81,0,20,4.23,26.48,12.24l.23.28-.2.31C249.42,409.25,239.76,414.35,228.66,414.35Z"/><path class="cls-3" d="M211.26,401a22.72,22.72,0,0,0,17.4,8.19,20.57,20.57,0,0,0,17.05-8.6,21.74,21.74,0,0,0-17.05-7.78A22.72,22.72,0,0,0,211.26,401Zm17.4,9.19a23.73,23.73,0,0,1-18.44-8.87L210,401l.26-.32a23.73,23.73,0,0,1,18.44-8.87,22.71,22.71,0,0,1,18.08,8.45l.24.3-.23.31A21.59,21.59,0,0,1,228.66,410.14Z"/><path class="cls-3" d="M220,401a11.36,11.36,0,0,0,17.26,0A11.36,11.36,0,0,0,220,401Zm8.63,5a12.47,12.47,0,0,1-9.67-4.65l-.26-.32.26-.32a12.38,12.38,0,0,1,19.34,0l.26.32-.26.32A12.47,12.47,0,0,1,228.66,405.92Z"/><path class="cls-3" d="M94.2,401a33.8,33.8,0,0,0,52.34,0,33.8,33.8,0,0,0-52.34,0Zm26.17,13.4a35,35,0,0,1-27.2-13.09l-.26-.32.26-.32a34.8,34.8,0,0,1,54.4,0l.26.32-.26.32A35,35,0,0,1,120.37,414.35Z"/><path class="cls-3" d="M103,401a22.58,22.58,0,0,0,34.8,0,22.58,22.58,0,0,0-34.8,0Zm17.4,9.19a23.73,23.73,0,0,1-18.44-8.87l-.26-.32.26-.32a23.6,23.6,0,0,1,36.88,0l.26.32-.26.32A23.79,23.79,0,0,1,120.37,410.14Z"/><path class="cls-3" d="M111.74,401A11.36,11.36,0,0,0,129,401a11.36,11.36,0,0,0-17.26,0Zm8.63,5a12.47,12.47,0,0,1-9.67-4.65l-.26-.32.26-.32a12.38,12.38,0,0,1,19.34,0l.26.32-.26.32A12.48,12.48,0,0,1,120.37,405.92Z"/><path class="cls-3" d="M58.1,401a33.8,33.8,0,0,0,52.34,0,33.8,33.8,0,0,0-52.34,0Zm26.17,13.4a35,35,0,0,1-27.2-13.09l-.26-.32.26-.32a34.8,34.8,0,0,1,54.4,0l.26.32-.26.32A35,35,0,0,1,84.27,414.35Z"/><path class="cls-3" d="M66.87,401a22.58,22.58,0,0,0,34.8,0,22.58,22.58,0,0,0-34.8,0Zm17.4,9.19a23.73,23.73,0,0,1-18.44-8.87l-.26-.32.26-.32a23.6,23.6,0,0,1,36.88,0l.26.32-.26.32A23.79,23.79,0,0,1,84.27,410.14Z"/><path class="cls-3" d="M75.64,401a11.36,11.36,0,0,0,17.26,0,11.36,11.36,0,0,0-17.26,0Zm8.63,5a12.47,12.47,0,0,1-9.67-4.65l-.26-.32.26-.32a12.38,12.38,0,0,1,19.34,0l.26.32-.26.32A12.47,12.47,0,0,1,84.27,405.92Z"/><path class="cls-3" d="M23.76,400.27c4.13,7.84,14.36,13.08,25.6,13.08a34,34,0,0,0,26.17-12.41,34,34,0,0,0-26.17-12.41C39,388.54,30.13,392.59,23.76,400.27Zm25.59,14.08c-11.74,0-22.44-5.6-26.64-13.92l-.15-.29.2-.25c6.58-8.08,15.77-12.35,26.58-12.35a35,35,0,0,1,27.2,13.09l.26.32-.26.32A35,35,0,0,1,49.35,414.35Z"/><path class="cls-3" d="M32.24,400.61c3.17,5.18,9.84,8.53,17.11,8.53A22.72,22.72,0,0,0,66.75,401a22.72,22.72,0,0,0-17.4-8.19A21.8,21.8,0,0,0,32.24,400.61Zm17.11,9.53c-7.74,0-14.85-3.65-18.15-9.29l-.2-.3.23-.28a22.78,22.78,0,0,1,18.13-8.5,23.73,23.73,0,0,1,18.44,8.87l.26.32-.26.32A23.82,23.82,0,0,1,49.35,410.14Z"/><path class="cls-3" d="M40.72,401A11.36,11.36,0,0,0,58,401a11.36,11.36,0,0,0-17.26,0Zm8.63,5a12.47,12.47,0,0,1-9.67-4.65l-.26-.32.26-.32a12.38,12.38,0,0,1,19.34,0l.26.32-.26.32A12.45,12.45,0,0,1,49.35,405.92Z"/><path class="cls-3" d="M31,280.76a36.27,36.27,0,0,0,0,53.94,36.27,36.27,0,0,0,0-53.94ZM31,336l-.33-.28a37.24,37.24,0,0,1,0-56l.33-.28.33.28a37.24,37.24,0,0,1,0,56Z"/><path class="cls-3" d="M31,289.8a24.24,24.24,0,0,0,0,35.86,24.24,24.24,0,0,0,0-35.86ZM31,327l-.33-.28a25.24,25.24,0,0,1,0-38l.33-.28.33.28a25.24,25.24,0,0,1,0,38Z"/><path class="cls-3" d="M31,298.83a12.23,12.23,0,0,0,0,17.8,12.23,12.23,0,0,0,0-17.8ZM31,318l-.33-.28a13.23,13.23,0,0,1,0-19.9l.33-.28.33.28a13.23,13.23,0,0,1,0,19.9Z"/><path class="cls-3" d="M31,318a36.27,36.27,0,0,0,0,53.94A36.27,36.27,0,0,0,31,318Zm0,55.27-.33-.28a37.24,37.24,0,0,1,0-56l.33-.28.33.28a37.24,37.24,0,0,1,0,56Z"/><path class="cls-3" d="M31,327a24.24,24.24,0,0,0,0,35.86A24.24,24.24,0,0,0,31,327Zm0,37.19-.33-.28a25.24,25.24,0,0,1,0-38l.33-.28.33.28a25.24,25.24,0,0,1,0,38Z"/><path class="cls-3" d="M31,336a12.23,12.23,0,0,0,0,17.8A12.23,12.23,0,0,0,31,336Zm0,19.12-.33-.28a13.23,13.23,0,0,1,0-19.9l.33-.28.33.28a13.23,13.23,0,0,1,0,19.9Z"/><path class="cls-3" d="M31,355.16a36,36,0,0,0-12,27c0,11.45,4.9,21.47,12.82,26.25C39.23,401.81,43,393,43,382.13A36,36,0,0,0,31,355.16Zm.91,54.45-.31-.18C23.18,404.55,18,394.09,18,382.13a37,37,0,0,1,12.7-28l.33-.28.33.28a37,37,0,0,1,12.7,28c0,11.12-4.1,20.54-11.84,27.25Z"/><path class="cls-3" d="M31,364.2a24,24,0,0,0-7.93,17.93c0,7.43,3.15,14.05,8.33,17.57a22.74,22.74,0,0,0,7.53-17.57A24,24,0,0,0,31,364.2ZM31.44,401l-.32-.23c-5.64-3.68-9.07-10.72-9.07-18.62a25.07,25.07,0,0,1,8.6-19l.33-.28.33.28a25,25,0,0,1,8.6,19,24,24,0,0,1-8.18,18.6Z"/><path class="cls-3" d="M31,373.24A12.23,12.23,0,0,0,31,391a12.23,12.23,0,0,0,0-17.8Zm0,19.12-.33-.28a13.23,13.23,0,0,1,0-19.9l.33-.28.33.28a13.23,13.23,0,0,1,0,19.9Z"/><path class="cls-3" d="M31,243.56a36.27,36.27,0,0,0,0,53.94,36.27,36.27,0,0,0,0-53.94Zm0,55.26-.33-.28a37.24,37.24,0,0,1,0-56l.33-.28.33.28a37.24,37.24,0,0,1,0,56Z"/><path class="cls-3" d="M31,252.59a24.24,24.24,0,0,0,0,35.86,24.24,24.24,0,0,0,0-35.86Zm0,37.2-.33-.28a25.24,25.24,0,0,1,0-38l.33-.28.33.28a25.24,25.24,0,0,1,0,38Z"/><path class="cls-3" d="M31,261.63a12.23,12.23,0,0,0,0,17.8,12.23,12.23,0,0,0,0-17.8Zm0,19.13-.33-.28a13.23,13.23,0,0,1,0-19.9l.33-.28.33.28a13.23,13.23,0,0,1,0,19.9Z"/><path class="cls-3" d="M31,206.35a36.27,36.27,0,0,0,0,53.94,36.27,36.27,0,0,0,0-53.94Zm0,55.27-.33-.28a37.24,37.24,0,0,1,0-56L31,205l.33.28a37.24,37.24,0,0,1,0,56Z"/><path class="cls-3" d="M31,215.39a24.24,24.24,0,0,0,0,35.86,24.24,24.24,0,0,0,0-35.86Zm0,37.2-.33-.28a25.24,25.24,0,0,1,0-38l.33-.28.33.28a25.24,25.24,0,0,1,0,38Z"/><path class="cls-3" d="M31,224.43a12.23,12.23,0,0,0,0,17.8,12.23,12.23,0,0,0,0-17.8Zm0,19.12-.33-.28a13.23,13.23,0,0,1,0-19.9l.33-.28.33.28a13.23,13.23,0,0,1,0,19.9Z"/><path class="cls-3" d="M31,169.62a36.27,36.27,0,0,0,0,53.94,36.27,36.27,0,0,0,0-53.94Zm0,55.26-.33-.28a37.24,37.24,0,0,1,0-56l.33-.28.33.28a37.24,37.24,0,0,1,0,56Z"/><path class="cls-3" d="M31,178.66a24.24,24.24,0,0,0,0,35.86,24.24,24.24,0,0,0,0-35.86Zm0,37.19-.33-.28a25.24,25.24,0,0,1,0-38l.33-.28.33.28a25.24,25.24,0,0,1,0,38Z"/><path class="cls-3" d="M31,187.69a12.23,12.23,0,0,0,0,17.8,12.23,12.23,0,0,0,0-17.8Zm0,19.13-.33-.28a13.23,13.23,0,0,1,0-19.9l.33-.28.33.28a13.23,13.23,0,0,1,0,19.9Z"/><path class="cls-3" d="M31,132.88a36.27,36.27,0,0,0,0,53.94,36.27,36.27,0,0,0,0-53.94Zm0,55.27-.33-.28a37.24,37.24,0,0,1,0-56l.33-.28.33.28a37.24,37.24,0,0,1,0,56Z"/><path class="cls-3" d="M31,141.92a24.24,24.24,0,0,0,0,35.86,24.24,24.24,0,0,0,0-35.86Zm0,37.2-.33-.28a25.24,25.24,0,0,1,0-38l.33-.28.33.28a25.24,25.24,0,0,1,0,38Z"/><path class="cls-3" d="M31,151a12.23,12.23,0,0,0,0,17.8A12.23,12.23,0,0,0,31,151Zm0,19.12-.33-.28a13.23,13.23,0,0,1,0-19.9l.33-.28.33.28a13.23,13.23,0,0,1,0,19.9Z"/><path class="cls-3" d="M31,96.15a36.27,36.27,0,0,0,0,53.94,36.27,36.27,0,0,0,0-53.94Zm0,55.27-.33-.28a37.24,37.24,0,0,1,0-56l.33-.28.33.28a37.24,37.24,0,0,1,0,56Z"/><path class="cls-3" d="M31,105.19a24.24,24.24,0,0,0,0,35.86,24.24,24.24,0,0,0,0-35.86Zm0,37.19-.33-.28a25.24,25.24,0,0,1,0-38l.33-.28.33.28a25.24,25.24,0,0,1,0,38Z"/><path class="cls-3" d="M31,114.22A12.23,12.23,0,0,0,31,132a12.23,12.23,0,0,0,0-17.8Zm0,19.13-.33-.28a13.23,13.23,0,0,1,0-19.9l.33-.28.33.28a13.23,13.23,0,0,1,0,19.9Z"/><path class="cls-3" d="M31,59.42a36.27,36.27,0,0,0,0,53.94,36.27,36.27,0,0,0,0-53.94Zm0,55.26-.33-.28a37.24,37.24,0,0,1,0-56L31,58.1l.33.28a37.24,37.24,0,0,1,0,56Z"/><path class="cls-3" d="M31,68.45a24.24,24.24,0,0,0,0,35.86,24.24,24.24,0,0,0,0-35.86Zm0,37.2-.33-.28a25.24,25.24,0,0,1,0-38l.33-.28.33.28a25.24,25.24,0,0,1,0,38Z"/><path class="cls-3" d="M31,77.49a12.23,12.23,0,0,0,0,17.8,12.23,12.23,0,0,0,0-17.8Zm0,19.12-.33-.28a13.23,13.23,0,0,1,0-19.9l.33-.28.33.28a13.23,13.23,0,0,1,0,19.9Z"/><path class="cls-3" d="M31.72,23.34C21.18,30.07,19,41.34,19,49.65a36,36,0,0,0,12,27,36,36,0,0,0,12-27C43,39,39.1,29.87,31.72,23.34ZM31,78l-.33-.28a37,37,0,0,1-12.7-28C18,41,20.3,29.26,31.5,22.3l.31-.19.28.24C39.88,29.09,44,38.53,44,49.66a37,37,0,0,1-12.7,28Z"/><path class="cls-3" d="M31.35,32.05c-6.49,4.5-8.3,11.75-8.3,17.6A24,24,0,0,0,31,67.58a24,24,0,0,0,7.93-17.93A23,23,0,0,0,31.35,32.05ZM31,68.91l-.33-.28a25,25,0,0,1-8.6-19c0-6.24,2-13.94,9-18.65l.32-.24.3.26a24,24,0,0,1,8.21,18.63,25.07,25.07,0,0,1-8.6,19Z"/><path class="cls-3" d="M31,40.75a12.23,12.23,0,0,0,0,17.8,12.23,12.23,0,0,0,0-17.8Zm0,19.13-.33-.28a13.23,13.23,0,0,1,0-19.9l.33-.28.33.28a13.23,13.23,0,0,1,0,19.9Z"/><path class="cls-3" d="M23,32.63l-.46-.82a21.44,21.44,0,0,0-2-2.74c-2.18-2.76-4.9-6.2-6-14.18l-.08-.62.62.05c.44,0,10.74.95,17,8.07l.35.4L31,23.93c-3.51,2.66-5.82,4.41-7.55,7.86ZM15.71,15.39A24.27,24.27,0,0,0,21.4,28.44c.56.71,1.1,1.4,1.58,2.11,1.79-3.16,4.19-5,7.42-7.42l.64-.48C25.9,17.15,18,15.7,15.71,15.39Z"/><path class="cls-3" d="M255.11,32.63l-.42-.84c-1.72-3.44-4-5.2-7.54-7.85l-1.5-1.14.35-.4c6.24-7.12,16.55-8,17-8.07l.62-.05-.08.62c-1.09,8-3.8,11.42-6,14.18a23.27,23.27,0,0,0-2,2.74Zm-8-10,.64.49c3.23,2.45,5.63,4.26,7.42,7.42.47-.72,1-1.4,1.58-2.11a24.31,24.31,0,0,0,5.69-13C260.16,15.7,252.24,17.15,247.11,22.65Z"/><path class="cls-3" d="M14.54,417.38l.08-.62c1.09-8,3.81-11.42,6-14.18a23.27,23.27,0,0,0,2-2.74L23,399l.42.84c1.72,3.44,4,5.2,7.55,7.86l1.5,1.14-.35.4c-6.24,7.12-16.55,8-17,8.07ZM23,401.09c-.47.72-1,1.4-1.58,2.11a24.31,24.31,0,0,0-5.69,13.05C18,415.94,25.9,414.49,31,409l-.64-.48C27.16,406.07,24.76,404.25,23,401.09Z"/><path class="cls-3" d="M263.6,417.38l-.62-.05c-.44,0-10.74-.95-17-8.07l-.35-.4,1.5-1.14c3.5-2.66,5.82-4.41,7.54-7.85l.42-.84.46.82a21.44,21.44,0,0,0,2,2.74c2.18,2.76,4.9,6.2,6,14.18ZM247.11,409c5.14,5.51,13.05,6.95,15.32,7.26a24.35,24.35,0,0,0-5.69-13.06c-.56-.71-1.1-1.4-1.58-2.11-1.79,3.16-4.19,5-7.42,7.42Z"/></g></g></svg>