<svg xmlns="http://www.w3.org/2000/svg" viewBox="0 0 340.63 326.22"><defs><style>.cls-1{fill:#1f1f1f;}.cls-2{fill:#5b5b5b;}.cls-3{fill:#fff;}</style></defs><title>Asset 3</title><g id="Layer_2" data-name="Layer 2"><g id="Layer_1-2" data-name="Layer 1"><path class="cls-1" d="M203.92,326.22H6a6,6,0,0,1-6-6V6A6,6,0,0,1,6,0H203.92a6,6,0,0,1,6,6V320.22A6,6,0,0,1,203.92,326.22Z"/><path class="cls-2" d="M9.85,315.36V10.85a1,1,0,0,1,1-1H199.06a1,1,0,0,1,1,1V315.36a1,1,0,0,1-1,1H10.85A1,1,0,0,1,9.85,315.36Z"/><rect class="cls-1" x="37.16" y="37.15" width="135.61" height="251.91"/><path class="cls-2" d="M64,69.2s-.21.35-.59,1A21.46,21.46,0,0,0,61,78.12a27.25,27.25,0,0,0,.13,6.46A36,36,0,0,0,63.05,92a40,40,0,0,0,3.87,7.55c.37.56.87,1.24,1.3,1.86l1.37,1.79c1,1.19,2,2.4,3,3.57,2.09,2.36,4.38,4.63,6.67,6.93s4.63,4.6,6.87,6.94,4.28,4.82,6.25,7.17,3.78,4.75,5.41,7.07a59.47,59.47,0,0,1,4.18,6.85,35.16,35.16,0,0,1,2.57,6.3,21.75,21.75,0,0,1,.87,5.17,15.28,15.28,0,0,1-.24,3.34l-.26,1.15s0-.41.09-1.17a16.78,16.78,0,0,0-.21-3.27,23.25,23.25,0,0,0-1.38-4.85,38.63,38.63,0,0,0-3-5.81,70.94,70.94,0,0,0-4.5-6.33c-1.71-2.18-3.63-4.38-5.65-6.64s-4.13-4.6-6.38-6.82S79.3,118.24,77,116s-4.62-4.68-6.77-7.14c-1.07-1.23-2.11-2.49-3.07-3.79l-1.4-2c-.43-.67-.83-1.25-1.28-2a36.42,36.42,0,0,1-3.76-8.3,32.34,32.34,0,0,1-1.48-8,24.72,24.72,0,0,1,.52-6.85,20.44,20.44,0,0,1,1.75-5,18.23,18.23,0,0,1,1.79-2.84Z"/><path class="cls-2" d="M104.9,155.29l-.2-1.19c-.14-.77-.31-1.92-.59-3.35s-.66-3.14-1.25-5.08c-.28-1-.55-2-1-3.06s-.71-2.2-1.22-3.34-.93-2.34-1.53-3.54c-.28-.6-.57-1.22-.85-1.84s-.64-1.23-1-1.86c-1.29-2.51-2.87-5-4.52-7.66s-3.57-5.19-5.46-7.86l-5.9-8c-2-2.73-3.86-5.54-5.59-8.41a49.92,49.92,0,0,1-4.34-8.92A34.28,34.28,0,0,1,69.46,82a30.65,30.65,0,0,1,.41-8.34c.12-.63.21-1.26.35-1.86s.32-1.17.48-1.73.3-1.11.48-1.63.38-1,.57-1.5a43.52,43.52,0,0,1,2.18-4.87c.68-1.31,1.32-2.28,1.71-3l.62-1-.46,1.12c-.29.73-.75,1.78-1.27,3.14s-1.12,3-1.58,5l-.4,1.5c-.13.52-.2,1.06-.3,1.61s-.21,1.11-.31,1.69-.12,1.18-.19,1.79a33.24,33.24,0,0,0,.16,7.81,36.25,36.25,0,0,0,2.34,8.35,54.74,54.74,0,0,0,4.35,8.32c1.69,2.75,3.58,5.46,5.54,8.14L90,114.67c1.91,2.71,3.69,5.45,5.33,8.17A76.66,76.66,0,0,1,99.55,131l.88,2,.76,1.95c.52,1.27.89,2.55,1.28,3.76s.68,2.4,1,3.52.48,2.21.66,3.22a53,53,0,0,1,.68,5.29c.13,1.46.09,2.62.13,3.4S104.9,155.29,104.9,155.29Z"/><path class="cls-2" d="M93.19,51.44l-.85,1-1,1.14-.65.72c-.21.27-.42.57-.65.87-.45.62-1,1.28-1.5,2L87,59.69c-.45,1-.94,2-1.4,3L85,64.44l-.3.88c-.07.31-.14.62-.2.93-.14.62-.27,1.26-.41,1.91s-.14,1.34-.22,2a18.13,18.13,0,0,0-.1,2.1,19.7,19.7,0,0,0,0,2.17,44.41,44.41,0,0,0,1.53,9.14,88.09,88.09,0,0,0,3.19,9.53c1.22,3.22,2.63,6.44,4,9.68l4.17,9.71c1.38,3.22,2.6,6.45,3.74,9.6q.84,2.37,1.58,4.68c.44,1.56.93,3.06,1.28,4.56s.76,2.94,1,4.37c.14.71.27,1.41.41,2.1s.2,1.37.3,2,.19,1.32.28,1.95.11,1.27.16,1.88c.1,1.22.19,2.38.18,3.47s.07,2.11,0,3.05-.11,1.8-.16,2.58a18.3,18.3,0,0,1-.22,2.07c-.09.6-.16,1.11-.22,1.52-.12.82-.18,1.26-.18,1.26s0-.44,0-1.28.06-2.05,0-3.59c0-.77-.09-1.62-.14-2.55s-.2-1.92-.31-3-.29-2.19-.5-3.36c-.1-.59-.2-1.19-.31-1.81s-.27-1.24-.42-1.88-.29-1.29-.44-2-.36-1.33-.55-2c-.34-1.37-.79-2.77-1.23-4.2-.9-2.87-2-5.84-3.21-8.9s-2.58-6.18-4-9.37l-4.27-9.66c-2.78-6.52-5.54-13.17-7-19.82a41.7,41.7,0,0,1-1.17-9.77,27.88,27.88,0,0,1,1.34-8.75c.1-.33.2-.65.29-1l.39-.92c.26-.6.52-1.19.76-1.76C84.73,61,85.34,60,85.91,59l1.85-2.46c.63-.72,1.25-1.34,1.78-1.91l.76-.81.74-.63,1.17-1Z"/><path class="cls-2" d="M54.83,98.9s.47,1.14,1.3,3.12l.77,1.58.43.89c.17.3.34.61.53.93a42.64,42.64,0,0,0,2.62,4.16A48.35,48.35,0,0,0,64.16,114l1.07,1.13,1.16,1.1c.77.75,1.61,1.46,2.46,2.19,1.72,1.44,3.58,2.81,5.53,4.17s4,2.66,6.05,3.93l6.2,3.84c2.07,1.25,4.06,2.61,6,3.95a46.29,46.29,0,0,1,5.27,4.28,26.34,26.34,0,0,1,4,4.68,19.41,19.41,0,0,1,1.35,2.39l.53,1.16.39,1.14a12.17,12.17,0,0,1,.54,2.09,10.52,10.52,0,0,1,.24,1.8,13.29,13.29,0,0,1,0,2.52c0,.58,0,.88,0,.88s-.05-.3-.14-.88a17.09,17.09,0,0,0-.49-2.42,10.67,10.67,0,0,0-.51-1.66,14.36,14.36,0,0,0-.78-1.87l-.5-1-.63-1a21.81,21.81,0,0,0-1.48-2,30.57,30.57,0,0,0-4.11-4A63.19,63.19,0,0,0,91,136.74c-1.9-1.23-3.94-2.39-6-3.63s-4.19-2.47-6.29-3.76-4.17-2.68-6.15-4.13a59.23,59.23,0,0,1-5.6-4.58c-.85-.82-1.71-1.59-2.46-2.46l-1.13-1.25-1-1.28a37.12,37.12,0,0,1-3.42-5A32.45,32.45,0,0,1,56.73,106a33.56,33.56,0,0,1-1.21-3.74c-.27-1-.39-1.88-.51-2.45S54.83,98.9,54.83,98.9Z"/><path class="cls-2" d="M48.64,119.39s.29-.16.84-.42a11,11,0,0,1,2.56-.8,14.18,14.18,0,0,1,9.53,1.64,16.73,16.73,0,0,1,5,4.33,20.88,20.88,0,0,1,3.5,6.55,42.75,42.75,0,0,1,1.6,7.56,52,52,0,0,0,1.38,7.37c.08.3.17.58.26.87l.12.39.17.45c.22.64.47,1.13.7,1.66a21.8,21.8,0,0,0,1.83,3,28.11,28.11,0,0,0,2.29,2.68A22.16,22.16,0,0,0,81.07,157a21.17,21.17,0,0,0,5.86,2.93,21.74,21.74,0,0,0,5.86.94,22.91,22.91,0,0,0,8.93-1.61,24.07,24.07,0,0,0,2.37-1.1l.82-.45-.72.6a19.1,19.1,0,0,1-2.18,1.53,21.18,21.18,0,0,1-9.16,2.91,20.54,20.54,0,0,1-6.57-.47,21.26,21.26,0,0,1-6.82-2.89,22.87,22.87,0,0,1-5.84-5.42,25.61,25.61,0,0,1-2.18-3.52c-.31-.65-.63-1.33-.84-1.91l-.18-.45-.18-.54c-.11-.33-.23-.66-.31-1a54.18,54.18,0,0,1-1.36-7.84,50.05,50.05,0,0,0-1.22-7.14,20.53,20.53,0,0,0-2.7-5.94,16.6,16.6,0,0,0-4.09-4.21,14.45,14.45,0,0,0-4.52-2.1,13.83,13.83,0,0,0-3.92-.47,12.43,12.43,0,0,0-2.57.33C49,119.29,48.64,119.39,48.64,119.39Z"/><path class="cls-2" d="M53.71,130.47a5.59,5.59,0,0,1,.76-.27,5.92,5.92,0,0,1,2.32-.19,8.1,8.1,0,0,1,3.45,1.27,11.64,11.64,0,0,1,3.45,3.36,12.34,12.34,0,0,1,.72,1.18c.11.21.22.41.32.65l.28.61a23.9,23.9,0,0,1,.94,2.78c.54,1.9.93,3.9,1.38,5.86a27.26,27.26,0,0,0,.83,2.88l.06.18s0-.11,0,0v0l0,.05,0,.09.15.37.31.75c.2.49.43.86.64,1.3a18.75,18.75,0,0,0,3.71,4.78,19.81,19.81,0,0,0,5,3.53,20.24,20.24,0,0,0,5.6,1.89,22.78,22.78,0,0,0,2.82.27c.4,0,1,0,1.43,0s.9,0,1.36-.08a42.39,42.39,0,0,0,5.15-.76,58.84,58.84,0,0,0,7.62-2.2c1.82-.65,2.86-1.08,2.86-1.08l-.66.45c-.44.29-1.07.73-1.92,1.21a40.34,40.34,0,0,1-7.4,3.41,33.11,33.11,0,0,1-5.35,1.37c-.48.09-1,.15-1.51.22s-.93.12-1.53.13-1.08.06-1.63,0-1.1-.06-1.65-.13a21,21,0,0,1-6.58-1.89,23.05,23.05,0,0,1-5.84-4,21.9,21.9,0,0,1-4.26-5.69c-.25-.54-.56-1.12-.76-1.64l-.27-.76L65.4,150l-.09-.25-.06-.21a29,29,0,0,1-.75-3.24c-.4-2.1-.59-4.08-.93-5.89-.17-.9-.39-1.77-.61-2.55-.07-.21-.14-.43-.2-.63s-.13-.37-.2-.55a11.37,11.37,0,0,0-.48-1.06,9.87,9.87,0,0,0-5.43-5,6.25,6.25,0,0,0-2.16-.28A4.72,4.72,0,0,0,53.71,130.47Z"/><path class="cls-2" d="M145.9,69.2l.74.91A18.23,18.23,0,0,1,148.43,73a19.74,19.74,0,0,1,1.75,5,25.08,25.08,0,0,1,.52,6.85,32.51,32.51,0,0,1-1.48,8,36.42,36.42,0,0,1-3.76,8.3c-.44.73-.85,1.31-1.28,2l-1.4,2c-1,1.29-2,2.55-3.07,3.79-2.15,2.46-4.43,4.85-6.77,7.14s-4.68,4.54-6.9,6.81-4.35,4.54-6.38,6.82-4,4.47-5.65,6.64a67.08,67.08,0,0,0-4.5,6.33,39.09,39.09,0,0,0-3,5.81,23.08,23.08,0,0,0-1.38,4.85,17.62,17.62,0,0,0-.21,3.27c.06.76.09,1.17.09,1.17l-.26-1.15a15.33,15.33,0,0,1-.24-3.34,21.75,21.75,0,0,1,.87-5.17,35.16,35.16,0,0,1,2.57-6.3,59.47,59.47,0,0,1,4.18-6.85c1.64-2.32,3.45-4.7,5.41-7.07s4-4.8,6.25-7.17,4.57-4.64,6.87-6.94,4.58-4.57,6.67-6.93c1.06-1.17,2-2.38,3-3.57l1.37-1.79c.43-.62.93-1.29,1.3-1.86A40,40,0,0,0,146.86,92a35.63,35.63,0,0,0,1.92-7.38,27.25,27.25,0,0,0,.13-6.46,21.64,21.64,0,0,0-1.1-4.9,23.09,23.09,0,0,0-1.32-3C146.11,69.55,145.9,69.2,145.9,69.2Z"/><path class="cls-2" d="M105,155.29s0-.42,0-1.2,0-1.94.13-3.4.26-3.27.68-5.29c.18-1,.35-2.1.66-3.22s.55-2.32,1-3.52.76-2.49,1.28-3.76l.76-2,.88-2a77.64,77.64,0,0,1,4.27-8.12c1.64-2.72,3.42-5.46,5.33-8.17l5.81-8.11c2-2.69,3.85-5.4,5.54-8.14a54.74,54.74,0,0,0,4.35-8.32A36.25,36.25,0,0,0,138,81.77a33.24,33.24,0,0,0,.16-7.81c-.07-.61-.1-1.21-.19-1.79s-.21-1.14-.31-1.69-.18-1.1-.3-1.61l-.4-1.5c-.46-2-1.13-3.6-1.58-5s-1-2.41-1.27-3.14l-.46-1.12s.21.36.62,1,1,1.65,1.71,3A44.54,44.54,0,0,1,138.19,67l.57,1.5c.19.52.32,1.07.48,1.63s.31,1.14.48,1.73.23,1.22.35,1.86a31.45,31.45,0,0,1,.41,8.34,34.37,34.37,0,0,1-2.08,9.12,50.25,50.25,0,0,1-4.34,8.92c-1.73,2.87-3.63,5.68-5.59,8.41l-5.9,8c-1.9,2.66-3.8,5.25-5.46,7.86s-3.23,5.15-4.52,7.66l-1,1.86-.85,1.84c-.6,1.19-1,2.39-1.53,3.54s-.82,2.27-1.22,3.34-.68,2.09-1,3.06c-.6,1.94-.91,3.66-1.25,5.08s-.45,2.58-.59,3.35S105,155.29,105,155.29Z"/><path class="cls-2" d="M116.72,51.44l1,.83,1.17,1,.74.63.76.81c.53.57,1.15,1.19,1.78,1.91L124,59.07c.56.94,1.18,2,1.77,3l.76,1.76.39.92c.1.32.19.65.29,1a28,28,0,0,1,1.33,8.76,41.78,41.78,0,0,1-1.18,9.77c-1.49,6.65-4.26,13.3-7,19.82-1.43,3.24-2.87,6.47-4.28,9.65s-2.76,6.3-4,9.36-2.31,6-3.22,8.9c-.45,1.43-.89,2.83-1.24,4.2-.19.68-.37,1.35-.55,2s-.3,1.32-.44,2-.28,1.27-.42,1.88-.21,1.22-.31,1.81c-.21,1.18-.41,2.3-.51,3.36s-.26,2.06-.31,3-.1,1.78-.14,2.55c-.09,1.54,0,2.76,0,3.59s0,1.28,0,1.28-.06-.44-.18-1.26c-.06-.41-.13-.92-.22-1.52a18.3,18.3,0,0,1-.22-2.07c0-.78-.1-1.64-.16-2.58s0-2,0-3,.08-2.25.19-3.47c.05-.61.11-1.24.16-1.88s.19-1.29.28-2l.3-2c.13-.69.27-1.39.41-2.1.25-1.43.65-2.88,1-4.37s.85-3,1.29-4.56,1-3.1,1.58-4.68c1.14-3.15,2.37-6.38,3.75-9.6l4.18-9.71c1.42-3.23,2.83-6.46,4.06-9.67a88,88,0,0,0,3.2-9.52,44.23,44.23,0,0,0,1.54-9.14,17.49,17.49,0,0,0,0-2.17,18.13,18.13,0,0,0-.1-2.1c-.07-.69-.15-1.36-.22-2s-.28-1.29-.41-1.91c-.07-.31-.14-.62-.2-.93l-.3-.88-.58-1.71c-.45-1.08-.94-2.09-1.4-3.05s-1.06-1.76-1.54-2.54-1.05-1.41-1.5-2l-.65-.87-.65-.72-1-1.14C117,51.77,116.72,51.44,116.72,51.44Z"/><path class="cls-2" d="M155.09,98.9l-.17.87c-.12.56-.24,1.4-.51,2.45A36.37,36.37,0,0,1,151,110.6a36.22,36.22,0,0,1-3.42,5l-1,1.28-1.13,1.25c-.75.86-1.61,1.63-2.46,2.46a59,59,0,0,1-5.6,4.58c-2,1.45-4.07,2.81-6.15,4.13s-4.23,2.53-6.29,3.76-4.1,2.4-6,3.63a60.93,60.93,0,0,0-5.27,3.73,31.81,31.81,0,0,0-4.11,4,21.32,21.32,0,0,0-1.48,2l-.63,1-.5,1a13.09,13.09,0,0,0-.78,1.87,9.69,9.69,0,0,0-.51,1.66,18.66,18.66,0,0,0-.49,2.42l-.14.88s0-.31,0-.88a14.2,14.2,0,0,1,0-2.52,10.27,10.27,0,0,1,.24-1.8,12.17,12.17,0,0,1,.54-2.09q.18-.56.39-1.14l.53-1.16a19.25,19.25,0,0,1,1.35-2.39,27.06,27.06,0,0,1,4-4.68,46.29,46.29,0,0,1,5.27-4.28c1.91-1.34,3.9-2.7,6-4l6.2-3.84c2.07-1.27,4.12-2.56,6.05-3.93s3.81-2.73,5.53-4.17c.84-.73,1.68-1.45,2.46-2.19l1.16-1.1,1.07-1.13a47.06,47.06,0,0,0,3.68-4.46,43.88,43.88,0,0,0,2.62-4.16l.53-.93.43-.89.77-1.58C154.61,100,155.09,98.9,155.09,98.9Z"/><path class="cls-2" d="M161.28,119.39s-.31-.1-.9-.25a14.12,14.12,0,0,0-2.57-.33,13.87,13.87,0,0,0-3.92.47,14.68,14.68,0,0,0-4.52,2.1,16.6,16.6,0,0,0-4.09,4.21,20,20,0,0,0-2.7,5.94,50.05,50.05,0,0,0-1.22,7.14,55.58,55.58,0,0,1-1.36,7.84c-.08.33-.2.66-.31,1l-.18.54-.18.45c-.21.58-.53,1.25-.84,1.91a24.33,24.33,0,0,1-2.18,3.52,23,23,0,0,1-5.84,5.42,21,21,0,0,1-6.82,2.89,20.54,20.54,0,0,1-6.57.47,21,21,0,0,1-9.16-2.91,18.23,18.23,0,0,1-2.18-1.53l-.72-.6.82.45c.53.29,1.34.67,2.37,1.1a22.91,22.91,0,0,0,8.93,1.61,21.74,21.74,0,0,0,5.86-.94,21.31,21.31,0,0,0,5.86-2.93,22.16,22.16,0,0,0,2.63-2.23,28.11,28.11,0,0,0,2.29-2.68,22.39,22.39,0,0,0,1.83-3c.23-.52.47-1,.7-1.66l.17-.45.12-.39c.09-.29.18-.57.26-.87a52,52,0,0,0,1.38-7.37,43.66,43.66,0,0,1,1.6-7.56,20.37,20.37,0,0,1,3.5-6.55,17,17,0,0,1,5-4.33,14.12,14.12,0,0,1,9.53-1.64,11.48,11.48,0,0,1,2.56.8C161,119.23,161.28,119.39,161.28,119.39Z"/><path class="cls-2" d="M156.21,130.47a6.67,6.67,0,0,0-.79-.1,6.28,6.28,0,0,0-2.16.28,9.83,9.83,0,0,0-5.43,5,9.25,9.25,0,0,0-.48,1.06c-.07.18-.14.38-.2.55s-.13.42-.2.63c-.22.77-.44,1.65-.61,2.55-.35,1.8-.54,3.78-.93,5.89a32,32,0,0,1-.75,3.24l-.06.21-.09.25-.14.38-.27.76c-.2.51-.5,1.09-.76,1.64a21.74,21.74,0,0,1-4.26,5.69,23.58,23.58,0,0,1-5.84,4,21,21,0,0,1-6.58,1.89c-.55.06-1.11.08-1.65.13s-1.09,0-1.63,0-1-.09-1.53-.13-1-.13-1.51-.22a33.11,33.11,0,0,1-5.35-1.37,40,40,0,0,1-7.4-3.41c-.85-.48-1.48-.92-1.92-1.21l-.66-.45s1,.42,2.86,1.08a61,61,0,0,0,7.62,2.2,42.68,42.68,0,0,0,5.15.76c.46,0,.9,0,1.36.08s1,0,1.43,0a22.78,22.78,0,0,0,2.82-.27,20.63,20.63,0,0,0,10.57-5.42,19.1,19.1,0,0,0,3.71-4.78c.21-.44.44-.82.64-1.3l.31-.75.15-.37,0-.09,0-.05v0c0-.06,0,.06,0,0l.06-.18a27.26,27.26,0,0,0,.83-2.88c.45-2,.84-4,1.38-5.86a25.24,25.24,0,0,1,.94-2.78l.28-.61c.11-.24.21-.44.32-.65a12.34,12.34,0,0,1,.72-1.18,11.76,11.76,0,0,1,3.45-3.36,8.1,8.1,0,0,1,3.45-1.27,5.92,5.92,0,0,1,2.32.19A5.49,5.49,0,0,1,156.21,130.47Z"/><path class="cls-2" d="M64,257l-.74-.91a18.23,18.23,0,0,1-1.79-2.84,19.74,19.74,0,0,1-1.75-5,25.08,25.08,0,0,1-.52-6.85,32.51,32.51,0,0,1,1.48-8,36.42,36.42,0,0,1,3.76-8.3c.44-.73.85-1.31,1.28-2l1.4-2c1-1.29,2-2.55,3.07-3.79,2.15-2.46,4.43-4.85,6.77-7.14s4.68-4.54,6.9-6.81,4.35-4.54,6.38-6.82,4-4.47,5.65-6.64a67.08,67.08,0,0,0,4.5-6.33,39.09,39.09,0,0,0,3-5.81,23.08,23.08,0,0,0,1.38-4.85,17.62,17.62,0,0,0,.21-3.27c-.06-.76-.09-1.17-.09-1.17l.26,1.15a15.33,15.33,0,0,1,.24,3.34,21.75,21.75,0,0,1-.87,5.17,35.16,35.16,0,0,1-2.57,6.3,59.47,59.47,0,0,1-4.18,6.85c-1.64,2.32-3.45,4.7-5.41,7.07s-4,4.8-6.25,7.17-4.57,4.64-6.87,6.94-4.58,4.57-6.67,6.93c-1.06,1.17-2,2.38-3,3.57l-1.37,1.79c-.43.62-.93,1.29-1.3,1.86a40,40,0,0,0-3.87,7.55,35.63,35.63,0,0,0-1.92,7.38,27.25,27.25,0,0,0-.13,6.46,21.64,21.64,0,0,0,1.1,4.9,23.09,23.09,0,0,0,1.32,3Z"/><path class="cls-2" d="M104.9,170.93s0,.42,0,1.2,0,1.94-.13,3.4-.26,3.27-.68,5.29c-.18,1-.35,2.1-.66,3.22s-.55,2.32-1,3.52-.76,2.49-1.28,3.76l-.76,2-.88,2a77.64,77.64,0,0,1-4.27,8.12c-1.64,2.72-3.42,5.46-5.33,8.17l-5.81,8.11c-2,2.69-3.85,5.4-5.54,8.14a54.74,54.74,0,0,0-4.35,8.32,36.25,36.25,0,0,0-2.34,8.35,33.24,33.24,0,0,0-.16,7.81c.07.61.1,1.21.19,1.79s.21,1.14.31,1.69.18,1.1.3,1.61.27,1,.4,1.5c.46,2,1.13,3.6,1.58,5s1,2.41,1.27,3.14l.46,1.12s-.21-.36-.62-1-1-1.65-1.71-3a44.54,44.54,0,0,1-2.18-4.87l-.57-1.5c-.19-.52-.32-1.07-.48-1.63s-.31-1.14-.48-1.73-.23-1.22-.35-1.86a31.45,31.45,0,0,1-.41-8.34,34.37,34.37,0,0,1,2.08-9.12,50.25,50.25,0,0,1,4.34-8.92c1.73-2.87,3.63-5.68,5.59-8.41l5.9-8c1.9-2.66,3.8-5.25,5.46-7.86s3.23-5.15,4.52-7.66l1-1.86.85-1.84c.6-1.19,1.05-2.39,1.53-3.54s.82-2.27,1.22-3.34.68-2.09,1-3.06c.6-1.94.91-3.66,1.25-5.08s.45-2.58.59-3.35S104.9,170.93,104.9,170.93Z"/><path class="cls-2" d="M93.19,274.78l-1-.83-1.17-1-.74-.63-.76-.81c-.53-.57-1.15-1.19-1.78-1.91l-1.85-2.46c-.57-.94-1.18-1.95-1.77-3l-.76-1.76-.39-.92c-.1-.32-.2-.65-.29-1a27.59,27.59,0,0,1-1.34-8.75,41.23,41.23,0,0,1,1.17-9.77c1.48-6.65,4.24-13.3,7-19.82l4.27-9.66c1.37-3.19,2.75-6.3,4-9.37s2.31-6,3.21-8.9c.45-1.43.89-2.83,1.23-4.2.19-.68.37-1.35.55-2s.3-1.32.44-2,.28-1.27.42-1.88.21-1.22.31-1.81c.21-1.18.41-2.3.5-3.36s.26-2.06.31-3,.1-1.78.14-2.55c.09-1.54,0-2.76,0-3.59s0-1.28,0-1.28.06.44.18,1.26c.06.41.13.92.22,1.52a16.25,16.25,0,0,1,.22,2.07c0,.78.1,1.64.16,2.58s0,2,0,3.05-.08,2.25-.18,3.47c0,.61-.11,1.24-.16,1.88s-.18,1.29-.28,2-.2,1.35-.3,2-.27,1.39-.41,2.1c-.25,1.43-.65,2.88-1,4.37s-.85,3-1.28,4.56-1,3.1-1.58,4.68c-1.14,3.15-2.37,6.38-3.74,9.6s-2.77,6.46-4.17,9.71-2.82,6.46-4,9.68a90.33,90.33,0,0,0-3.19,9.53,44.19,44.19,0,0,0-1.53,9.14,17.48,17.48,0,0,0,0,2.17,18.13,18.13,0,0,0,.1,2.1c.07.69.15,1.36.22,2s.28,1.29.41,1.91c.07.31.14.62.2.93l.3.88.58,1.71c.46,1.08,1,2.09,1.4,3s1.06,1.76,1.54,2.54,1,1.41,1.5,2l.65.87.65.72,1,1.14Z"/><path class="cls-2" d="M54.83,227.31l.17-.87c.12-.56.24-1.4.51-2.45a36.37,36.37,0,0,1,3.38-8.38,36.22,36.22,0,0,1,3.42-5l1-1.28L64.48,208c.75-.86,1.61-1.63,2.46-2.46a59,59,0,0,1,5.6-4.58c2-1.45,4.07-2.81,6.15-4.13s4.23-2.53,6.29-3.76,4.1-2.4,6-3.63a60.93,60.93,0,0,0,5.27-3.73,31.81,31.81,0,0,0,4.11-4,21.32,21.32,0,0,0,1.48-2l.63-1c.17-.34.34-.67.5-1a13.09,13.09,0,0,0,.78-1.87,9.69,9.69,0,0,0,.51-1.66,18.66,18.66,0,0,0,.49-2.42l.14-.88s0,.31,0,.88a14.2,14.2,0,0,1,0,2.52,10.27,10.27,0,0,1-.24,1.8,12.17,12.17,0,0,1-.54,2.09q-.18.56-.39,1.14l-.53,1.16a19.25,19.25,0,0,1-1.35,2.39,27.06,27.06,0,0,1-4,4.68,46.29,46.29,0,0,1-5.27,4.28c-1.91,1.34-3.9,2.7-6,3.95l-6.2,3.84c-2.07,1.27-4.12,2.56-6,3.93s-3.81,2.73-5.53,4.17c-.84.73-1.68,1.45-2.46,2.19l-1.16,1.1-1.07,1.13a47.06,47.06,0,0,0-3.68,4.46,43.88,43.88,0,0,0-2.62,4.16l-.53.93-.43.89-.77,1.58Z"/><path class="cls-2" d="M48.64,206.83s.31.1.9.25a14.12,14.12,0,0,0,2.57.33,13.87,13.87,0,0,0,3.92-.47,14.68,14.68,0,0,0,4.52-2.1,16.6,16.6,0,0,0,4.09-4.21,20,20,0,0,0,2.7-5.94,50.05,50.05,0,0,0,1.22-7.14,55.58,55.58,0,0,1,1.36-7.84c.08-.33.2-.66.31-1l.18-.54.18-.45c.21-.58.53-1.25.84-1.91a24.33,24.33,0,0,1,2.18-3.52,23,23,0,0,1,5.84-5.42A21,21,0,0,1,86.27,164a20.54,20.54,0,0,1,6.57-.47,21,21,0,0,1,9.16,2.91,18.23,18.23,0,0,1,2.18,1.53l.72.6-.82-.45c-.53-.29-1.34-.67-2.37-1.1a22.91,22.91,0,0,0-8.93-1.61,21.74,21.74,0,0,0-5.86.94,21.31,21.31,0,0,0-5.86,2.93,23,23,0,0,0-2.63,2.23,28.11,28.11,0,0,0-2.29,2.68,22.39,22.39,0,0,0-1.83,3c-.23.52-.47,1-.7,1.66l-.17.45-.12.39c-.09.29-.18.57-.26.87A52,52,0,0,0,71.68,188a43.66,43.66,0,0,1-1.6,7.56,20.37,20.37,0,0,1-3.5,6.55,17,17,0,0,1-5,4.33A14.12,14.12,0,0,1,52,208.05a11.48,11.48,0,0,1-2.56-.8Z"/><path class="cls-2" d="M53.71,195.75a6.67,6.67,0,0,0,.79.1,6.28,6.28,0,0,0,2.16-.28,9.83,9.83,0,0,0,5.43-5,9.25,9.25,0,0,0,.48-1.06c.07-.18.14-.38.2-.55s.13-.42.2-.63c.22-.77.44-1.65.61-2.55.35-1.8.54-3.78.93-5.89a32,32,0,0,1,.75-3.24l.06-.21.09-.25.14-.38.27-.76c.2-.51.5-1.09.76-1.64a21.74,21.74,0,0,1,4.26-5.69,23.58,23.58,0,0,1,5.84-4,21,21,0,0,1,6.58-1.89c.55-.06,1.11-.08,1.65-.13s1.09,0,1.63,0,1,.09,1.53.13,1,.13,1.51.22a33.11,33.11,0,0,1,5.35,1.37,40,40,0,0,1,7.4,3.41c.85.48,1.48.92,1.92,1.21l.66.45s-1-.42-2.86-1.08a61,61,0,0,0-7.62-2.2,42.68,42.68,0,0,0-5.15-.76c-.46,0-.9,0-1.36-.08s-1,0-1.43,0a22.78,22.78,0,0,0-2.82.27,20.63,20.63,0,0,0-10.57,5.42,19.1,19.1,0,0,0-3.71,4.78c-.21.44-.44.82-.64,1.3l-.31.75-.15.37,0,.09,0,.05v0c0,.06,0-.06,0,0l-.06.18a27.26,27.26,0,0,0-.83,2.88c-.45,2-.84,4-1.38,5.86a25.24,25.24,0,0,1-.94,2.78l-.28.61c-.11.24-.21.44-.32.65a12.34,12.34,0,0,1-.72,1.18,11.76,11.76,0,0,1-3.45,3.36,8.1,8.1,0,0,1-3.45,1.27,5.92,5.92,0,0,1-2.32-.19A5.49,5.49,0,0,1,53.71,195.75Z"/><path class="cls-2" d="M145.9,257s.21-.35.59-1a21.46,21.46,0,0,0,2.42-7.9,27.25,27.25,0,0,0-.13-6.46,36,36,0,0,0-1.92-7.38,40,40,0,0,0-3.87-7.55c-.37-.56-.87-1.24-1.3-1.86l-1.37-1.79c-1-1.19-1.95-2.4-3-3.57-2.09-2.36-4.38-4.63-6.67-6.93s-4.63-4.6-6.87-6.94-4.28-4.82-6.25-7.17-3.78-4.75-5.41-7.07a59.47,59.47,0,0,1-4.18-6.85,35.16,35.16,0,0,1-2.57-6.3,21.75,21.75,0,0,1-.87-5.17,15.28,15.28,0,0,1,.24-3.34l.26-1.15s0,.41-.09,1.17a16.78,16.78,0,0,0,.21,3.27,23.25,23.25,0,0,0,1.38,4.85,38.63,38.63,0,0,0,3,5.81A70.94,70.94,0,0,0,114,190c1.71,2.18,3.63,4.38,5.65,6.64s4.13,4.6,6.38,6.82,4.57,4.52,6.9,6.81,4.62,4.68,6.77,7.14c1.07,1.23,2.11,2.49,3.07,3.79l1.4,2c.43.67.83,1.25,1.28,2a36.42,36.42,0,0,1,3.76,8.3,32.34,32.34,0,0,1,1.48,8,24.72,24.72,0,0,1-.52,6.85,20.44,20.44,0,0,1-1.75,5,18.23,18.23,0,0,1-1.79,2.84Z"/><path class="cls-2" d="M105,170.93l.2,1.19c.14.77.31,1.92.59,3.35s.66,3.14,1.25,5.08c.28,1,.55,2,1,3.06s.71,2.2,1.22,3.34.93,2.34,1.53,3.54c.28.6.57,1.22.85,1.84s.64,1.23,1,1.86c1.29,2.51,2.87,5.05,4.52,7.66s3.57,5.19,5.46,7.86l5.9,8c1.95,2.73,3.86,5.54,5.59,8.41a49.92,49.92,0,0,1,4.34,8.92,34.28,34.28,0,0,1,2.08,9.12,30.65,30.65,0,0,1-.41,8.34c-.12.63-.21,1.26-.35,1.86s-.32,1.17-.48,1.73-.3,1.11-.48,1.63-.38,1-.57,1.5a43.52,43.52,0,0,1-2.18,4.87c-.68,1.31-1.32,2.28-1.71,3l-.62,1,.46-1.12c.29-.73.75-1.78,1.27-3.14s1.12-3,1.58-5l.4-1.5c.13-.52.2-1.06.3-1.61s.21-1.11.31-1.69.12-1.18.19-1.79a33.24,33.24,0,0,0-.16-7.81,36.25,36.25,0,0,0-2.34-8.35,54.74,54.74,0,0,0-4.35-8.32c-1.69-2.75-3.58-5.46-5.54-8.14L120,211.55c-1.91-2.71-3.69-5.45-5.33-8.17a76.66,76.66,0,0,1-4.27-8.12l-.88-2-.76-1.95c-.52-1.27-.89-2.55-1.28-3.76s-.68-2.4-1-3.52-.48-2.21-.66-3.22a53,53,0,0,1-.68-5.29c-.13-1.46-.09-2.62-.13-3.4S105,170.93,105,170.93Z"/><path class="cls-2" d="M116.72,274.78l.85-.95,1-1.14.65-.72c.21-.27.42-.57.65-.87.45-.62,1-1.28,1.5-2s1-1.63,1.54-2.54.94-2,1.4-3l.58-1.71.3-.88c.07-.31.13-.62.2-.93.13-.63.29-1.26.41-1.91s.14-1.34.22-2a18.13,18.13,0,0,0,.1-2.1,17.54,17.54,0,0,0,0-2.17,44.45,44.45,0,0,0-1.54-9.14,87.32,87.32,0,0,0-3.2-9.52c-1.23-3.22-2.64-6.44-4.06-9.67l-4.18-9.71c-1.38-3.22-2.61-6.45-3.75-9.6-.57-1.58-1.09-3.14-1.58-4.68s-.93-3.06-1.29-4.56-.77-2.94-1-4.37c-.14-.71-.27-1.41-.41-2.1s-.2-1.37-.3-2-.19-1.32-.28-2-.11-1.27-.16-1.88c-.1-1.22-.19-2.38-.19-3.47s-.07-2.11,0-3,.11-1.8.16-2.58a18.3,18.3,0,0,1,.22-2.07c.09-.6.16-1.11.22-1.52.12-.82.18-1.26.18-1.26s0,.44,0,1.28-.06,2,0,3.59c0,.77.09,1.62.14,2.55s.2,1.92.31,3,.29,2.19.51,3.36c.1.59.2,1.19.31,1.81s.28,1.24.42,1.88.29,1.29.44,2,.36,1.33.55,2c.35,1.37.79,2.76,1.24,4.2.91,2.87,2,5.84,3.22,8.9s2.59,6.17,4,9.36l4.28,9.65c2.79,6.52,5.56,13.17,7.05,19.82a41.72,41.72,0,0,1,1.18,9.77,28,28,0,0,1-1.33,8.76c-.1.33-.2.65-.29,1l-.39.92-.76,1.76c-.59,1.1-1.2,2.11-1.77,3.05l-1.85,2.46c-.63.72-1.25,1.34-1.78,1.91l-.76.81-.74.63-1.17,1C117.06,274.49,116.72,274.78,116.72,274.78Z"/><path class="cls-2" d="M155.09,227.31s-.47-1.14-1.3-3.12l-.77-1.58-.43-.89c-.17-.3-.34-.61-.53-.93a42.64,42.64,0,0,0-2.62-4.16,48.35,48.35,0,0,0-3.68-4.46L144.69,211l-1.16-1.1c-.77-.75-1.61-1.46-2.46-2.19-1.72-1.44-3.58-2.81-5.53-4.17s-4-2.66-6-3.93l-6.2-3.84c-2.07-1.25-4.06-2.61-6-3.95a46.29,46.29,0,0,1-5.27-4.28,26.34,26.34,0,0,1-4-4.68,19.41,19.41,0,0,1-1.35-2.39l-.53-1.16-.39-1.14a12.17,12.17,0,0,1-.54-2.09,10.52,10.52,0,0,1-.24-1.8,13.29,13.29,0,0,1,0-2.52c0-.58,0-.88,0-.88s0,.3.14.88a17.09,17.09,0,0,0,.49,2.42,10.67,10.67,0,0,0,.51,1.66,14.36,14.36,0,0,0,.78,1.87l.5,1q.32.48.63,1a21.81,21.81,0,0,0,1.48,2,30.57,30.57,0,0,0,4.11,4,63.19,63.19,0,0,0,5.27,3.73c1.9,1.23,3.94,2.39,6,3.63s4.19,2.47,6.29,3.76,4.17,2.68,6.15,4.13a59.23,59.23,0,0,1,5.6,4.58c.85.82,1.71,1.59,2.46,2.46l1.13,1.25,1,1.28a37.12,37.12,0,0,1,3.42,5,32.45,32.45,0,0,1,2.17,4.64A33.56,33.56,0,0,1,154.4,224c.27,1,.39,1.88.51,2.45Z"/><path class="cls-2" d="M161.28,206.83s-.29.16-.84.42a11,11,0,0,1-2.56.8,14.18,14.18,0,0,1-9.53-1.64,16.73,16.73,0,0,1-5-4.33,20.88,20.88,0,0,1-3.5-6.55,42.75,42.75,0,0,1-1.6-7.56,52,52,0,0,0-1.38-7.37c-.08-.3-.17-.58-.26-.87l-.12-.39-.17-.45c-.22-.64-.47-1.13-.7-1.66a21.8,21.8,0,0,0-1.83-3,28.11,28.11,0,0,0-2.29-2.68,22.16,22.16,0,0,0-2.63-2.23,21.17,21.17,0,0,0-5.86-2.93,21.74,21.74,0,0,0-5.86-.94A22.91,22.91,0,0,0,108.2,167a24.07,24.07,0,0,0-2.37,1.1l-.82.45.72-.6a19.1,19.1,0,0,1,2.18-1.53,21.18,21.18,0,0,1,9.16-2.91,20.54,20.54,0,0,1,6.57.47,21.26,21.26,0,0,1,6.82,2.89,22.87,22.87,0,0,1,5.84,5.42,25.61,25.61,0,0,1,2.18,3.52c.31.65.63,1.33.84,1.91l.18.45.18.54c.11.33.23.66.31,1a54.18,54.18,0,0,1,1.36,7.84,50.05,50.05,0,0,0,1.22,7.14,20.53,20.53,0,0,0,2.7,5.94,16.6,16.6,0,0,0,4.09,4.21,14.45,14.45,0,0,0,4.52,2.1,13.83,13.83,0,0,0,3.92.47,12.43,12.43,0,0,0,2.57-.33C161,206.93,161.28,206.83,161.28,206.83Z"/><path class="cls-2" d="M156.21,195.75a5.59,5.59,0,0,1-.76.27,5.92,5.92,0,0,1-2.32.19,8.1,8.1,0,0,1-3.45-1.27,11.64,11.64,0,0,1-3.45-3.36,12.34,12.34,0,0,1-.72-1.18c-.11-.21-.22-.41-.32-.65l-.28-.61a23.9,23.9,0,0,1-.94-2.78c-.54-1.9-.93-3.9-1.38-5.86a27.26,27.26,0,0,0-.83-2.88l-.06-.18s0,.11,0,0v0l0-.05,0-.09-.15-.37-.31-.75c-.2-.49-.43-.86-.64-1.3a18.75,18.75,0,0,0-3.71-4.78,19.81,19.81,0,0,0-5-3.53,20.24,20.24,0,0,0-5.6-1.89,22.78,22.78,0,0,0-2.82-.27c-.4,0-1,0-1.43,0s-.9,0-1.36.08a42.39,42.39,0,0,0-5.15.76,58.84,58.84,0,0,0-7.62,2.2c-1.82.65-2.86,1.08-2.86,1.08l.66-.45c.44-.29,1.07-.73,1.92-1.21a40.34,40.34,0,0,1,7.4-3.41,33.11,33.11,0,0,1,5.35-1.37c.48-.09,1-.15,1.51-.22s.93-.12,1.53-.13,1.08-.06,1.63,0,1.1.06,1.65.13a21,21,0,0,1,6.58,1.89,23.05,23.05,0,0,1,5.84,4,21.9,21.9,0,0,1,4.26,5.69c.25.54.56,1.12.76,1.64l.27.76.14.38.09.25.06.21a29,29,0,0,1,.75,3.24c.4,2.1.59,4.08.93,5.89.17.9.39,1.77.61,2.55.07.21.14.43.2.63s.13.37.2.55a11.37,11.37,0,0,0,.48,1.06,9.87,9.87,0,0,0,5.43,5,6.25,6.25,0,0,0,2.16.28A6.66,6.66,0,0,0,156.21,195.75Z"/><ellipse class="cls-1" cx="105.92" cy="162.89" rx="37.97" ry="17.73"/><ellipse class="cls-2" cx="105.92" cy="162.89" rx="31.67" ry="14.79"/><path class="cls-2" d="M105.92,178.15a41.72,41.72,0,0,1-32-15l-.25-.3.25-.3a41.77,41.77,0,0,1,64.06,0l.25.3-.25.3A41.77,41.77,0,0,1,105.92,178.15ZM74.85,162.89a40.83,40.83,0,0,0,62.12,0,40.83,40.83,0,0,0-62.12,0Z"/><ellipse class="cls-1" cx="105.92" cy="162.89" rx="22.23" ry="10.38"/><path class="cls-3" d="M71.94,23.29a25.54,25.54,0,0,0,39.54,0,25.54,25.54,0,0,0-39.54,0ZM91.71,33.42a26.48,26.48,0,0,1-20.55-9.89L71,23.29l.19-.24a26.29,26.29,0,0,1,41.1,0l.19.24-.19.24A26.48,26.48,0,0,1,91.71,33.42Z"/><path class="cls-3" d="M78.57,23.29a17.05,17.05,0,0,0,26.29,0,17.05,17.05,0,0,0-26.29,0Zm13.14,6.94a17.94,17.94,0,0,1-13.93-6.7l-.19-.24.19-.24a17.83,17.83,0,0,1,27.86,0l.19.24-.19.24A17.94,17.94,0,0,1,91.71,30.23Z"/><path class="cls-3" d="M85.19,23.29a8.59,8.59,0,0,0,13,0,8.59,8.59,0,0,0-13,0ZM91.71,27a9.41,9.41,0,0,1-7.31-3.52l-.19-.24L84.4,23A9.35,9.35,0,0,1,99,23l.19.24-.19.24A9.39,9.39,0,0,1,91.71,27Z"/><path class="cls-3" d="M44.67,23.29a25.54,25.54,0,0,0,39.54,0,25.54,25.54,0,0,0-39.54,0ZM64.44,33.42a26.48,26.48,0,0,1-20.55-9.89l-.19-.24.19-.24a26.29,26.29,0,0,1,41.1,0l.19.24-.19.24A26.48,26.48,0,0,1,64.44,33.42Z"/><path class="cls-3" d="M51.29,23.29a17.05,17.05,0,0,0,26.29,0,17.05,17.05,0,0,0-26.29,0Zm13.15,6.94a17.94,17.94,0,0,1-13.93-6.7l-.19-.24.19-.24a17.83,17.83,0,0,1,27.86,0l.19.24-.19.24A17.94,17.94,0,0,1,64.44,30.23Z"/><path class="cls-3" d="M57.92,23.29a8.59,8.59,0,0,0,13,0,8.59,8.59,0,0,0-13,0ZM64.44,27a9.41,9.41,0,0,1-7.31-3.52l-.19-.24.19-.24a9.35,9.35,0,0,1,14.62,0l.19.24-.19.24A9.41,9.41,0,0,1,64.44,27Z"/><path class="cls-3" d="M17.83,23.81a24.31,24.31,0,0,0,19.33,8.85,25.71,25.71,0,0,0,19.77-9.37,25.71,25.71,0,0,0-19.77-9.37C28.87,13.91,21.66,17.61,17.83,23.81Zm19.33,9.61a25.05,25.05,0,0,1-20.09-9.34l-.17-.21.14-.23C21,17.07,28.49,13.15,37.16,13.15A26.48,26.48,0,0,1,57.71,23l.19.24-.19.24A26.43,26.43,0,0,1,37.16,33.42Z"/><path class="cls-3" d="M24.24,23.55a16.48,16.48,0,0,0,12.93,5.93,17.14,17.14,0,0,0,13.14-6.19A17.15,17.15,0,0,0,37.17,17.1,15.34,15.34,0,0,0,24.24,23.55Zm12.92,6.68a17.23,17.23,0,0,1-13.7-6.43l-.17-.22.16-.23a16.09,16.09,0,0,1,13.71-7,17.94,17.94,0,0,1,13.93,6.7l.19.24-.19.24A17.91,17.91,0,0,1,37.16,30.23Z"/><path class="cls-3" d="M30.64,23.29a8.59,8.59,0,0,0,13,0,8.59,8.59,0,0,0-13,0ZM37.16,27a9.41,9.41,0,0,1-7.31-3.52l-.19-.24.19-.24a9.35,9.35,0,0,1,14.62,0l.19.24-.19.24A9.39,9.39,0,0,1,37.16,27Z"/><path class="cls-3" d="M99.22,23.29a25.54,25.54,0,0,0,39.54,0,25.54,25.54,0,0,0-39.54,0ZM119,33.42a26.48,26.48,0,0,1-20.55-9.89l-.19-.24.19-.24a26.29,26.29,0,0,1,41.1,0l.19.24-.19.24A26.45,26.45,0,0,1,119,33.42Z"/><path class="cls-3" d="M105.84,23.29a17,17,0,0,0,26.28,0,17,17,0,0,0-26.28,0ZM119,30.23a17.94,17.94,0,0,1-13.93-6.7l-.19-.24.19-.24a17.83,17.83,0,0,1,27.86,0l.19.24-.19.24A17.91,17.91,0,0,1,119,30.23Z"/><path class="cls-3" d="M112.46,23.29a8.59,8.59,0,0,0,13,0,8.59,8.59,0,0,0-13,0ZM119,27a9.39,9.39,0,0,1-7.31-3.52l-.19-.24.19-.24a9.35,9.35,0,0,1,14.62,0l.19.24-.19.24A9.39,9.39,0,0,1,119,27Z"/><path class="cls-3" d="M126.49,23.29a25.54,25.54,0,0,0,39.54,0,25.54,25.54,0,0,0-39.54,0Zm19.77,10.13a26.48,26.48,0,0,1-20.55-9.89l-.19-.24.19-.24a26.29,26.29,0,0,1,41.1,0l.19.24-.19.24A26.48,26.48,0,0,1,146.26,33.42Z"/><path class="cls-3" d="M133.11,23.29a17,17,0,0,0,26.28,0,17,17,0,0,0-26.28,0Zm13.15,6.94a17.94,17.94,0,0,1-13.93-6.7l-.19-.24.19-.24a17.83,17.83,0,0,1,27.86,0l.19.24-.19.24A17.94,17.94,0,0,1,146.26,30.23Z"/><path class="cls-3" d="M139.74,23.29a8.59,8.59,0,0,0,13,0,8.59,8.59,0,0,0-13,0ZM146.26,27A9.39,9.39,0,0,1,139,23.52l-.19-.24L139,23a9.35,9.35,0,0,1,14.62,0l.19.24-.19.24A9.41,9.41,0,0,1,146.26,27Z"/><path class="cls-3" d="M152.87,23.29a25.71,25.71,0,0,0,19.77,9.37A24.29,24.29,0,0,0,192,23.8c-3.12-5.92-10.85-9.89-19.34-9.89A25.68,25.68,0,0,0,152.87,23.29Zm19.77,10.13a26.48,26.48,0,0,1-20.55-9.89l-.19-.24.19-.24a26.45,26.45,0,0,1,20.55-9.89c8.87,0,17,4.23,20.13,10.52l.11.22-.15.19A25.09,25.09,0,0,1,172.64,33.42Z"/><path class="cls-3" d="M159.49,23.29a17.16,17.16,0,0,0,13.15,6.19,16.48,16.48,0,0,0,12.93-5.93c-2.39-3.92-7.44-6.44-12.93-6.44A17.12,17.12,0,0,0,159.49,23.29Zm13.15,6.94a17.94,17.94,0,0,1-13.93-6.7l-.19-.24.19-.24a17.94,17.94,0,0,1,13.93-6.7c5.85,0,11.22,2.75,13.72,7l.15.23-.17.21A17.24,17.24,0,0,1,172.64,30.23Z"/><path class="cls-3" d="M166.12,23.29a8.59,8.59,0,0,0,13,0,8.59,8.59,0,0,0-13,0ZM172.64,27a9.41,9.41,0,0,1-7.31-3.52l-.19-.24.19-.24A9.35,9.35,0,0,1,180,23l.19.24-.19.24A9.42,9.42,0,0,1,172.64,27Z"/><path class="cls-3" d="M186.52,73.34a27.41,27.41,0,0,0,0,40.76,27.41,27.41,0,0,0,0-40.76Zm0,41.76-.25-.21a28.14,28.14,0,0,1,0-42.32l.25-.21.25.21a28.14,28.14,0,0,1,0,42.32Z"/><path class="cls-3" d="M186.52,80.17a18.32,18.32,0,0,0,0,27.1,18.32,18.32,0,0,0,0-27.1Zm0,28.1-.25-.21a19.07,19.07,0,0,1,0-28.68l.25-.21.25.21a19.07,19.07,0,0,1,0,28.68Z"/><path class="cls-3" d="M186.52,87a9.24,9.24,0,0,0,0,13.44,9.24,9.24,0,0,0,0-13.44Zm0,14.45-.25-.21a10,10,0,0,1,0-15l.25-.21.25.21a10,10,0,0,1,0,15Z"/><path class="cls-3" d="M186.52,45.23a27.41,27.41,0,0,0,0,40.76,27.41,27.41,0,0,0,0-40.76Zm0,41.76-.25-.21a28.14,28.14,0,0,1,0-42.32l.25-.21.25.21a28.14,28.14,0,0,1,0,42.32Z"/><path class="cls-3" d="M186.52,52.06a18.32,18.32,0,0,0,0,27.1,18.32,18.32,0,0,0,0-27.1Zm0,28.1-.25-.21a19.07,19.07,0,0,1,0-28.68l.25-.21.25.21a19.07,19.07,0,0,1,0,28.68Z"/><path class="cls-3" d="M186.52,58.89a9.24,9.24,0,0,0,0,13.44,9.24,9.24,0,0,0,0-13.44Zm0,14.45-.25-.21a10,10,0,0,1,0-15l.25-.21.25.21a10,10,0,0,1,0,15Z"/><path class="cls-3" d="M185.92,17.67c-5.63,5-8.48,11.64-8.48,19.83a27.21,27.21,0,0,0,9.08,20.38A27.16,27.16,0,0,0,195.6,37.5C195.6,28.85,191.9,21.28,185.92,17.67Zm.6,41.21-.25-.21a27.91,27.91,0,0,1-9.59-21.16c0-8.4,3.09-15.52,8.95-20.58l.2-.18.23.14c6.35,3.69,10.29,11.59,10.29,20.63a27.92,27.92,0,0,1-9.59,21.16Z"/><path class="cls-3" d="M186.22,24.22a17.18,17.18,0,0,0-5.69,13.28,18.17,18.17,0,0,0,6,13.55,18.17,18.17,0,0,0,6-13.55C192.51,31.89,190.13,26.89,186.22,24.22Zm.3,27.84-.25-.21a18.92,18.92,0,0,1-6.5-14.34,18.11,18.11,0,0,1,6.18-14l.23-.19.24.17c4.26,2.78,6.85,8.1,6.85,14.07a18.92,18.92,0,0,1-6.5,14.34Z"/><path class="cls-3" d="M186.52,30.78a9.24,9.24,0,0,0,0,13.44,9.24,9.24,0,0,0,0-13.44Zm0,14.45-.25-.21a10,10,0,0,1,0-15l.25-.21.25.21a10,10,0,0,1,0,15Z"/><path class="cls-3" d="M186.52,101.45a27.41,27.41,0,0,0,0,40.76,27.41,27.41,0,0,0,0-40.76Zm0,41.75-.25-.21a28.14,28.14,0,0,1,0-42.32l.25-.21.25.21a28.14,28.14,0,0,1,0,42.32Z"/><path class="cls-3" d="M186.52,108.28a18.32,18.32,0,0,0,0,27.1,18.32,18.32,0,0,0,0-27.1Zm0,28.1-.25-.21a19.07,19.07,0,0,1,0-28.68l.25-.21.25.21a19.07,19.07,0,0,1,0,28.68Z"/><path class="cls-3" d="M186.52,115.1a9.24,9.24,0,0,0,0,13.44,9.24,9.24,0,0,0,0-13.44Zm0,14.46-.25-.21a10,10,0,0,1,0-15l.25-.21.25.21a10,10,0,0,1,0,15Z"/><path class="cls-3" d="M186.52,129.56a27.41,27.41,0,0,0,0,40.76,27.41,27.41,0,0,0,0-40.76Zm0,41.75-.25-.21a28.14,28.14,0,0,1,0-42.32l.25-.21.25.21a28.14,28.14,0,0,1,0,42.32Z"/><path class="cls-3" d="M186.52,136.39a18.32,18.32,0,0,0,0,27.1,18.32,18.32,0,0,0,0-27.1Zm0,28.1-.25-.21a19.07,19.07,0,0,1,0-28.68l.25-.21.25.21a19.07,19.07,0,0,1,0,28.68Z"/><path class="cls-3" d="M186.52,143.21a9.24,9.24,0,0,0,0,13.44,9.24,9.24,0,0,0,0-13.44Zm0,14.45-.25-.21a10,10,0,0,1,0-15l.25-.21.25.21a10,10,0,0,1,0,15Z"/><path class="cls-3" d="M186.52,157.31a27.41,27.41,0,0,0,0,40.76,27.41,27.41,0,0,0,0-40.76Zm0,41.76-.25-.21a28.14,28.14,0,0,1,0-42.32l.25-.21.25.21a28.14,28.14,0,0,1,0,42.32Z"/><path class="cls-3" d="M186.52,164.14a18.32,18.32,0,0,0,0,27.1,18.32,18.32,0,0,0,0-27.1Zm0,28.1-.25-.21a19.07,19.07,0,0,1,0-28.68l.25-.21.25.21a19.07,19.07,0,0,1,0,28.68Z"/><path class="cls-3" d="M186.52,171a9.24,9.24,0,0,0,0,13.44,9.24,9.24,0,0,0,0-13.44Zm0,14.45-.25-.21a10,10,0,0,1,0-15l.25-.21.25.21a10,10,0,0,1,0,15Z"/><path class="cls-3" d="M186.52,185.07a27.41,27.41,0,0,0,0,40.76,27.41,27.41,0,0,0,0-40.76Zm0,41.75-.25-.21a28.14,28.14,0,0,1,0-42.32l.25-.21.25.21a28.14,28.14,0,0,1,0,42.32Z"/><path class="cls-3" d="M186.52,191.89a18.32,18.32,0,0,0,0,27.1,18.32,18.32,0,0,0,0-27.1Zm0,28.11-.25-.21a19.07,19.07,0,0,1,0-28.68l.25-.21.25.21a19.07,19.07,0,0,1,0,28.68Z"/><path class="cls-3" d="M186.52,198.72a9.24,9.24,0,0,0,0,13.44,9.24,9.24,0,0,0,0-13.44Zm0,14.45-.25-.21a10,10,0,0,1,0-15l.25-.21.25.21a10,10,0,0,1,0,15Z"/><path class="cls-3" d="M186.52,212.82a27.41,27.41,0,0,0,0,40.76,27.41,27.41,0,0,0,0-40.76Zm0,41.76-.25-.21a28.14,28.14,0,0,1,0-42.32l.25-.21.25.21a28.14,28.14,0,0,1,0,42.32Z"/><path class="cls-3" d="M186.52,219.65a18.32,18.32,0,0,0,0,27.1,18.32,18.32,0,0,0,0-27.1Zm0,28.1-.25-.21a19.07,19.07,0,0,1,0-28.68l.25-.21.25.21a19.07,19.07,0,0,1,0,28.68Z"/><path class="cls-3" d="M186.52,226.48a9.24,9.24,0,0,0,0,13.44,9.24,9.24,0,0,0,0-13.44Zm0,14.45-.25-.21a10,10,0,0,1,0-15l.25-.21.25.21a10,10,0,0,1,0,15Z"/><path class="cls-3" d="M186.52,240.58a27.41,27.41,0,0,0,0,40.76,27.41,27.41,0,0,0,0-40.76Zm0,41.75-.25-.21a28.14,28.14,0,0,1,0-42.32l.25-.21.25.21a28.14,28.14,0,0,1,0,42.32Z"/><path class="cls-3" d="M186.52,247.4a18.32,18.32,0,0,0,0,27.1,18.32,18.32,0,0,0,0-27.1Zm0,28.11-.25-.21a19.07,19.07,0,0,1,0-28.68l.25-.21.25.21a19.07,19.07,0,0,1,0,28.68Z"/><path class="cls-3" d="M186.52,254.23a9.24,9.24,0,0,0,0,13.44,9.24,9.24,0,0,0,0-13.44Zm0,14.45-.25-.21a10,10,0,0,1,0-15l.25-.21.25.21a10,10,0,0,1,0,15Z"/><path class="cls-3" d="M186.52,268.33a27.16,27.16,0,0,0-9.08,20.38c0,8.19,2.83,14.84,8.42,19.78,6.38-4.32,9.75-11.15,9.75-19.78A27.21,27.21,0,0,0,186.52,268.33Zm-.73,41.1-.22-.19c-5.9-5.1-8.9-12-8.9-20.54a27.92,27.92,0,0,1,9.59-21.16l.25-.21.25.21a27.91,27.91,0,0,1,9.59,21.16c0,9-3.57,16.11-10.33,20.57Z"/><path class="cls-3" d="M186.52,275.16a18.17,18.17,0,0,0-6,13.55A17.16,17.16,0,0,0,186.19,302c4.11-3,6.33-7.65,6.33-13.25A18.22,18.22,0,0,0,186.52,275.16Zm-.37,27.77-.23-.2a17.91,17.91,0,0,1-6.15-14,18.92,18.92,0,0,1,6.5-14.34l.25-.21.25.21a18.92,18.92,0,0,1,6.5,14.34c0,5.95-2.41,10.88-6.87,14Z"/><path class="cls-3" d="M186.52,282a9.24,9.24,0,0,0,0,13.44,9.24,9.24,0,0,0,0-13.44Zm0,14.46-.25-.21a10,10,0,0,1,0-15l.25-.21.25.21a10,10,0,0,1,0,15Z"/><path class="cls-3" d="M98.43,302.93a25.54,25.54,0,0,0,39.54,0,25.54,25.54,0,0,0-39.54,0Zm19.77,10.13a26.48,26.48,0,0,1-20.55-9.89l-.19-.24.19-.24a26.29,26.29,0,0,1,41.1,0l.19.24-.19.24A26.45,26.45,0,0,1,118.2,313.06Z"/><path class="cls-3" d="M105.06,302.93a17,17,0,0,0,26.28,0,17,17,0,0,0-26.28,0Zm13.14,6.94a17.94,17.94,0,0,1-13.93-6.7l-.19-.24.19-.24a17.83,17.83,0,0,1,27.86,0l.19.24-.19.24A17.93,17.93,0,0,1,118.2,309.87Z"/><path class="cls-3" d="M111.68,302.93a8.59,8.59,0,0,0,13,0,8.59,8.59,0,0,0-13,0Zm6.52,3.75a9.41,9.41,0,0,1-7.31-3.52l-.19-.24.19-.24a9.35,9.35,0,0,1,14.62,0l.19.24-.19.24A9.39,9.39,0,0,1,118.2,306.68Z"/><path class="cls-3" d="M125.71,302.93a25.54,25.54,0,0,0,39.54,0,25.54,25.54,0,0,0-39.54,0Zm19.77,10.13a26.48,26.48,0,0,1-20.55-9.89l-.19-.24.19-.24a26.29,26.29,0,0,1,41.1,0l.19.24-.19.24A26.48,26.48,0,0,1,145.48,313.06Z"/><path class="cls-3" d="M132.33,302.93a17.05,17.05,0,0,0,26.29,0,17.05,17.05,0,0,0-26.29,0Zm13.15,6.94a17.94,17.94,0,0,1-13.93-6.7l-.19-.24.19-.24a17.83,17.83,0,0,1,27.86,0l.19.24-.19.24A17.94,17.94,0,0,1,145.48,309.87Z"/><path class="cls-3" d="M139,302.93a8.59,8.59,0,0,0,13,0,8.59,8.59,0,0,0-13,0Zm6.52,3.75a9.39,9.39,0,0,1-7.31-3.52l-.19-.24.19-.24a9.35,9.35,0,0,1,14.62,0l.19.24-.19.24A9.42,9.42,0,0,1,145.48,306.68Z"/><path class="cls-3" d="M153,302.93a25.71,25.71,0,0,0,19.77,9.37,22.59,22.59,0,0,0,19.25-10,24.17,24.17,0,0,0-19.25-8.75A25.67,25.67,0,0,0,153,302.93Zm19.77,10.13a26.48,26.48,0,0,1-20.55-9.89l-.19-.24.19-.24a26.45,26.45,0,0,1,20.55-9.89,24.94,24.94,0,0,1,20,9.25l.17.21-.15.23A23.33,23.33,0,0,1,172.75,313.06Z"/><path class="cls-3" d="M159.6,302.93a17.15,17.15,0,0,0,13.14,6.19,15.52,15.52,0,0,0,12.88-6.5,16.41,16.41,0,0,0-12.88-5.88A17.17,17.17,0,0,0,159.6,302.93Zm13.15,6.94a17.94,17.94,0,0,1-13.93-6.7l-.19-.24.19-.24a17.94,17.94,0,0,1,13.93-6.7,17.17,17.17,0,0,1,13.66,6.38l.18.23-.17.23A16.33,16.33,0,0,1,172.75,309.87Z"/><path class="cls-3" d="M166.23,302.93a8.59,8.59,0,0,0,13,0,8.59,8.59,0,0,0-13,0Zm6.52,3.75a9.41,9.41,0,0,1-7.31-3.52l-.19-.24.19-.24a9.35,9.35,0,0,1,14.62,0l.19.24-.19.24A9.41,9.41,0,0,1,172.75,306.68Z"/><path class="cls-3" d="M71.16,302.93a25.54,25.54,0,0,0,39.54,0,25.54,25.54,0,0,0-39.54,0Zm19.77,10.13a26.48,26.48,0,0,1-20.55-9.89l-.19-.24.19-.24a26.29,26.29,0,0,1,41.1,0l.19.24-.19.24A26.48,26.48,0,0,1,90.93,313.06Z"/><path class="cls-3" d="M77.79,302.93a17.05,17.05,0,0,0,26.29,0,17.05,17.05,0,0,0-26.29,0Zm13.14,6.94A17.94,17.94,0,0,1,77,303.17l-.19-.24.19-.24a17.83,17.83,0,0,1,27.86,0l.19.24-.19.24A17.94,17.94,0,0,1,90.93,309.87Z"/><path class="cls-3" d="M84.41,302.93a8.59,8.59,0,0,0,13,0,8.59,8.59,0,0,0-13,0Zm6.52,3.75a9.41,9.41,0,0,1-7.31-3.52l-.19-.24.19-.24a9.35,9.35,0,0,1,14.62,0l.19.24-.19.24A9.41,9.41,0,0,1,90.93,306.68Z"/><path class="cls-3" d="M43.89,302.93a25.54,25.54,0,0,0,39.54,0,25.54,25.54,0,0,0-39.54,0Zm19.77,10.13a26.48,26.48,0,0,1-20.55-9.89l-.19-.24.19-.24a26.29,26.29,0,0,1,41.1,0l.19.24-.19.24A26.48,26.48,0,0,1,63.66,313.06Z"/><path class="cls-3" d="M50.51,302.93a17.05,17.05,0,0,0,26.29,0,17.05,17.05,0,0,0-26.29,0Zm13.15,6.94a17.94,17.94,0,0,1-13.93-6.7l-.19-.24.19-.24a17.83,17.83,0,0,1,27.86,0l.19.24-.19.24A17.94,17.94,0,0,1,63.66,309.87Z"/><path class="cls-3" d="M57.14,302.93a8.59,8.59,0,0,0,13,0,8.59,8.59,0,0,0-13,0Zm6.52,3.75a9.39,9.39,0,0,1-7.31-3.52l-.19-.24.19-.24a9.35,9.35,0,0,1,14.62,0l.19.24-.19.24A9.41,9.41,0,0,1,63.66,306.68Z"/><path class="cls-3" d="M17.94,302.42c3.12,5.92,10.85,9.89,19.34,9.89a25.71,25.71,0,0,0,19.77-9.37,25.69,25.69,0,0,0-19.77-9.37A24.22,24.22,0,0,0,17.94,302.42Zm19.34,10.64c-8.87,0-17-4.23-20.13-10.52l-.11-.22.15-.19a25,25,0,0,1,20.08-9.33,26.48,26.48,0,0,1,20.55,9.89l.19.24-.19.24A26.45,26.45,0,0,1,37.28,313.06Z"/><path class="cls-3" d="M24.35,302.67c2.39,3.92,7.44,6.44,12.93,6.44a17.14,17.14,0,0,0,13.14-6.19,17.15,17.15,0,0,0-13.14-6.19A16.52,16.52,0,0,0,24.35,302.67Zm12.93,7.2c-5.85,0-11.22-2.75-13.72-7l-.15-.23.17-.21A17.2,17.2,0,0,1,37.27,296a17.94,17.94,0,0,1,13.93,6.7l.19.24-.19.24A17.91,17.91,0,0,1,37.28,309.87Z"/><path class="cls-3" d="M30.76,302.93a8.59,8.59,0,0,0,13,0,8.59,8.59,0,0,0-13,0Zm6.52,3.75A9.39,9.39,0,0,1,30,303.16l-.19-.24.19-.24a9.35,9.35,0,0,1,14.62,0l.19.24-.19.24A9.41,9.41,0,0,1,37.28,306.68Z"/><path class="cls-3" d="M23.4,212.12a27.41,27.41,0,0,0,0,40.76,27.41,27.41,0,0,0,0-40.76Zm0,41.76-.25-.21a28.15,28.15,0,0,1,0-42.33l.25-.21.25.21a27.91,27.91,0,0,1,9.59,21.16,28,28,0,0,1-9.59,21.17Z"/><path class="cls-3" d="M23.4,219a18.32,18.32,0,0,0,0,27.1,18.32,18.32,0,0,0,0-27.1Zm0,28.1-.25-.21a19.07,19.07,0,0,1,0-28.68l.25-.21.25.21a19.07,19.07,0,0,1,0,28.68Z"/><path class="cls-3" d="M23.4,225.78a9.24,9.24,0,0,0,0,13.44,9.24,9.24,0,0,0,0-13.44Zm0,14.45-.25-.21a10,10,0,0,1,0-15l.25-.21.25.21a10,10,0,0,1,0,15Z"/><path class="cls-3" d="M23.4,240.23a27.41,27.41,0,0,0,0,40.76,27.41,27.41,0,0,0,0-40.76Zm0,41.75-.25-.21a28.14,28.14,0,0,1,0-42.32l.25-.21.25.21a28.14,28.14,0,0,1,0,42.32Z"/><path class="cls-3" d="M23.4,247.06a18.32,18.32,0,0,0,0,27.1,18.32,18.32,0,0,0,0-27.1Zm0,28.1-.25-.21a19.07,19.07,0,0,1,0-28.68l.25-.21.25.21a19.07,19.07,0,0,1,0,28.68Z"/><path class="cls-3" d="M23.4,253.88a9.24,9.24,0,0,0,0,13.44,9.24,9.24,0,0,0,0-13.44Zm0,14.46-.25-.21a10,10,0,0,1,0-15l.25-.21.25.21a10,10,0,0,1,0,15Z"/><path class="cls-3" d="M23.4,268.34a27.16,27.16,0,0,0-9.08,20.38c0,8.65,3.7,16.22,9.69,19.83,5.63-5,8.48-11.64,8.48-19.83A27.24,27.24,0,0,0,23.4,268.34Zm.68,41.14-.23-.14c-6.35-3.69-10.29-11.59-10.29-20.63a27.92,27.92,0,0,1,9.59-21.16l.25-.21.25.21a27.91,27.91,0,0,1,9.59,21.16c0,8.4-3.09,15.52-9,20.58Z"/><path class="cls-3" d="M23.4,275.17a18.17,18.17,0,0,0-6,13.55c0,5.61,2.38,10.61,6.29,13.28a17.18,17.18,0,0,0,5.69-13.28A18.17,18.17,0,0,0,23.4,275.17ZM23.74,303l-.24-.17c-4.26-2.78-6.85-8.1-6.85-14.07a18.92,18.92,0,0,1,6.5-14.34l.25-.21.25.21a18.92,18.92,0,0,1,6.5,14.34,18.11,18.11,0,0,1-6.18,14Z"/><path class="cls-3" d="M23.4,282a9.24,9.24,0,0,0,0,13.44,9.24,9.24,0,0,0,0-13.44Zm0,14.45-.25-.21a10,10,0,0,1,0-15l.25-.21.25.21a10,10,0,0,1,0,15Z"/><path class="cls-3" d="M23.4,184a27.41,27.41,0,0,0,0,40.76,27.41,27.41,0,0,0,0-40.76Zm0,41.76-.25-.21a28.14,28.14,0,0,1,0-42.32l.25-.21.25.21a28.14,28.14,0,0,1,0,42.32Z"/><path class="cls-3" d="M23.4,190.84a18.32,18.32,0,0,0,0,27.1,18.32,18.32,0,0,0,0-27.1Zm0,28.1-.25-.21a19.07,19.07,0,0,1,0-28.68l.25-.21.25.21a19.07,19.07,0,0,1,0,28.68Z"/><path class="cls-3" d="M23.4,197.67a9.24,9.24,0,0,0,0,13.44,9.24,9.24,0,0,0,0-13.44Zm0,14.45-.25-.21a10,10,0,0,1,0-15l.25-.21.25.21a10,10,0,0,1,0,15Z"/><path class="cls-3" d="M23.4,155.9a27.41,27.41,0,0,0,0,40.76,27.41,27.41,0,0,0,0-40.76Zm0,41.76-.25-.21a28.15,28.15,0,0,1,0-42.33l.25-.21.25.21a27.91,27.91,0,0,1,9.59,21.16,28,28,0,0,1-9.59,21.17Z"/><path class="cls-3" d="M23.4,162.73a18.32,18.32,0,0,0,0,27.1,18.32,18.32,0,0,0,0-27.1Zm0,28.11-.25-.21a19.07,19.07,0,0,1,0-28.68l.25-.21.25.21a19.07,19.07,0,0,1,0,28.68Z"/><path class="cls-3" d="M23.4,169.56a9.24,9.24,0,0,0,0,13.44,9.24,9.24,0,0,0,0-13.44Zm0,14.45-.25-.21a10,10,0,0,1,0-15l.25-.21.25.21a10,10,0,0,1,0,15Z"/><path class="cls-3" d="M23.4,128.15a27.41,27.41,0,0,0,0,40.76,27.41,27.41,0,0,0,0-40.76Zm0,41.76-.25-.21a28.14,28.14,0,0,1,0-42.32l.25-.21.25.21a28.14,28.14,0,0,1,0,42.32Z"/><path class="cls-3" d="M23.4,135a18.32,18.32,0,0,0,0,27.1,18.32,18.32,0,0,0,0-27.1Zm0,28.1-.25-.21a19.07,19.07,0,0,1,0-28.68l.25-.21.25.21a19.07,19.07,0,0,1,0,28.68Z"/><path class="cls-3" d="M23.4,141.81a9.24,9.24,0,0,0,0,13.44,9.24,9.24,0,0,0,0-13.44Zm0,14.45-.25-.21a10,10,0,0,1,0-15l.25-.21.25.21a10,10,0,0,1,0,15Z"/><path class="cls-3" d="M23.4,100.4a27.41,27.41,0,0,0,0,40.76,27.41,27.41,0,0,0,0-40.76Zm0,41.75-.25-.21a28.14,28.14,0,0,1,0-42.32l.25-.21.25.21a28.14,28.14,0,0,1,0,42.32Z"/><path class="cls-3" d="M23.4,107.22a18.32,18.32,0,0,0,0,27.1,18.32,18.32,0,0,0,0-27.1Zm0,28.11-.25-.21a19.07,19.07,0,0,1,0-28.68l.25-.21.25.21a19.07,19.07,0,0,1,0,28.68Z"/><path class="cls-3" d="M23.4,114.05a9.24,9.24,0,0,0,0,13.44,9.24,9.24,0,0,0,0-13.44Zm0,14.45-.25-.21a10,10,0,0,1,0-15l.25-.21.25.21a10,10,0,0,1,0,15Z"/><path class="cls-3" d="M23.4,72.64a27.41,27.41,0,0,0,0,40.76,27.41,27.41,0,0,0,0-40.76Zm0,41.76-.25-.21a28.14,28.14,0,0,1,0-42.32l.25-.21.25.21a28.14,28.14,0,0,1,0,42.32Z"/><path class="cls-3" d="M23.4,79.47a18.32,18.32,0,0,0,0,27.1,18.32,18.32,0,0,0,0-27.1Zm0,28.1-.25-.21a19.07,19.07,0,0,1,0-28.68l.25-.21.25.21a19.07,19.07,0,0,1,0,28.68Z"/><path class="cls-3" d="M23.4,86.3a9.24,9.24,0,0,0,0,13.44,9.24,9.24,0,0,0,0-13.44Zm0,14.45-.25-.21a10,10,0,0,1,0-15l.25-.21.25.21a10,10,0,0,1,0,15Z"/><path class="cls-3" d="M23.4,44.89a27.41,27.41,0,0,0,0,40.76,27.41,27.41,0,0,0,0-40.76Zm0,41.75-.25-.21a28.14,28.14,0,0,1,0-42.32l.25-.21.25.21a28.14,28.14,0,0,1,0,42.32Z"/><path class="cls-3" d="M23.4,51.72a18.32,18.32,0,0,0,0,27.1,18.32,18.32,0,0,0,0-27.1Zm0,28.1-.25-.21a19.07,19.07,0,0,1,0-28.68l.25-.21.25.21a19.07,19.07,0,0,1,0,28.68Z"/><path class="cls-3" d="M23.4,58.54A9.24,9.24,0,0,0,23.4,72a9.24,9.24,0,0,0,0-13.44ZM23.4,73l-.25-.21a10,10,0,0,1,0-15l.25-.21.25.21a10,10,0,0,1,0,15Z"/><path class="cls-3" d="M24,17.63c-8,5.09-9.64,13.6-9.64,19.88a27.2,27.2,0,0,0,9.08,20.38,27.16,27.16,0,0,0,9.08-20.38C32.48,29.43,29.53,22.56,24,17.63ZM23.4,58.89l-.25-.21a27.91,27.91,0,0,1-9.59-21.17c0-6.53,1.78-15.42,10.24-20.67l.24-.15.21.18c5.89,5.09,9,12.23,9,20.63a28,28,0,0,1-9.59,21.17Z"/><path class="cls-3" d="M23.67,24.21c-4.9,3.4-6.27,8.88-6.27,13.3a18.17,18.17,0,0,0,6,13.55,18.17,18.17,0,0,0,6-13.55A17.35,17.35,0,0,0,23.67,24.21ZM23.4,52.06l-.25-.21a18.92,18.92,0,0,1-6.5-14.34c0-4.72,1.51-10.53,6.82-14.09l.24-.18.23.2a18.12,18.12,0,0,1,6.2,14.07,18.92,18.92,0,0,1-6.5,14.34Z"/><path class="cls-3" d="M23.4,30.79a9.24,9.24,0,0,0,0,13.44,9.24,9.24,0,0,0,0-13.44Zm0,14.45L23.15,45a10,10,0,0,1,0-15l.25-.21.25.21a10,10,0,0,1,0,15Z"/><path class="cls-3" d="M17.39,24.65,17,24A15.89,15.89,0,0,0,15.56,22,19.26,19.26,0,0,1,11,11.25L11,10.78l.47,0c.33,0,8.11.72,12.83,6.1l.27.3-1.13.86c-2.65,2-4.4,3.33-5.7,5.94Zm-5.53-13a18.33,18.33,0,0,0,4.3,9.86c.43.54.83,1.06,1.19,1.6,1.35-2.39,3.16-3.76,5.61-5.61l.48-.36C19.56,13,13.57,11.86,11.86,11.62Z"/><path class="cls-3" d="M192.73,24.65l-.32-.64c-1.3-2.6-3-3.93-5.7-5.93l-1.13-.86.27-.3c4.72-5.38,12.5-6.07,12.83-6.1l.47,0-.06.47A19.16,19.16,0,0,1,194.57,22,17.7,17.7,0,0,0,193.09,24Zm-6-7.54.48.37c2.44,1.85,4.25,3.22,5.6,5.61.36-.54.77-1.06,1.19-1.6a18.37,18.37,0,0,0,4.3-9.86C196.55,11.86,190.57,13,186.69,17.11Z"/><path class="cls-3" d="M11,315.34l.06-.47a19.15,19.15,0,0,1,4.53-10.71,16.6,16.6,0,0,0,1.48-2.07l.35-.62.32.64c1.3,2.6,3.05,3.93,5.7,5.94l1.13.86-.27.3c-4.72,5.38-12.5,6.07-12.83,6.1ZM17.35,303c-.36.54-.77,1.06-1.19,1.6a18.37,18.37,0,0,0-4.3,9.86c1.72-.23,7.7-1.33,11.58-5.49l-.48-.36C20.51,306.8,18.7,305.42,17.35,303Z"/><path class="cls-3" d="M199.15,315.34l-.47,0c-.33,0-8.11-.72-12.83-6.1l-.27-.3,1.13-.86c2.65-2,4.4-3.33,5.7-5.93l.32-.64.35.62a15.89,15.89,0,0,0,1.48,2.07,19.19,19.19,0,0,1,4.52,10.71ZM186.69,309c3.88,4.17,9.86,5.25,11.58,5.49a18.33,18.33,0,0,0-4.3-9.86c-.43-.54-.83-1.06-1.19-1.6-1.35,2.38-3.16,3.76-5.6,5.61Z"/><path class="cls-1" d="M334.63,326.22H136.71a6,6,0,0,1-6-6V6a6,6,0,0,1,6-6H334.63a6,6,0,0,1,6,6V320.22A6,6,0,0,1,334.63,326.22Z"/><path class="cls-2" d="M140.56,315.36V10.85a1,1,0,0,1,1-1H329.77a1,1,0,0,1,1,1V315.36a1,1,0,0,1-1,1H141.56A1,1,0,0,1,140.56,315.36Z"/><rect class="cls-1" x="167.86" y="37.15" width="135.61" height="251.91"/><path class="cls-2" d="M194.72,69.2s-.21.35-.59,1a21.46,21.46,0,0,0-2.42,7.9,27.25,27.25,0,0,0,.13,6.46A36,36,0,0,0,193.76,92a40,40,0,0,0,3.87,7.55c.37.56.86,1.24,1.3,1.86l1.37,1.79c1,1.19,1.95,2.4,3,3.57,2.09,2.36,4.38,4.63,6.67,6.93s4.63,4.6,6.87,6.94,4.28,4.82,6.25,7.17,3.78,4.75,5.41,7.07a59.47,59.47,0,0,1,4.18,6.85,35.16,35.16,0,0,1,2.57,6.3,21.75,21.75,0,0,1,.87,5.17,15.28,15.28,0,0,1-.24,3.34l-.26,1.15s0-.41.09-1.17a16.78,16.78,0,0,0-.21-3.27,23.25,23.25,0,0,0-1.38-4.85,38.63,38.63,0,0,0-3-5.81,70.94,70.94,0,0,0-4.5-6.33c-1.71-2.18-3.63-4.38-5.65-6.64s-4.13-4.6-6.38-6.82-4.57-4.52-6.9-6.81-4.62-4.68-6.77-7.14c-1.07-1.23-2.11-2.49-3.07-3.79l-1.4-2c-.43-.67-.83-1.25-1.28-2a36.42,36.42,0,0,1-3.76-8.3,32.34,32.34,0,0,1-1.48-8,25.11,25.11,0,0,1,.52-6.85,20.44,20.44,0,0,1,1.75-5A18.23,18.23,0,0,1,194,70.09Z"/><path class="cls-2" d="M235.61,155.29l-.2-1.19c-.14-.77-.31-1.92-.59-3.35s-.66-3.14-1.25-5.08c-.28-1-.55-2-.95-3.06s-.71-2.2-1.22-3.34-.93-2.34-1.53-3.54c-.28-.6-.57-1.22-.85-1.84s-.64-1.23-1-1.86c-1.29-2.51-2.87-5-4.52-7.66s-3.57-5.19-5.46-7.86l-5.9-8c-2-2.73-3.86-5.54-5.59-8.41a49.92,49.92,0,0,1-4.34-8.92A34.28,34.28,0,0,1,200.17,82a30.65,30.65,0,0,1,.41-8.34c.12-.63.21-1.26.35-1.86s.32-1.17.48-1.73.3-1.11.48-1.63.38-1,.57-1.5a43.52,43.52,0,0,1,2.18-4.87c.68-1.31,1.32-2.28,1.71-3l.62-1-.46,1.12c-.29.73-.75,1.78-1.27,3.14s-1.12,3-1.58,5l-.4,1.5c-.13.52-.2,1.06-.3,1.61s-.21,1.11-.31,1.69-.12,1.18-.19,1.79a33.24,33.24,0,0,0,.16,7.81A36.25,36.25,0,0,0,205,90.1a54.74,54.74,0,0,0,4.35,8.32c1.69,2.75,3.58,5.46,5.54,8.14l5.81,8.11c1.91,2.71,3.69,5.45,5.33,8.17a76.66,76.66,0,0,1,4.27,8.12l.88,2,.76,1.95c.52,1.27.89,2.55,1.28,3.76s.68,2.4,1,3.52.48,2.21.66,3.22a53,53,0,0,1,.68,5.29c.13,1.46.09,2.62.13,3.4S235.61,155.29,235.61,155.29Z"/><path class="cls-2" d="M223.9,51.44l-.85,1-1,1.14-.65.72c-.21.27-.42.57-.65.87-.45.62-1,1.28-1.5,2l-1.54,2.54c-.45,1-.94,2-1.4,3l-.58,1.71-.3.88c-.07.31-.14.62-.2.93-.14.62-.27,1.26-.41,1.91s-.14,1.34-.22,2a18.13,18.13,0,0,0-.1,2.1,19.7,19.7,0,0,0,0,2.17A44.41,44.41,0,0,0,216,83.59a88.09,88.09,0,0,0,3.19,9.53c1.22,3.22,2.63,6.44,4,9.68l4.17,9.71c1.38,3.22,2.6,6.45,3.74,9.6q.84,2.37,1.58,4.68c.44,1.56.93,3.06,1.28,4.56s.76,2.94,1,4.37c.14.71.27,1.41.41,2.1l.3,2c.1.67.19,1.32.28,1.95s.11,1.27.16,1.88c.1,1.22.19,2.38.18,3.47s.07,2.11,0,3.05-.11,1.8-.16,2.58a18.3,18.3,0,0,1-.22,2.07c-.09.6-.16,1.11-.22,1.52-.12.82-.18,1.26-.18,1.26s0-.44,0-1.28.06-2.05,0-3.59c0-.77-.09-1.62-.14-2.55s-.2-1.92-.31-3-.29-2.19-.5-3.36c-.1-.59-.2-1.19-.31-1.81s-.27-1.24-.42-1.88-.29-1.29-.44-2-.36-1.33-.55-2c-.34-1.37-.79-2.77-1.23-4.2-.9-2.87-2-5.84-3.21-8.9s-2.58-6.18-3.95-9.37l-4.27-9.66c-2.78-6.52-5.54-13.17-7-19.82a41.7,41.7,0,0,1-1.17-9.77,27.88,27.88,0,0,1,1.34-8.75c.1-.33.2-.65.29-1l.39-.92c.26-.6.52-1.19.76-1.76.59-1.1,1.2-2.11,1.77-3.05l1.85-2.46c.63-.72,1.25-1.34,1.78-1.91l.76-.81.74-.63,1.17-1Z"/><path class="cls-2" d="M185.54,98.9s.47,1.14,1.3,3.12l.77,1.58.43.89c.17.3.34.61.53.93a42.64,42.64,0,0,0,2.62,4.16,48.35,48.35,0,0,0,3.68,4.46l1.07,1.13,1.16,1.1c.77.75,1.61,1.46,2.46,2.19,1.72,1.44,3.58,2.81,5.53,4.17s4,2.66,6,3.93l6.2,3.84c2.07,1.25,4.06,2.61,6,3.95a46.29,46.29,0,0,1,5.27,4.28,26.34,26.34,0,0,1,4,4.68,19.41,19.41,0,0,1,1.35,2.39l.53,1.16.39,1.14a12.17,12.17,0,0,1,.54,2.09,10.52,10.52,0,0,1,.24,1.8,13.29,13.29,0,0,1,0,2.52c0,.58,0,.88,0,.88s-.05-.3-.14-.88A17.09,17.09,0,0,0,235,152a10.67,10.67,0,0,0-.51-1.66,14.36,14.36,0,0,0-.78-1.87l-.5-1-.63-1a21.81,21.81,0,0,0-1.48-2,30.57,30.57,0,0,0-4.11-4c-1.6-1.27-3.37-2.51-5.27-3.73s-3.94-2.39-6-3.63-4.19-2.47-6.29-3.76-4.17-2.68-6.15-4.13a59.23,59.23,0,0,1-5.6-4.58c-.85-.82-1.71-1.59-2.46-2.46l-1.13-1.25-1-1.28a37.12,37.12,0,0,1-3.42-5,32.45,32.45,0,0,1-2.17-4.64,33.56,33.56,0,0,1-1.21-3.74c-.27-1-.39-1.88-.51-2.45S185.54,98.9,185.54,98.9Z"/><path class="cls-2" d="M179.35,119.39s.29-.16.84-.42a11,11,0,0,1,2.56-.8,14.18,14.18,0,0,1,9.53,1.64,16.73,16.73,0,0,1,5,4.33,20.88,20.88,0,0,1,3.5,6.55,42.75,42.75,0,0,1,1.6,7.56,52,52,0,0,0,1.38,7.37c.08.3.17.58.26.87l.12.39.17.45c.22.64.47,1.13.7,1.66a21.8,21.8,0,0,0,1.83,3,28.11,28.11,0,0,0,2.29,2.68,22.16,22.16,0,0,0,2.63,2.23,21.17,21.17,0,0,0,5.86,2.93,21.74,21.74,0,0,0,5.86.94,22.91,22.91,0,0,0,8.93-1.61,24.07,24.07,0,0,0,2.37-1.1l.82-.45-.72.6a19.1,19.1,0,0,1-2.18,1.53,21.18,21.18,0,0,1-9.16,2.91,20.54,20.54,0,0,1-6.57-.47,21.26,21.26,0,0,1-6.82-2.89,22.87,22.87,0,0,1-5.84-5.42,25.61,25.61,0,0,1-2.18-3.52c-.31-.65-.63-1.33-.84-1.91l-.18-.45-.18-.54c-.11-.33-.23-.66-.31-1a54.18,54.18,0,0,1-1.36-7.84,50.05,50.05,0,0,0-1.22-7.14,20.53,20.53,0,0,0-2.7-5.94,16.6,16.6,0,0,0-4.09-4.21,14.45,14.45,0,0,0-4.52-2.1,13.83,13.83,0,0,0-3.92-.47,12.43,12.43,0,0,0-2.57.33C179.66,119.29,179.35,119.39,179.35,119.39Z"/><path class="cls-2" d="M184.42,130.47a5.59,5.59,0,0,1,.76-.27,5.92,5.92,0,0,1,2.32-.19,8.1,8.1,0,0,1,3.45,1.27,11.64,11.64,0,0,1,3.45,3.36,12.34,12.34,0,0,1,.72,1.18c.11.21.22.41.32.65l.28.61a23.9,23.9,0,0,1,.94,2.78c.54,1.9.93,3.9,1.38,5.86a27.26,27.26,0,0,0,.83,2.88l.06.18s0-.11,0,0v0l0,.05,0,.09.15.37.31.75c.2.49.43.86.64,1.3a18.75,18.75,0,0,0,3.71,4.78,19.81,19.81,0,0,0,5,3.53,20.24,20.24,0,0,0,5.6,1.89,22.78,22.78,0,0,0,2.82.27c.4,0,1,0,1.43,0s.91,0,1.36-.08a42.86,42.86,0,0,0,5.16-.76,58.84,58.84,0,0,0,7.62-2.2c1.82-.65,2.86-1.08,2.86-1.08l-.66.45c-.44.29-1.07.73-1.92,1.21a40.34,40.34,0,0,1-7.4,3.41,33.11,33.11,0,0,1-5.35,1.37c-.48.09-1,.15-1.51.22s-.93.12-1.53.13-1.08.06-1.63,0-1.1-.06-1.65-.13a21,21,0,0,1-6.58-1.89,23.05,23.05,0,0,1-5.84-4,21.9,21.9,0,0,1-4.26-5.69c-.25-.54-.56-1.12-.76-1.64l-.27-.76-.13-.38-.09-.25-.06-.21a29,29,0,0,1-.75-3.24c-.4-2.1-.59-4.08-.93-5.89-.17-.9-.39-1.77-.61-2.55-.07-.21-.14-.43-.2-.63s-.13-.37-.2-.55a11.37,11.37,0,0,0-.48-1.06,9.87,9.87,0,0,0-5.43-5,6.25,6.25,0,0,0-2.16-.28A4.57,4.57,0,0,0,184.42,130.47Z"/><path class="cls-2" d="M276.61,69.2l.74.91A18.23,18.23,0,0,1,279.14,73a19.74,19.74,0,0,1,1.75,5,25.08,25.08,0,0,1,.52,6.85,32.51,32.51,0,0,1-1.48,8,36.42,36.42,0,0,1-3.76,8.3c-.44.73-.85,1.31-1.28,2l-1.4,2c-1,1.29-2,2.55-3.07,3.79-2.15,2.46-4.43,4.85-6.77,7.14s-4.68,4.54-6.9,6.81-4.35,4.54-6.38,6.82-4,4.47-5.65,6.64a67.08,67.08,0,0,0-4.5,6.33,39.09,39.09,0,0,0-3,5.81,23.08,23.08,0,0,0-1.38,4.85,17.62,17.62,0,0,0-.21,3.27c.06.76.09,1.17.09,1.17l-.26-1.15a15.33,15.33,0,0,1-.24-3.34,21.75,21.75,0,0,1,.87-5.17,35.16,35.16,0,0,1,2.57-6.3,59.47,59.47,0,0,1,4.18-6.85c1.64-2.32,3.45-4.7,5.41-7.07s4-4.8,6.25-7.17,4.57-4.64,6.87-6.94,4.58-4.57,6.67-6.93c1.06-1.17,2-2.38,3-3.57l1.37-1.79c.43-.62.93-1.29,1.3-1.86A40,40,0,0,0,277.57,92a35.63,35.63,0,0,0,1.92-7.38,27.25,27.25,0,0,0,.13-6.46,21.64,21.64,0,0,0-1.1-4.9,23.09,23.09,0,0,0-1.32-3C276.82,69.55,276.61,69.2,276.61,69.2Z"/><path class="cls-2" d="M235.72,155.29s0-.42,0-1.2,0-1.94.13-3.4.26-3.27.68-5.29c.18-1,.36-2.1.66-3.22s.55-2.32,1-3.52.76-2.49,1.28-3.76l.76-2,.88-2a77.64,77.64,0,0,1,4.27-8.12c1.64-2.72,3.42-5.46,5.33-8.17l5.81-8.11c2-2.69,3.85-5.4,5.54-8.14a54.74,54.74,0,0,0,4.35-8.32,36.25,36.25,0,0,0,2.34-8.35A33.24,33.24,0,0,0,268.9,74c-.07-.61-.1-1.21-.19-1.79s-.21-1.14-.31-1.69-.18-1.1-.3-1.61l-.4-1.5c-.46-2-1.13-3.6-1.58-5s-1-2.41-1.27-3.14l-.46-1.12s.21.36.62,1,1,1.65,1.71,3A44.54,44.54,0,0,1,268.9,67l.57,1.5c.19.52.32,1.07.48,1.63s.32,1.14.48,1.73.23,1.22.35,1.86a31.45,31.45,0,0,1,.41,8.34,34.37,34.37,0,0,1-2.08,9.12,50.25,50.25,0,0,1-4.34,8.92c-1.73,2.87-3.63,5.68-5.59,8.41l-5.9,8c-1.9,2.66-3.8,5.25-5.46,7.86s-3.23,5.15-4.52,7.66l-1,1.86-.85,1.84c-.6,1.19-1.05,2.39-1.53,3.54s-.82,2.27-1.22,3.34-.68,2.09-1,3.06c-.6,1.94-.91,3.66-1.25,5.08s-.45,2.58-.59,3.35S235.72,155.29,235.72,155.29Z"/><path class="cls-2" d="M247.43,51.44l1,.83,1.17,1,.74.63.76.81c.53.57,1.15,1.19,1.78,1.91l1.85,2.46c.56.94,1.18,2,1.77,3l.76,1.76.39.92c.1.32.19.65.29,1a28,28,0,0,1,1.33,8.76,41.78,41.78,0,0,1-1.18,9.77c-1.49,6.65-4.26,13.3-7.05,19.82-1.43,3.24-2.87,6.47-4.28,9.65s-2.76,6.3-4,9.36-2.31,6-3.22,8.9c-.45,1.43-.89,2.83-1.24,4.2-.19.68-.37,1.35-.55,2s-.3,1.32-.44,2-.28,1.27-.42,1.88-.21,1.22-.31,1.81c-.21,1.18-.41,2.3-.51,3.36s-.26,2.06-.31,3-.1,1.78-.14,2.55c-.09,1.54,0,2.76,0,3.59s0,1.28,0,1.28-.06-.44-.18-1.26c-.06-.41-.13-.92-.22-1.52a16.25,16.25,0,0,1-.22-2.07c-.05-.78-.1-1.64-.16-2.58s0-2,0-3,.08-2.25.19-3.47c.05-.61.11-1.24.16-1.88s.19-1.29.28-2l.3-2c.13-.69.27-1.39.41-2.1.25-1.43.65-2.88,1-4.37s.85-3,1.29-4.56,1-3.1,1.58-4.68c1.14-3.15,2.37-6.38,3.75-9.6l4.18-9.71c1.42-3.23,2.83-6.46,4.06-9.67a88,88,0,0,0,3.2-9.52,44.23,44.23,0,0,0,1.54-9.14,17.49,17.49,0,0,0,0-2.17,18.13,18.13,0,0,0-.1-2.1c-.07-.69-.15-1.36-.22-2s-.28-1.29-.41-1.91c-.07-.31-.14-.62-.2-.93l-.3-.88L255,62.77c-.45-1.08-.94-2.09-1.4-3.05s-1.06-1.76-1.54-2.54-1.05-1.41-1.5-2l-.65-.87-.65-.72-1-1.14C247.73,51.77,247.43,51.44,247.43,51.44Z"/><path class="cls-2" d="M285.79,98.9l-.17.87c-.12.56-.24,1.4-.51,2.45a36.37,36.37,0,0,1-3.38,8.38,36.22,36.22,0,0,1-3.42,5l-1,1.28-1.13,1.25c-.75.86-1.61,1.63-2.46,2.46a59,59,0,0,1-5.6,4.58c-2,1.45-4.07,2.81-6.15,4.13s-4.23,2.53-6.29,3.76-4.1,2.4-6,3.63a60.93,60.93,0,0,0-5.27,3.73,31.81,31.81,0,0,0-4.11,4,21.32,21.32,0,0,0-1.48,2l-.63,1-.5,1a13.09,13.09,0,0,0-.78,1.87,9.69,9.69,0,0,0-.51,1.66,18.66,18.66,0,0,0-.49,2.42l-.14.88s0-.31,0-.88a14.2,14.2,0,0,1,0-2.52,10.27,10.27,0,0,1,.24-1.8,12.17,12.17,0,0,1,.54-2.09q.18-.56.39-1.14l.53-1.16a18.14,18.14,0,0,1,1.36-2.39,27.06,27.06,0,0,1,4-4.68,46.29,46.29,0,0,1,5.27-4.28c1.91-1.34,3.9-2.7,6-4l6.2-3.84c2.07-1.27,4.12-2.56,6.05-3.93s3.81-2.73,5.53-4.17c.84-.73,1.68-1.45,2.46-2.19l1.16-1.1,1.07-1.13a47.06,47.06,0,0,0,3.68-4.46,43.88,43.88,0,0,0,2.62-4.16l.53-.93.43-.89.77-1.58Z"/><path class="cls-2" d="M292,119.39s-.31-.1-.9-.25a14.12,14.12,0,0,0-2.57-.33,13.87,13.87,0,0,0-3.92.47,14.68,14.68,0,0,0-4.52,2.1,16.6,16.6,0,0,0-4.09,4.21,20,20,0,0,0-2.7,5.94,50.05,50.05,0,0,0-1.22,7.14,54.18,54.18,0,0,1-1.36,7.84c-.08.33-.2.66-.31,1l-.18.54-.18.45c-.21.58-.53,1.25-.84,1.91a24.33,24.33,0,0,1-2.18,3.52,23,23,0,0,1-5.84,5.42,21,21,0,0,1-6.82,2.89,20.54,20.54,0,0,1-6.57.47,21,21,0,0,1-9.16-2.91,18.23,18.23,0,0,1-2.18-1.53l-.72-.6.82.45c.53.29,1.34.67,2.37,1.1a22.91,22.91,0,0,0,8.93,1.61,21.74,21.74,0,0,0,5.86-.94,21.31,21.31,0,0,0,5.86-2.93,22.16,22.16,0,0,0,2.63-2.23,28.11,28.11,0,0,0,2.29-2.68,22.39,22.39,0,0,0,1.83-3c.23-.52.47-1,.7-1.66l.17-.45.12-.39c.09-.29.18-.57.26-.87a52,52,0,0,0,1.38-7.37,43.66,43.66,0,0,1,1.6-7.56,20.37,20.37,0,0,1,3.5-6.55,17,17,0,0,1,5-4.33,14.12,14.12,0,0,1,9.53-1.64,11.48,11.48,0,0,1,2.56.8C291.7,119.23,292,119.39,292,119.39Z"/><path class="cls-2" d="M286.91,130.47a6.67,6.67,0,0,0-.79-.1,6.28,6.28,0,0,0-2.16.28,9.83,9.83,0,0,0-5.43,5,9.25,9.25,0,0,0-.48,1.06c-.07.18-.14.38-.2.55s-.14.42-.2.63c-.22.77-.44,1.65-.61,2.55-.35,1.8-.54,3.78-.93,5.89a32,32,0,0,1-.75,3.24l-.06.21-.09.25-.13.38-.27.76c-.2.51-.5,1.09-.76,1.64a21.74,21.74,0,0,1-4.26,5.69,23.58,23.58,0,0,1-5.84,4,21,21,0,0,1-6.58,1.89c-.55.06-1.11.08-1.65.13s-1.09,0-1.63,0-1-.09-1.53-.13-1-.13-1.51-.22a33.11,33.11,0,0,1-5.35-1.37,40,40,0,0,1-7.4-3.41c-.85-.48-1.48-.92-1.92-1.21l-.66-.45s1,.42,2.86,1.08a61,61,0,0,0,7.62,2.2,42.68,42.68,0,0,0,5.15.76c.46,0,.9,0,1.36.08s1,0,1.43,0a22.78,22.78,0,0,0,2.82-.27,20.63,20.63,0,0,0,10.57-5.42,19.1,19.1,0,0,0,3.71-4.78c.21-.44.44-.82.64-1.3l.31-.75.15-.37,0-.09,0-.05v0c0-.06,0,.06,0,0l.06-.18a27.26,27.26,0,0,0,.83-2.88c.45-2,.84-4,1.38-5.86a25.24,25.24,0,0,1,.94-2.78l.28-.61c.11-.24.21-.44.32-.65a12.34,12.34,0,0,1,.72-1.18,11.88,11.88,0,0,1,3.45-3.36,8.1,8.1,0,0,1,3.45-1.27,5.92,5.92,0,0,1,2.32.19A5,5,0,0,1,286.91,130.47Z"/><path class="cls-2" d="M194.72,257l-.74-.91a18.23,18.23,0,0,1-1.79-2.84,19.74,19.74,0,0,1-1.75-5,25.08,25.08,0,0,1-.52-6.85,32.51,32.51,0,0,1,1.48-8,36.42,36.42,0,0,1,3.76-8.3c.44-.73.85-1.31,1.28-2l1.4-2c1-1.29,2-2.55,3.07-3.79,2.15-2.46,4.43-4.85,6.77-7.14s4.68-4.54,6.9-6.81,4.35-4.54,6.38-6.82,3.95-4.47,5.65-6.64a67.08,67.08,0,0,0,4.5-6.33,39.09,39.09,0,0,0,3-5.81A23.08,23.08,0,0,0,235.5,173a17.62,17.62,0,0,0,.21-3.27c-.06-.76-.09-1.17-.09-1.17l.26,1.15a15.33,15.33,0,0,1,.24,3.34,21.75,21.75,0,0,1-.87,5.17,35.16,35.16,0,0,1-2.57,6.3,59.47,59.47,0,0,1-4.18,6.85c-1.64,2.32-3.45,4.7-5.41,7.07s-4,4.8-6.25,7.17-4.57,4.64-6.87,6.94-4.58,4.57-6.67,6.93c-1.06,1.17-2,2.38-3,3.57l-1.37,1.79c-.43.62-.93,1.29-1.3,1.86a40,40,0,0,0-3.87,7.55,35.63,35.63,0,0,0-1.92,7.38,27.25,27.25,0,0,0-.13,6.46,21.64,21.64,0,0,0,1.1,4.9,23.09,23.09,0,0,0,1.32,3C194.51,256.66,194.72,257,194.72,257Z"/><path class="cls-2" d="M235.61,170.93s0,.42,0,1.2,0,1.94-.13,3.4-.26,3.27-.68,5.29c-.18,1-.36,2.1-.66,3.22s-.55,2.32-1,3.52-.76,2.49-1.28,3.76l-.76,2-.88,2a77.64,77.64,0,0,1-4.27,8.12c-1.64,2.72-3.42,5.46-5.33,8.17l-5.81,8.11c-2,2.69-3.85,5.4-5.54,8.14a54.74,54.74,0,0,0-4.35,8.32,36.25,36.25,0,0,0-2.34,8.35,33.24,33.24,0,0,0-.16,7.81c.07.61.1,1.21.19,1.79s.21,1.14.31,1.69.18,1.1.3,1.61.27,1,.4,1.5c.46,2,1.13,3.6,1.58,5s1,2.41,1.27,3.14l.46,1.12s-.21-.36-.62-1-1-1.65-1.71-3a44.54,44.54,0,0,1-2.18-4.87l-.57-1.5c-.19-.52-.32-1.07-.48-1.63s-.32-1.14-.48-1.73-.23-1.22-.35-1.86a31.45,31.45,0,0,1-.41-8.34,34.37,34.37,0,0,1,2.08-9.12,50.25,50.25,0,0,1,4.34-8.92c1.73-2.87,3.63-5.68,5.59-8.41l5.9-8c1.9-2.66,3.8-5.25,5.46-7.86s3.23-5.15,4.52-7.66l1-1.86.85-1.84c.6-1.19,1-2.39,1.53-3.54s.82-2.27,1.22-3.34.68-2.09.95-3.06c.6-1.94.91-3.66,1.25-5.08s.45-2.58.59-3.35S235.61,170.93,235.61,170.93Z"/><path class="cls-2" d="M223.9,274.78l-1-.83-1.17-1-.74-.63-.76-.81c-.53-.57-1.15-1.19-1.78-1.91l-1.85-2.46c-.57-.94-1.18-1.95-1.77-3l-.76-1.76-.39-.92c-.1-.32-.19-.65-.29-1a27.59,27.59,0,0,1-1.34-8.75,41.23,41.23,0,0,1,1.17-9.77c1.48-6.65,4.24-13.3,7-19.82l4.27-9.66c1.37-3.19,2.75-6.3,4-9.37s2.31-6,3.21-8.9c.45-1.43.89-2.83,1.23-4.2.19-.68.37-1.35.55-2s.3-1.32.44-2,.28-1.27.42-1.88.21-1.22.31-1.81c.21-1.18.41-2.3.5-3.36s.26-2.06.31-3,.1-1.78.14-2.55c.09-1.54,0-2.76,0-3.59s0-1.28,0-1.28.06.44.18,1.26c.06.41.13.92.22,1.52a16.25,16.25,0,0,1,.22,2.07c0,.78.1,1.64.16,2.58s0,2,0,3.05-.08,2.25-.18,3.47c-.05.61-.11,1.24-.16,1.88s-.18,1.29-.28,2-.2,1.35-.3,2-.27,1.39-.41,2.1c-.25,1.43-.65,2.88-1,4.37s-.85,3-1.28,4.56-1,3.1-1.58,4.68c-1.14,3.15-2.37,6.38-3.74,9.6s-2.77,6.46-4.17,9.71-2.82,6.46-4,9.68A90.33,90.33,0,0,0,216,242.6a44.19,44.19,0,0,0-1.53,9.14,17.48,17.48,0,0,0,0,2.17,18.13,18.13,0,0,0,.1,2.1c.07.69.15,1.36.22,2s.28,1.29.41,1.91c.07.31.14.62.2.93l.3.88.58,1.71c.46,1.08.95,2.09,1.4,3s1.06,1.76,1.54,2.54,1,1.41,1.5,2l.65.87.65.72,1,1.14C223.6,274.45,223.9,274.78,223.9,274.78Z"/><path class="cls-2" d="M185.54,227.31l.17-.87c.12-.56.24-1.4.51-2.45a36.37,36.37,0,0,1,3.38-8.38,36.22,36.22,0,0,1,3.42-5l1-1.28,1.13-1.25c.75-.86,1.61-1.63,2.46-2.46a59,59,0,0,1,5.6-4.58c2-1.45,4.07-2.81,6.15-4.13s4.23-2.53,6.29-3.76,4.1-2.4,6-3.63a60.93,60.93,0,0,0,5.27-3.73,31.81,31.81,0,0,0,4.11-4,21.32,21.32,0,0,0,1.48-2l.63-1c.17-.34.34-.67.5-1a13.09,13.09,0,0,0,.78-1.87,9.69,9.69,0,0,0,.51-1.66,18.66,18.66,0,0,0,.49-2.42l.14-.88s0,.31,0,.88a13.3,13.3,0,0,1,0,2.52,10.27,10.27,0,0,1-.24,1.8,12.17,12.17,0,0,1-.54,2.09q-.18.56-.39,1.14l-.53,1.16a19.25,19.25,0,0,1-1.35,2.39,27.06,27.06,0,0,1-4,4.68,46.29,46.29,0,0,1-5.27,4.28c-1.91,1.34-3.9,2.7-6,3.95l-6.2,3.84c-2.07,1.27-4.12,2.56-6,3.93s-3.81,2.73-5.53,4.17c-.84.73-1.68,1.45-2.46,2.19l-1.16,1.1-1.07,1.13a47.06,47.06,0,0,0-3.68,4.46,43.88,43.88,0,0,0-2.62,4.16l-.53.93-.43.89-.77,1.58Z"/><path class="cls-2" d="M179.35,206.83s.31.1.9.25a14.12,14.12,0,0,0,2.57.33,13.87,13.87,0,0,0,3.92-.47,14.68,14.68,0,0,0,4.52-2.1,16.6,16.6,0,0,0,4.09-4.21,20,20,0,0,0,2.7-5.94,50.05,50.05,0,0,0,1.22-7.14,54.18,54.18,0,0,1,1.36-7.84c.08-.33.2-.66.31-1l.18-.54.18-.45c.21-.58.53-1.25.84-1.91a24.33,24.33,0,0,1,2.18-3.52,23,23,0,0,1,5.84-5.42A21,21,0,0,1,217,164a20.54,20.54,0,0,1,6.57-.47,21,21,0,0,1,9.16,2.91,18.23,18.23,0,0,1,2.18,1.53l.72.6-.82-.45c-.53-.29-1.34-.67-2.37-1.1a22.91,22.91,0,0,0-8.93-1.61,21.74,21.74,0,0,0-5.86.94,21.31,21.31,0,0,0-5.86,2.93,23,23,0,0,0-2.63,2.23,28.11,28.11,0,0,0-2.29,2.68,22.39,22.39,0,0,0-1.83,3c-.23.52-.47,1-.7,1.66l-.17.45-.12.39c-.09.29-.18.57-.26.87a52,52,0,0,0-1.38,7.37,43.66,43.66,0,0,1-1.6,7.56,20.37,20.37,0,0,1-3.5,6.55,17,17,0,0,1-5,4.33,14.12,14.12,0,0,1-9.53,1.64,11.48,11.48,0,0,1-2.56-.8Z"/><path class="cls-2" d="M184.42,195.75a6.67,6.67,0,0,0,.79.1,6.28,6.28,0,0,0,2.16-.28,9.83,9.83,0,0,0,5.43-5,9.25,9.25,0,0,0,.48-1.06c.07-.18.14-.38.2-.55s.13-.42.2-.63c.22-.77.44-1.65.61-2.55.35-1.8.54-3.78.93-5.89a32,32,0,0,1,.75-3.24l.06-.21.09-.25.13-.38.27-.76c.2-.51.5-1.09.76-1.64a21.74,21.74,0,0,1,4.26-5.69,23.58,23.58,0,0,1,5.84-4,21,21,0,0,1,6.58-1.89c.55-.06,1.11-.08,1.65-.13s1.09,0,1.63,0,1,.09,1.53.13,1,.13,1.51.22a33.11,33.11,0,0,1,5.35,1.37,40,40,0,0,1,7.4,3.41c.85.48,1.48.92,1.92,1.21l.66.45s-1-.42-2.86-1.08a61,61,0,0,0-7.62-2.2,42.56,42.56,0,0,0-5.16-.76c-.46,0-.9,0-1.36-.08s-1,0-1.43,0a22.78,22.78,0,0,0-2.82.27,20.63,20.63,0,0,0-10.57,5.42,19.1,19.1,0,0,0-3.71,4.78c-.21.44-.44.82-.64,1.3l-.31.75-.15.37,0,.09,0,.05v0c0,.06,0-.06,0,0l-.06.18a27.26,27.26,0,0,0-.83,2.88c-.45,2-.84,4-1.38,5.86a25.24,25.24,0,0,1-.94,2.78l-.28.61c-.11.24-.21.44-.32.65a12.34,12.34,0,0,1-.72,1.18,11.76,11.76,0,0,1-3.45,3.36,8.1,8.1,0,0,1-3.45,1.27,5.92,5.92,0,0,1-2.32-.19A5,5,0,0,1,184.42,195.75Z"/><path class="cls-2" d="M276.61,257s.21-.35.59-1a21.46,21.46,0,0,0,2.42-7.9,27.25,27.25,0,0,0-.13-6.46,36,36,0,0,0-1.92-7.38,40,40,0,0,0-3.87-7.55c-.37-.56-.86-1.24-1.3-1.86L271,223.06c-1-1.19-1.95-2.4-3-3.57-2.09-2.36-4.38-4.63-6.67-6.93s-4.63-4.6-6.87-6.94-4.28-4.82-6.25-7.17-3.78-4.75-5.41-7.07a59.47,59.47,0,0,1-4.18-6.85,35.16,35.16,0,0,1-2.57-6.3,21.75,21.75,0,0,1-.87-5.17,15.28,15.28,0,0,1,.24-3.34l.26-1.15s0,.41-.09,1.17a16.78,16.78,0,0,0,.21,3.27,23.25,23.25,0,0,0,1.38,4.85,38.63,38.63,0,0,0,3,5.81,70.94,70.94,0,0,0,4.5,6.33c1.71,2.18,3.63,4.38,5.65,6.64s4.13,4.6,6.38,6.82,4.57,4.52,6.9,6.81,4.62,4.68,6.77,7.14c1.07,1.23,2.11,2.49,3.07,3.79l1.4,2c.43.67.83,1.25,1.28,2a36.42,36.42,0,0,1,3.76,8.3,32.34,32.34,0,0,1,1.48,8,25.11,25.11,0,0,1-.52,6.85,20,20,0,0,1-1.75,5,18.23,18.23,0,0,1-1.79,2.84Z"/><path class="cls-2" d="M235.72,170.93l.2,1.19c.14.77.31,1.92.59,3.35s.66,3.14,1.25,5.08c.28,1,.55,2,1,3.06s.71,2.2,1.22,3.34.93,2.34,1.53,3.54c.28.6.57,1.22.85,1.84l1,1.86c1.29,2.51,2.87,5.05,4.52,7.66s3.57,5.19,5.46,7.86l5.9,8c2,2.73,3.86,5.54,5.59,8.41a49.92,49.92,0,0,1,4.34,8.92,34.28,34.28,0,0,1,2.08,9.12,30.65,30.65,0,0,1-.41,8.34c-.12.63-.21,1.26-.35,1.86s-.32,1.17-.48,1.73-.3,1.11-.48,1.63-.38,1-.57,1.5a43.52,43.52,0,0,1-2.18,4.87c-.68,1.31-1.32,2.28-1.71,3l-.62,1,.46-1.12c.29-.73.75-1.78,1.27-3.14s1.12-3,1.58-5l.4-1.5c.13-.52.2-1.06.3-1.61s.21-1.11.31-1.69.12-1.18.19-1.79a33.24,33.24,0,0,0-.16-7.81,36.25,36.25,0,0,0-2.34-8.35A54.74,54.74,0,0,0,262,227.8c-1.69-2.75-3.58-5.46-5.54-8.14l-5.81-8.11c-1.91-2.71-3.69-5.45-5.33-8.17a76.66,76.66,0,0,1-4.27-8.12l-.88-2-.76-1.95c-.52-1.27-.89-2.55-1.28-3.76s-.68-2.4-1-3.52-.48-2.21-.66-3.22a53,53,0,0,1-.68-5.29c-.13-1.46-.09-2.62-.13-3.4S235.72,170.93,235.72,170.93Z"/><path class="cls-2" d="M247.43,274.78l.85-.95,1-1.14L250,272c.21-.27.42-.57.65-.87.45-.62,1-1.28,1.5-2s1-1.63,1.54-2.54.94-2,1.4-3l.58-1.71.3-.88c.07-.31.13-.62.2-.93.13-.63.29-1.26.41-1.91s.14-1.34.22-2a18.13,18.13,0,0,0,.1-2.1,17.54,17.54,0,0,0,0-2.17,44.45,44.45,0,0,0-1.54-9.14,87.32,87.32,0,0,0-3.2-9.52c-1.23-3.22-2.64-6.44-4.06-9.67l-4.18-9.71c-1.38-3.22-2.61-6.45-3.75-9.6-.57-1.58-1.09-3.14-1.58-4.68s-.93-3.06-1.29-4.56-.77-2.94-1-4.37c-.14-.71-.27-1.41-.41-2.1s-.2-1.37-.3-2-.19-1.32-.28-2-.11-1.27-.16-1.88c-.1-1.22-.19-2.38-.19-3.47s-.07-2.11,0-3,.11-1.8.16-2.58a16.25,16.25,0,0,1,.22-2.07c.09-.6.16-1.11.22-1.52.12-.82.18-1.26.18-1.26s0,.44,0,1.28-.06,2,0,3.59c0,.77.09,1.62.14,2.55s.2,1.92.31,3,.29,2.19.51,3.36c.1.59.2,1.19.31,1.81s.28,1.24.42,1.88.29,1.29.44,2,.36,1.33.55,2c.35,1.37.79,2.76,1.24,4.2.91,2.87,2,5.84,3.22,8.9s2.59,6.17,4,9.36l4.28,9.65c2.79,6.52,5.56,13.17,7,19.82a41.2,41.2,0,0,1,1.18,9.77,28,28,0,0,1-1.33,8.76c-.1.33-.2.65-.29,1l-.39.92-.76,1.76c-.59,1.1-1.2,2.11-1.77,3.05l-1.85,2.46c-.63.72-1.25,1.34-1.78,1.91l-.76.81-.74.63-1.17,1C247.77,274.49,247.43,274.78,247.43,274.78Z"/><path class="cls-2" d="M285.79,227.31s-.47-1.14-1.3-3.12l-.77-1.58-.43-.89c-.17-.3-.34-.61-.53-.93a42.64,42.64,0,0,0-2.62-4.16,48.35,48.35,0,0,0-3.68-4.46L275.39,211l-1.16-1.1c-.77-.75-1.61-1.46-2.46-2.19-1.72-1.44-3.58-2.81-5.53-4.17s-4-2.66-6.05-3.93l-6.2-3.84c-2.07-1.25-4.06-2.61-6-3.95a46.29,46.29,0,0,1-5.27-4.28,26.34,26.34,0,0,1-4-4.68,20.93,20.93,0,0,1-1.36-2.39l-.53-1.16-.39-1.14a12.17,12.17,0,0,1-.54-2.09,10.52,10.52,0,0,1-.24-1.8,13.29,13.29,0,0,1,0-2.52c0-.58,0-.88,0-.88s0,.3.14.88a17.09,17.09,0,0,0,.49,2.42,10.67,10.67,0,0,0,.51,1.66,14.36,14.36,0,0,0,.78,1.87c.16.32.33.65.5,1s.42.65.63,1a21.81,21.81,0,0,0,1.48,2,30.57,30.57,0,0,0,4.11,4,63.19,63.19,0,0,0,5.27,3.73c1.9,1.23,3.94,2.39,6,3.63s4.19,2.47,6.29,3.76,4.17,2.68,6.15,4.13a59.23,59.23,0,0,1,5.6,4.58c.85.82,1.71,1.59,2.46,2.46l1.13,1.25,1,1.28a37.12,37.12,0,0,1,3.42,5,32.45,32.45,0,0,1,2.17,4.64,33.56,33.56,0,0,1,1.21,3.74c.27,1,.39,1.88.51,2.45S285.79,227.31,285.79,227.31Z"/><path class="cls-2" d="M292,206.83s-.29.16-.84.42a11,11,0,0,1-2.56.8,14.18,14.18,0,0,1-9.53-1.64,16.73,16.73,0,0,1-5-4.33,20.88,20.88,0,0,1-3.5-6.55,42.75,42.75,0,0,1-1.6-7.56,52,52,0,0,0-1.38-7.37c-.08-.3-.17-.58-.26-.87l-.12-.39-.17-.45c-.22-.64-.47-1.13-.7-1.66a21.8,21.8,0,0,0-1.83-3,28.11,28.11,0,0,0-2.29-2.68,22.16,22.16,0,0,0-2.63-2.23,21.17,21.17,0,0,0-5.86-2.93,21.74,21.74,0,0,0-5.86-.94A22.91,22.91,0,0,0,238.9,167a24.07,24.07,0,0,0-2.37,1.1l-.82.45.72-.6a19.1,19.1,0,0,1,2.18-1.53,21.18,21.18,0,0,1,9.16-2.91,20.54,20.54,0,0,1,6.57.47,21.26,21.26,0,0,1,6.82,2.89A22.87,22.87,0,0,1,267,172.3a25.61,25.61,0,0,1,2.18,3.52c.31.65.63,1.33.84,1.91l.18.45.18.54c.11.33.23.66.31,1a54.18,54.18,0,0,1,1.36,7.84,50.05,50.05,0,0,0,1.22,7.14,20.53,20.53,0,0,0,2.7,5.94,16.6,16.6,0,0,0,4.09,4.21,14.45,14.45,0,0,0,4.52,2.1,13.83,13.83,0,0,0,3.92.47,12.53,12.53,0,0,0,2.57-.33C291.67,206.93,292,206.83,292,206.83Z"/><path class="cls-2" d="M286.91,195.75a5.59,5.59,0,0,1-.76.27,5.92,5.92,0,0,1-2.32.19,8.1,8.1,0,0,1-3.45-1.27,11.64,11.64,0,0,1-3.45-3.36,12.34,12.34,0,0,1-.72-1.18c-.11-.21-.22-.41-.32-.65l-.28-.61a23.9,23.9,0,0,1-.94-2.78c-.54-1.9-.93-3.9-1.38-5.86a27.26,27.26,0,0,0-.83-2.88l-.06-.18s0,.11,0,0v0l0-.05,0-.09-.15-.37-.31-.75c-.2-.49-.43-.86-.64-1.3a18.75,18.75,0,0,0-3.71-4.78,19.81,19.81,0,0,0-5-3.53,20.24,20.24,0,0,0-5.6-1.89,22.78,22.78,0,0,0-2.82-.27c-.4,0-1,0-1.43,0s-.91,0-1.36.08a42.39,42.39,0,0,0-5.15.76,58.84,58.84,0,0,0-7.62,2.2c-1.82.65-2.86,1.08-2.86,1.08l.66-.45c.44-.29,1.07-.73,1.92-1.21a40.34,40.34,0,0,1,7.4-3.41,33.11,33.11,0,0,1,5.35-1.37c.48-.09,1-.15,1.51-.22s.93-.12,1.53-.13,1.08-.06,1.63,0,1.1.06,1.65.13a21,21,0,0,1,6.58,1.89,23.05,23.05,0,0,1,5.84,4,21.9,21.9,0,0,1,4.26,5.69c.25.54.56,1.12.76,1.64l.27.76.13.38.09.25.06.21a29,29,0,0,1,.75,3.24c.4,2.1.59,4.08.93,5.89.17.9.39,1.77.61,2.55.07.21.14.43.2.63s.13.37.2.55a11.37,11.37,0,0,0,.48,1.06,9.87,9.87,0,0,0,5.43,5,5.86,5.86,0,0,0,3,.18Z"/><ellipse class="cls-1" cx="236.63" cy="162.89" rx="37.97" ry="17.73"/><ellipse class="cls-2" cx="236.63" cy="162.89" rx="31.67" ry="14.79"/><path class="cls-2" d="M236.63,178.15a41.72,41.72,0,0,1-32-15l-.25-.3.25-.3a41.77,41.77,0,0,1,64.06,0l.25.3-.25.3A41.77,41.77,0,0,1,236.63,178.15Zm-31.07-15.26a40.83,40.83,0,0,0,62.12,0,40.83,40.83,0,0,0-62.12,0Z"/><ellipse class="cls-1" cx="236.63" cy="162.89" rx="22.23" ry="10.38"/><path class="cls-3" d="M202.65,23.29a25.54,25.54,0,0,0,39.54,0,25.54,25.54,0,0,0-39.54,0Zm19.77,10.13a26.48,26.48,0,0,1-20.55-9.89l-.19-.24.19-.24a26.29,26.29,0,0,1,41.1,0l.19.24-.19.24A26.48,26.48,0,0,1,222.42,33.42Z"/><path class="cls-3" d="M209.27,23.29a17.05,17.05,0,0,0,26.29,0,17.05,17.05,0,0,0-26.29,0Zm13.15,6.94a17.94,17.94,0,0,1-13.93-6.7l-.19-.24.19-.24a17.83,17.83,0,0,1,27.86,0l.19.24-.19.24A17.94,17.94,0,0,1,222.42,30.23Z"/><path class="cls-3" d="M215.9,23.29a8.59,8.59,0,0,0,13,0,8.59,8.59,0,0,0-13,0ZM222.42,27a9.41,9.41,0,0,1-7.31-3.52l-.19-.24.19-.24a9.35,9.35,0,0,1,14.62,0l.19.24-.19.24A9.41,9.41,0,0,1,222.42,27Z"/><path class="cls-3" d="M175.38,23.29a25.54,25.54,0,0,0,39.54,0,25.54,25.54,0,0,0-39.54,0Zm19.77,10.13a26.48,26.48,0,0,1-20.55-9.89l-.19-.24.19-.24a26.29,26.29,0,0,1,41.1,0l.19.24-.19.24A26.48,26.48,0,0,1,195.15,33.42Z"/><path class="cls-3" d="M182,23.29a17,17,0,0,0,26.28,0,17,17,0,0,0-26.28,0Zm13.15,6.94a17.94,17.94,0,0,1-13.93-6.7l-.19-.24.19-.24a17.83,17.83,0,0,1,27.86,0l.19.24-.19.24A17.94,17.94,0,0,1,195.15,30.23Z"/><path class="cls-3" d="M188.63,23.29a8.59,8.59,0,0,0,13,0,8.59,8.59,0,0,0-13,0ZM195.15,27a9.41,9.41,0,0,1-7.31-3.52l-.19-.24.19-.24a9.35,9.35,0,0,1,14.62,0l.19.24-.19.24A9.42,9.42,0,0,1,195.15,27Z"/><path class="cls-3" d="M148.54,23.81a24.31,24.31,0,0,0,19.33,8.85,25.71,25.71,0,0,0,19.77-9.37,25.71,25.71,0,0,0-19.77-9.37C159.57,13.91,152.37,17.61,148.54,23.81Zm19.33,9.61a25.05,25.05,0,0,1-20.09-9.34l-.17-.21.14-.23c3.93-6.57,11.45-10.49,20.12-10.49A26.48,26.48,0,0,1,188.42,23l.19.24-.19.24A26.43,26.43,0,0,1,167.87,33.42Z"/><path class="cls-3" d="M155,23.55a16.48,16.48,0,0,0,12.93,5.93A17.14,17.14,0,0,0,181,23.29a17.15,17.15,0,0,0-13.14-6.19A15.33,15.33,0,0,0,155,23.55Zm12.92,6.68a17.23,17.23,0,0,1-13.7-6.43l-.18-.22.17-.23a16.09,16.09,0,0,1,13.71-7,17.94,17.94,0,0,1,13.93,6.7l.19.24-.19.24A17.93,17.93,0,0,1,167.87,30.23Z"/><path class="cls-3" d="M161.35,23.29a8.59,8.59,0,0,0,13,0,8.59,8.59,0,0,0-13,0ZM167.87,27a9.41,9.41,0,0,1-7.31-3.52l-.19-.24.19-.24a9.35,9.35,0,0,1,14.62,0l.19.24-.19.24A9.39,9.39,0,0,1,167.87,27Z"/><path class="cls-3" d="M229.92,23.29a25.54,25.54,0,0,0,39.54,0,25.54,25.54,0,0,0-39.54,0Zm19.77,10.13a26.48,26.48,0,0,1-20.55-9.89l-.19-.24.19-.24a26.29,26.29,0,0,1,41.1,0l.19.24-.19.24A26.47,26.47,0,0,1,249.69,33.42Z"/><path class="cls-3" d="M236.55,23.29a17.05,17.05,0,0,0,26.29,0,17.05,17.05,0,0,0-26.29,0Zm13.14,6.94a17.94,17.94,0,0,1-13.93-6.7l-.19-.24.19-.24a17.83,17.83,0,0,1,27.86,0l.19.24-.19.24A17.93,17.93,0,0,1,249.69,30.23Z"/><path class="cls-3" d="M243.17,23.29a8.59,8.59,0,0,0,13,0,8.59,8.59,0,0,0-13,0ZM249.69,27a9.41,9.41,0,0,1-7.31-3.52l-.19-.24.19-.24A9.35,9.35,0,0,1,257,23l.19.24-.19.24A9.39,9.39,0,0,1,249.69,27Z"/><path class="cls-3" d="M257.2,23.29a25.54,25.54,0,0,0,39.54,0,25.54,25.54,0,0,0-39.54,0ZM277,33.42a26.48,26.48,0,0,1-20.55-9.89l-.19-.24.19-.24a26.29,26.29,0,0,1,41.1,0l.19.24-.19.24A26.48,26.48,0,0,1,277,33.42Z"/><path class="cls-3" d="M263.82,23.29a17,17,0,0,0,26.28,0,17,17,0,0,0-26.28,0ZM277,30.23A17.94,17.94,0,0,1,263,23.53l-.19-.24.19-.24a17.83,17.83,0,0,1,27.86,0l.19.24-.19.24A17.94,17.94,0,0,1,277,30.23Z"/><path class="cls-3" d="M270.45,23.29a8.59,8.59,0,0,0,13,0,8.59,8.59,0,0,0-13,0ZM277,27a9.39,9.39,0,0,1-7.31-3.52l-.19-.24.19-.24a9.35,9.35,0,0,1,14.62,0l.19.24-.19.24A9.42,9.42,0,0,1,277,27Z"/><path class="cls-3" d="M283.57,23.29a25.71,25.71,0,0,0,19.77,9.37,24.29,24.29,0,0,0,19.34-8.86c-3.12-5.92-10.85-9.89-19.34-9.89A25.72,25.72,0,0,0,283.57,23.29Zm19.77,10.13a26.48,26.48,0,0,1-20.55-9.89l-.19-.24.19-.24a26.45,26.45,0,0,1,20.55-9.89c8.87,0,17,4.23,20.13,10.52l.11.22-.15.19A25.07,25.07,0,0,1,303.34,33.42Z"/><path class="cls-3" d="M290.2,23.29a17.16,17.16,0,0,0,13.15,6.19,16.48,16.48,0,0,0,12.93-5.93c-2.39-3.92-7.44-6.44-12.93-6.44A17.12,17.12,0,0,0,290.2,23.29Zm13.14,6.94a17.94,17.94,0,0,1-13.93-6.7l-.19-.24.19-.24a17.94,17.94,0,0,1,13.93-6.7c5.85,0,11.22,2.75,13.72,7l.15.23-.17.21A17.22,17.22,0,0,1,303.34,30.23Z"/><path class="cls-3" d="M296.82,23.29a8.59,8.59,0,0,0,13,0,8.59,8.59,0,0,0-13,0ZM303.34,27A9.41,9.41,0,0,1,296,23.52l-.19-.24L296,23a9.35,9.35,0,0,1,14.62,0l.19.24-.19.24A9.39,9.39,0,0,1,303.34,27Z"/><path class="cls-3" d="M317.23,73.34a27.41,27.41,0,0,0,0,40.76,27.41,27.41,0,0,0,0-40.76Zm0,41.76-.25-.21a28.14,28.14,0,0,1,0-42.32l.25-.21.25.21a28.14,28.14,0,0,1,0,42.32Z"/><path class="cls-3" d="M317.23,80.17a18.32,18.32,0,0,0,0,27.1,18.32,18.32,0,0,0,0-27.1Zm0,28.1-.25-.21a19.07,19.07,0,0,1,0-28.68l.25-.21.25.21a19.07,19.07,0,0,1,0,28.68Z"/><path class="cls-3" d="M317.23,87a9.24,9.24,0,0,0,0,13.44,9.24,9.24,0,0,0,0-13.44Zm0,14.45-.25-.21a10,10,0,0,1,0-15l.25-.21.25.21a10,10,0,0,1,0,15Z"/><path class="cls-3" d="M317.23,45.23a27.41,27.41,0,0,0,0,40.76,27.41,27.41,0,0,0,0-40.76Zm0,41.76-.25-.21a28.14,28.14,0,0,1,0-42.32l.25-.21.25.21a28.14,28.14,0,0,1,0,42.32Z"/><path class="cls-3" d="M317.23,52.06a18.32,18.32,0,0,0,0,27.1,18.32,18.32,0,0,0,0-27.1Zm0,28.1L317,80a19.07,19.07,0,0,1,0-28.68l.25-.21.25.21a19.07,19.07,0,0,1,0,28.68Z"/><path class="cls-3" d="M317.23,58.89a9.24,9.24,0,0,0,0,13.44,9.24,9.24,0,0,0,0-13.44Zm0,14.45-.25-.21a10,10,0,0,1,0-15l.25-.21.25.21a10,10,0,0,1,0,15Z"/><path class="cls-3" d="M316.63,17.67c-5.63,5-8.48,11.64-8.48,19.83a27.21,27.21,0,0,0,9.08,20.38,27.16,27.16,0,0,0,9.08-20.38C326.31,28.85,322.61,21.28,316.63,17.67Zm.6,41.21-.25-.21a27.91,27.91,0,0,1-9.59-21.16c0-8.4,3.09-15.52,8.95-20.58l.2-.18.23.14c6.35,3.69,10.29,11.59,10.29,20.63a27.92,27.92,0,0,1-9.59,21.16Z"/><path class="cls-3" d="M316.93,24.22a17.18,17.18,0,0,0-5.69,13.28,18.17,18.17,0,0,0,6,13.55,18.17,18.17,0,0,0,6-13.55C323.22,31.89,320.84,26.89,316.93,24.22Zm.3,27.84-.25-.21a18.92,18.92,0,0,1-6.5-14.34,18.11,18.11,0,0,1,6.18-14l.23-.19.24.17c4.26,2.78,6.85,8.1,6.85,14.07a18.92,18.92,0,0,1-6.5,14.34Z"/><path class="cls-3" d="M317.23,30.78a9.24,9.24,0,0,0,0,13.44,9.24,9.24,0,0,0,0-13.44Zm0,14.45L317,45a10,10,0,0,1,0-15l.25-.21.25.21a10,10,0,0,1,0,15Z"/><path class="cls-3" d="M317.23,101.45a27.41,27.41,0,0,0,0,40.76,27.41,27.41,0,0,0,0-40.76Zm0,41.75L317,143a28.14,28.14,0,0,1,0-42.32l.25-.21.25.21a28.14,28.14,0,0,1,0,42.32Z"/><path class="cls-3" d="M317.23,108.28a18.32,18.32,0,0,0,0,27.1,18.32,18.32,0,0,0,0-27.1Zm0,28.1-.25-.21a19.07,19.07,0,0,1,0-28.68l.25-.21.25.21a19.07,19.07,0,0,1,0,28.68Z"/><path class="cls-3" d="M317.23,115.1a9.24,9.24,0,0,0,0,13.44,9.24,9.24,0,0,0,0-13.44Zm0,14.46-.25-.21a10,10,0,0,1,0-15l.25-.21.25.21a10,10,0,0,1,0,15Z"/><path class="cls-3" d="M317.23,129.56a27.41,27.41,0,0,0,0,40.76,27.41,27.41,0,0,0,0-40.76Zm0,41.75-.25-.21a28.14,28.14,0,0,1,0-42.32l.25-.21.25.21a28.14,28.14,0,0,1,0,42.32Z"/><path class="cls-3" d="M317.23,136.39a18.32,18.32,0,0,0,0,27.1,18.32,18.32,0,0,0,0-27.1Zm0,28.1-.25-.21a19.07,19.07,0,0,1,0-28.68l.25-.21.25.21a19.07,19.07,0,0,1,0,28.68Z"/><path class="cls-3" d="M317.23,143.21a9.24,9.24,0,0,0,0,13.44,9.24,9.24,0,0,0,0-13.44Zm0,14.45-.25-.21a10,10,0,0,1,0-15l.25-.21.25.21a10,10,0,0,1,0,15Z"/><path class="cls-3" d="M317.23,157.31a27.41,27.41,0,0,0,0,40.76,27.41,27.41,0,0,0,0-40.76Zm0,41.76-.25-.21a28.14,28.14,0,0,1,0-42.32l.25-.21.25.21a28.14,28.14,0,0,1,0,42.32Z"/><path class="cls-3" d="M317.23,164.14a18.32,18.32,0,0,0,0,27.1,18.32,18.32,0,0,0,0-27.1Zm0,28.1L317,192a19.07,19.07,0,0,1,0-28.68l.25-.21.25.21a19.07,19.07,0,0,1,0,28.68Z"/><path class="cls-3" d="M317.23,171a9.24,9.24,0,0,0,0,13.44,9.24,9.24,0,0,0,0-13.44Zm0,14.45-.25-.21a10,10,0,0,1,0-15l.25-.21.25.21a10,10,0,0,1,0,15Z"/><path class="cls-3" d="M317.23,185.07a27.41,27.41,0,0,0,0,40.76,27.41,27.41,0,0,0,0-40.76Zm0,41.75-.25-.21a28.14,28.14,0,0,1,0-42.32l.25-.21.25.21a28.14,28.14,0,0,1,0,42.32Z"/><path class="cls-3" d="M317.23,191.89a18.32,18.32,0,0,0,0,27.1,18.32,18.32,0,0,0,0-27.1Zm0,28.11-.25-.21a19.07,19.07,0,0,1,0-28.68l.25-.21.25.21a19.07,19.07,0,0,1,0,28.68Z"/><path class="cls-3" d="M317.23,198.72a9.24,9.24,0,0,0,0,13.44,9.24,9.24,0,0,0,0-13.44Zm0,14.45L317,213a10,10,0,0,1,0-15l.25-.21.25.21a10,10,0,0,1,0,15Z"/><path class="cls-3" d="M317.23,212.82a27.41,27.41,0,0,0,0,40.76,27.41,27.41,0,0,0,0-40.76Zm0,41.76-.25-.21a28.14,28.14,0,0,1,0-42.32l.25-.21.25.21a28.14,28.14,0,0,1,0,42.32Z"/><path class="cls-3" d="M317.23,219.65a18.32,18.32,0,0,0,0,27.1,18.32,18.32,0,0,0,0-27.1Zm0,28.1-.25-.21a19.07,19.07,0,0,1,0-28.68l.25-.21.25.21a19.07,19.07,0,0,1,0,28.68Z"/><path class="cls-3" d="M317.23,226.48a9.24,9.24,0,0,0,0,13.44,9.24,9.24,0,0,0,0-13.44Zm0,14.45-.25-.21a10,10,0,0,1,0-15l.25-.21.25.21a10,10,0,0,1,0,15Z"/><path class="cls-3" d="M317.23,240.58a27.41,27.41,0,0,0,0,40.76,27.41,27.41,0,0,0,0-40.76Zm0,41.75-.25-.21a28.14,28.14,0,0,1,0-42.32l.25-.21.25.21a28.14,28.14,0,0,1,0,42.32Z"/><path class="cls-3" d="M317.23,247.4a18.32,18.32,0,0,0,0,27.1,18.32,18.32,0,0,0,0-27.1Zm0,28.11-.25-.21a19.07,19.07,0,0,1,0-28.68l.25-.21.25.21a19.07,19.07,0,0,1,0,28.68Z"/><path class="cls-3" d="M317.23,254.23a9.24,9.24,0,0,0,0,13.44,9.24,9.24,0,0,0,0-13.44Zm0,14.45-.25-.21a10,10,0,0,1,0-15l.25-.21.25.21a10,10,0,0,1,0,15Z"/><path class="cls-3" d="M317.23,268.33a27.16,27.16,0,0,0-9.08,20.38c0,8.19,2.83,14.84,8.42,19.78,6.38-4.32,9.75-11.15,9.75-19.78A27.24,27.24,0,0,0,317.23,268.33Zm-.73,41.1-.22-.19c-5.9-5.1-8.9-12-8.9-20.54A27.92,27.92,0,0,1,317,267.54l.25-.21.25.21a27.91,27.91,0,0,1,9.59,21.16c0,9-3.57,16.11-10.33,20.57Z"/><path class="cls-3" d="M317.23,275.16a18.17,18.17,0,0,0-6,13.55A17.16,17.16,0,0,0,316.9,302c4.11-3,6.33-7.65,6.33-13.25A18.22,18.22,0,0,0,317.23,275.16Zm-.37,27.77-.23-.2a17.91,17.91,0,0,1-6.15-14,18.92,18.92,0,0,1,6.5-14.34l.25-.21.25.21A18.92,18.92,0,0,1,324,288.7c0,5.95-2.41,10.88-6.87,14Z"/><path class="cls-3" d="M317.23,282a9.24,9.24,0,0,0,0,13.44,9.24,9.24,0,0,0,0-13.44Zm0,14.46-.25-.21a10,10,0,0,1,0-15l.25-.21.25.21a10,10,0,0,1,0,15Z"/><path class="cls-3" d="M229.14,302.93a25.54,25.54,0,0,0,39.54,0,25.54,25.54,0,0,0-39.54,0Zm19.77,10.13a26.48,26.48,0,0,1-20.55-9.89l-.19-.24.19-.24a26.29,26.29,0,0,1,41.1,0l.19.24-.19.24A26.47,26.47,0,0,1,248.91,313.06Z"/><path class="cls-3" d="M235.77,302.93a17,17,0,0,0,26.28,0,17,17,0,0,0-26.28,0Zm13.14,6.94a17.94,17.94,0,0,1-13.93-6.7l-.19-.24.19-.24a17.83,17.83,0,0,1,27.86,0l.19.24-.19.24A17.93,17.93,0,0,1,248.91,309.87Z"/><path class="cls-3" d="M242.39,302.93a8.59,8.59,0,0,0,13,0,8.59,8.59,0,0,0-13,0Zm6.52,3.75a9.39,9.39,0,0,1-7.31-3.52l-.19-.24.19-.24a9.35,9.35,0,0,1,14.62,0l.19.24-.19.24A9.39,9.39,0,0,1,248.91,306.68Z"/><path class="cls-3" d="M256.42,302.93a25.54,25.54,0,0,0,39.54,0,25.54,25.54,0,0,0-39.54,0Zm19.76,10.13a26.48,26.48,0,0,1-20.55-9.89l-.19-.24.19-.24a26.29,26.29,0,0,1,41.1,0l.19.24-.19.24A26.45,26.45,0,0,1,276.18,313.06Z"/><path class="cls-3" d="M263,302.93a17.05,17.05,0,0,0,26.29,0,17.05,17.05,0,0,0-26.29,0Zm13.14,6.94a17.94,17.94,0,0,1-13.93-6.7l-.19-.24.19-.24a17.83,17.83,0,0,1,27.86,0l.19.24-.19.24A17.91,17.91,0,0,1,276.18,309.87Z"/><path class="cls-3" d="M269.66,302.93a8.59,8.59,0,0,0,13,0,8.59,8.59,0,0,0-13,0Zm6.52,3.75a9.39,9.39,0,0,1-7.31-3.52l-.19-.24.19-.24a9.35,9.35,0,0,1,14.62,0l.19.24-.19.24A9.39,9.39,0,0,1,276.18,306.68Z"/><path class="cls-3" d="M283.69,302.93a25.71,25.71,0,0,0,19.77,9.37,22.59,22.59,0,0,0,19.25-10,24.17,24.17,0,0,0-19.25-8.75A25.66,25.66,0,0,0,283.69,302.93Zm19.77,10.13a26.48,26.48,0,0,1-20.55-9.89l-.19-.24.19-.24a26.45,26.45,0,0,1,20.55-9.89,24.94,24.94,0,0,1,20,9.25l.17.21-.15.23A23.34,23.34,0,0,1,303.46,313.06Z"/><path class="cls-3" d="M290.31,302.93a17.15,17.15,0,0,0,13.14,6.19,15.52,15.52,0,0,0,12.88-6.5,16.41,16.41,0,0,0-12.88-5.88A17.15,17.15,0,0,0,290.31,302.93Zm13.15,6.94a17.94,17.94,0,0,1-13.93-6.7l-.19-.24.19-.24a17.94,17.94,0,0,1,13.93-6.7,17.17,17.17,0,0,1,13.66,6.38l.18.23-.17.23A16.34,16.34,0,0,1,303.46,309.87Z"/><path class="cls-3" d="M296.94,302.93a8.59,8.59,0,0,0,13,0,8.59,8.59,0,0,0-13,0Zm6.52,3.75a9.41,9.41,0,0,1-7.31-3.52l-.19-.24.19-.24a9.35,9.35,0,0,1,14.62,0l.19.24-.19.24A9.41,9.41,0,0,1,303.46,306.68Z"/><path class="cls-3" d="M201.87,302.93a25.54,25.54,0,0,0,39.54,0,25.54,25.54,0,0,0-39.54,0Zm19.77,10.13a26.48,26.48,0,0,1-20.55-9.89l-.19-.24.19-.24a26.29,26.29,0,0,1,41.1,0l.19.24-.19.24A26.48,26.48,0,0,1,221.64,313.06Z"/><path class="cls-3" d="M208.49,302.93a17.06,17.06,0,0,0,26.3,0,17.06,17.06,0,0,0-26.3,0Zm13.15,6.94a17.94,17.94,0,0,1-13.93-6.7l-.19-.24.19-.24a17.83,17.83,0,0,1,27.86,0l.19.24-.19.24A17.94,17.94,0,0,1,221.64,309.87Z"/><path class="cls-3" d="M215.12,302.93a8.59,8.59,0,0,0,13,0,8.59,8.59,0,0,0-13,0Zm6.52,3.75a9.39,9.39,0,0,1-7.31-3.52l-.19-.24.19-.24a9.35,9.35,0,0,1,14.62,0l.19.24-.19.24A9.41,9.41,0,0,1,221.64,306.68Z"/><path class="cls-3" d="M174.6,302.93a25.54,25.54,0,0,0,39.54,0,25.54,25.54,0,0,0-39.54,0Zm19.77,10.13a26.48,26.48,0,0,1-20.55-9.89l-.19-.24.19-.24a26.29,26.29,0,0,1,41.1,0l.19.24-.19.24A26.48,26.48,0,0,1,194.37,313.06Z"/><path class="cls-3" d="M181.22,302.93a17,17,0,0,0,26.28,0,17,17,0,0,0-26.28,0Zm13.15,6.94a17.94,17.94,0,0,1-13.93-6.7l-.19-.24.19-.24a17.83,17.83,0,0,1,27.86,0l.19.24-.19.24A17.94,17.94,0,0,1,194.37,309.87Z"/><path class="cls-3" d="M187.84,302.93a8.59,8.59,0,0,0,13,0,8.59,8.59,0,0,0-13,0Zm6.53,3.75a9.39,9.39,0,0,1-7.31-3.52l-.19-.24.19-.24a9.35,9.35,0,0,1,14.62,0l.19.24-.19.24A9.42,9.42,0,0,1,194.37,306.68Z"/><path class="cls-3" d="M148.65,302.42c3.12,5.92,10.85,9.89,19.34,9.89a25.71,25.71,0,0,0,19.77-9.37A25.69,25.69,0,0,0,168,293.57,24.22,24.22,0,0,0,148.65,302.42ZM168,313.06c-8.87,0-17-4.23-20.13-10.52l-.11-.22.15-.19A25,25,0,0,1,168,292.8a26.48,26.48,0,0,1,20.55,9.89l.19.24-.19.24A26.45,26.45,0,0,1,168,313.06Z"/><path class="cls-3" d="M155.06,302.67c2.39,3.92,7.44,6.44,12.93,6.44a17.14,17.14,0,0,0,13.14-6.19A17.15,17.15,0,0,0,168,296.73,16.52,16.52,0,0,0,155.06,302.67Zm12.93,7.2c-5.85,0-11.22-2.75-13.72-7l-.15-.23.17-.21A17.2,17.2,0,0,1,168,296a17.94,17.94,0,0,1,13.93,6.7l.19.24-.19.24A17.91,17.91,0,0,1,168,309.87Z"/><path class="cls-3" d="M161.47,302.93a8.59,8.59,0,0,0,13,0,8.59,8.59,0,0,0-13,0Zm6.52,3.75a9.39,9.39,0,0,1-7.31-3.52l-.19-.24.19-.24a9.35,9.35,0,0,1,14.62,0l.19.24-.19.24A9.41,9.41,0,0,1,168,306.68Z"/><path class="cls-3" d="M154.1,212.12a27.41,27.41,0,0,0,0,40.76,27.41,27.41,0,0,0,0-40.76Zm0,41.76-.25-.21a28.15,28.15,0,0,1,0-42.33l.25-.21.25.21a28.15,28.15,0,0,1,0,42.33Z"/><path class="cls-3" d="M154.1,219a18.32,18.32,0,0,0,0,27.1,18.32,18.32,0,0,0,0-27.1Zm0,28.1-.25-.21a19.07,19.07,0,0,1,0-28.68l.25-.21.25.21a19.07,19.07,0,0,1,0,28.68Z"/><path class="cls-3" d="M154.1,225.78a9.24,9.24,0,0,0,0,13.44,9.24,9.24,0,0,0,0-13.44Zm0,14.45-.25-.21a10,10,0,0,1,0-15l.25-.21.25.21a10,10,0,0,1,0,15Z"/><path class="cls-3" d="M154.1,240.23a27.41,27.41,0,0,0,0,40.76,27.41,27.41,0,0,0,0-40.76Zm0,41.75-.25-.21a28.14,28.14,0,0,1,0-42.32l.25-.21.25.21a28.14,28.14,0,0,1,0,42.32Z"/><path class="cls-3" d="M154.1,247.06a18.32,18.32,0,0,0,0,27.1,18.32,18.32,0,0,0,0-27.1Zm0,28.1-.25-.21a19.07,19.07,0,0,1,0-28.68l.25-.21.25.21a19.07,19.07,0,0,1,0,28.68Z"/><path class="cls-3" d="M154.1,253.88a9.24,9.24,0,0,0,0,13.44,9.24,9.24,0,0,0,0-13.44Zm0,14.46-.25-.21a10,10,0,0,1,0-15l.25-.21.25.21a10,10,0,0,1,0,15Z"/><path class="cls-3" d="M154.1,268.34A27.16,27.16,0,0,0,145,288.72c0,8.65,3.7,16.22,9.69,19.83,5.63-5,8.48-11.64,8.48-19.83A27.17,27.17,0,0,0,154.1,268.34Zm.69,41.14-.23-.14c-6.35-3.69-10.29-11.59-10.29-20.63a27.92,27.92,0,0,1,9.59-21.16l.25-.21.25.21A27.91,27.91,0,0,1,164,288.71c0,8.4-3.09,15.52-8.95,20.58Z"/><path class="cls-3" d="M154.1,275.17a18.17,18.17,0,0,0-6,13.55c0,5.61,2.38,10.61,6.29,13.28a17.18,17.18,0,0,0,5.69-13.28A18.1,18.1,0,0,0,154.1,275.17Zm.35,27.79-.24-.17c-4.26-2.78-6.85-8.1-6.85-14.07a18.92,18.92,0,0,1,6.5-14.34l.25-.21.25.21a18.92,18.92,0,0,1,6.5,14.34,18.11,18.11,0,0,1-6.18,14Z"/><path class="cls-3" d="M154.1,282a9.24,9.24,0,0,0,0,13.44,9.24,9.24,0,0,0,0-13.44Zm0,14.45-.25-.21a10,10,0,0,1,0-15l.25-.21.25.21a10,10,0,0,1,0,15Z"/><path class="cls-3" d="M154.1,184a27.41,27.41,0,0,0,0,40.76,27.41,27.41,0,0,0,0-40.76Zm0,41.76-.25-.21a28.14,28.14,0,0,1,0-42.32l.25-.21.25.21a28.14,28.14,0,0,1,0,42.32Z"/><path class="cls-3" d="M154.1,190.84a18.32,18.32,0,0,0,0,27.1,18.32,18.32,0,0,0,0-27.1Zm0,28.1-.25-.21a19.07,19.07,0,0,1,0-28.68l.25-.21.25.21a19.07,19.07,0,0,1,0,28.68Z"/><path class="cls-3" d="M154.1,197.67a9.24,9.24,0,0,0,0,13.44,9.24,9.24,0,0,0,0-13.44Zm0,14.45-.25-.21a10,10,0,0,1,0-15l.25-.21.25.21a10,10,0,0,1,0,15Z"/><path class="cls-3" d="M154.1,155.9a27.41,27.41,0,0,0,0,40.76,27.41,27.41,0,0,0,0-40.76Zm0,41.76-.25-.21a28.15,28.15,0,0,1,0-42.33l.25-.21.25.21a28.15,28.15,0,0,1,0,42.33Z"/><path class="cls-3" d="M154.1,162.73a18.32,18.32,0,0,0,0,27.1,18.32,18.32,0,0,0,0-27.1Zm0,28.11-.25-.21a19.07,19.07,0,0,1,0-28.68l.25-.21.25.21a19.07,19.07,0,0,1,0,28.68Z"/><path class="cls-3" d="M154.1,169.56a9.24,9.24,0,0,0,0,13.44,9.24,9.24,0,0,0,0-13.44Zm0,14.45-.25-.21a10,10,0,0,1,0-15l.25-.21.25.21a10,10,0,0,1,0,15Z"/><path class="cls-3" d="M154.1,128.15a27.41,27.41,0,0,0,0,40.76,27.41,27.41,0,0,0,0-40.76Zm0,41.76-.25-.21a28.14,28.14,0,0,1,0-42.32l.25-.21.25.21a28.14,28.14,0,0,1,0,42.32Z"/><path class="cls-3" d="M154.1,135a18.32,18.32,0,0,0,0,27.1,18.32,18.32,0,0,0,0-27.1Zm0,28.1-.25-.21a19.07,19.07,0,0,1,0-28.68l.25-.21.25.21a19.07,19.07,0,0,1,0,28.68Z"/><path class="cls-3" d="M154.1,141.81a9.24,9.24,0,0,0,0,13.44,9.24,9.24,0,0,0,0-13.44Zm0,14.45-.25-.21a10,10,0,0,1,0-15l.25-.21.25.21a10,10,0,0,1,0,15Z"/><path class="cls-3" d="M154.1,100.4a27.41,27.41,0,0,0,0,40.76,27.41,27.41,0,0,0,0-40.76Zm0,41.75-.25-.21a28.14,28.14,0,0,1,0-42.32l.25-.21.25.21a28.14,28.14,0,0,1,0,42.32Z"/><path class="cls-3" d="M154.1,107.22a18.32,18.32,0,0,0,0,27.1,18.32,18.32,0,0,0,0-27.1Zm0,28.11-.25-.21a19.07,19.07,0,0,1,0-28.68l.25-.21.25.21a19.07,19.07,0,0,1,0,28.68Z"/><path class="cls-3" d="M154.1,114.05a9.24,9.24,0,0,0,0,13.44,9.24,9.24,0,0,0,0-13.44Zm0,14.45-.25-.21a10,10,0,0,1,0-15l.25-.21.25.21a10,10,0,0,1,0,15Z"/><path class="cls-3" d="M154.1,72.64a27.41,27.41,0,0,0,0,40.76,27.41,27.41,0,0,0,0-40.76Zm0,41.76-.25-.21a28.14,28.14,0,0,1,0-42.32l.25-.21.25.21a28.14,28.14,0,0,1,0,42.32Z"/><path class="cls-3" d="M154.1,79.47a18.32,18.32,0,0,0,0,27.1,18.32,18.32,0,0,0,0-27.1Zm0,28.1-.25-.21a19.07,19.07,0,0,1,0-28.68l.25-.21.25.21a19.07,19.07,0,0,1,0,28.68Z"/><path class="cls-3" d="M154.1,86.3a9.24,9.24,0,0,0,0,13.44,9.24,9.24,0,0,0,0-13.44Zm0,14.45-.25-.21a10,10,0,0,1,0-15l.25-.21.25.21a10,10,0,0,1,0,15Z"/><path class="cls-3" d="M154.1,44.89a27.41,27.41,0,0,0,0,40.76,27.41,27.41,0,0,0,0-40.76Zm0,41.75-.25-.21a28.14,28.14,0,0,1,0-42.32l.25-.21.25.21a28.14,28.14,0,0,1,0,42.32Z"/><path class="cls-3" d="M154.1,51.72a18.32,18.32,0,0,0,0,27.1,18.32,18.32,0,0,0,0-27.1Zm0,28.1-.25-.21a19.07,19.07,0,0,1,0-28.68l.25-.21.25.21a19.07,19.07,0,0,1,0,28.68Z"/><path class="cls-3" d="M154.1,58.54a9.24,9.24,0,0,0,0,13.44,9.24,9.24,0,0,0,0-13.44Zm0,14.45-.25-.21a10,10,0,0,1,0-15l.25-.21.25.21a10,10,0,0,1,0,15Z"/><path class="cls-3" d="M154.66,17.63c-8,5.09-9.64,13.6-9.64,19.88a27.2,27.2,0,0,0,9.08,20.38,27.16,27.16,0,0,0,9.08-20.38C163.19,29.43,160.24,22.56,154.66,17.63Zm-.56,41.26-.25-.21a27.91,27.91,0,0,1-9.59-21.17c0-6.53,1.78-15.42,10.24-20.67l.24-.15.21.18c5.89,5.09,9,12.23,9,20.63a28,28,0,0,1-9.59,21.17Z"/><path class="cls-3" d="M154.38,24.21c-4.9,3.4-6.27,8.88-6.27,13.3a18.17,18.17,0,0,0,6,13.55,18.17,18.17,0,0,0,6-13.55A17.35,17.35,0,0,0,154.38,24.21Zm-.28,27.85-.25-.21a18.92,18.92,0,0,1-6.5-14.34c0-4.72,1.51-10.53,6.82-14.09l.24-.18.23.2a18.12,18.12,0,0,1,6.2,14.07,18.92,18.92,0,0,1-6.5,14.34Z"/><path class="cls-3" d="M154.1,30.79a9.24,9.24,0,0,0,0,13.44,9.24,9.24,0,0,0,0-13.44Zm0,14.45-.25-.21a10,10,0,0,1,0-15l.25-.21.25.21a10,10,0,0,1,0,15Z"/><path class="cls-3" d="M148.1,24.65l-.35-.62A15.89,15.89,0,0,0,146.27,22a19.26,19.26,0,0,1-4.53-10.71l-.06-.47.47,0c.33,0,8.11.72,12.83,6.1l.27.3-1.13.86c-2.65,2-4.4,3.33-5.7,5.94Zm-5.53-13a18.33,18.33,0,0,0,4.3,9.86c.43.54.83,1.06,1.19,1.6,1.35-2.39,3.16-3.76,5.61-5.61l.48-.36C150.26,13,144.28,11.86,142.57,11.62Z"/><path class="cls-3" d="M323.44,24.65l-.32-.64c-1.3-2.6-3.05-3.93-5.7-5.93l-1.13-.86.27-.3c4.72-5.38,12.5-6.07,12.83-6.1l.47,0-.06.47A19.16,19.16,0,0,1,325.28,22,17.7,17.7,0,0,0,323.8,24Zm-6-7.54.48.37c2.44,1.85,4.25,3.22,5.6,5.61.36-.54.77-1.06,1.19-1.6a18.37,18.37,0,0,0,4.3-9.86C327.26,11.86,321.28,13,317.4,17.11Z"/><path class="cls-3" d="M141.68,315.34l.06-.47a19.15,19.15,0,0,1,4.53-10.71,16.6,16.6,0,0,0,1.48-2.07l.35-.62.32.64c1.3,2.6,3.05,3.93,5.7,5.94l1.13.86-.27.3c-4.72,5.38-12.5,6.07-12.83,6.1Zm6.38-12.3c-.36.54-.77,1.06-1.19,1.6a18.37,18.37,0,0,0-4.3,9.86c1.72-.23,7.7-1.33,11.58-5.49l-.48-.36C151.22,306.8,149.41,305.42,148.06,303Z"/><path class="cls-3" d="M329.86,315.34l-.47,0c-.33,0-8.11-.72-12.83-6.1l-.27-.3,1.13-.86c2.65-2,4.4-3.33,5.7-5.93l.32-.64.35.62a15.89,15.89,0,0,0,1.48,2.07,19.19,19.19,0,0,1,4.52,10.71ZM317.4,309c3.88,4.17,9.86,5.25,11.58,5.49a18.33,18.33,0,0,0-4.3-9.86c-.43-.54-.83-1.06-1.19-1.6-1.35,2.38-3.16,3.76-5.6,5.61Z"/></g></g></svg>