<svg xmlns="http://www.w3.org/2000/svg" viewBox="0 0 362.13 542.13"><defs><style>.cls-1,.cls-11{fill:#fff;}.cls-1,.cls-12,.cls-13{stroke:#000;}.cls-1{stroke-width:3.13px;}.cls-2,.cls-9{fill:#ff5;}.cls-10,.cls-12,.cls-3,.cls-8{fill:none;}.cls-10,.cls-11,.cls-3,.cls-5,.cls-7,.cls-8,.cls-9{stroke:#55a;}.cls-11,.cls-12,.cls-13,.cls-3,.cls-5,.cls-7,.cls-8,.cls-9{stroke-width:1.98px;}.cls-4,.cls-5{fill:#f55;}.cls-10,.cls-11,.cls-12,.cls-13,.cls-5,.cls-7,.cls-8,.cls-9{stroke-linecap:round;stroke-linejoin:round;}.cls-6,.cls-7{fill:#55a;}.cls-10{stroke-width:2.06px;}</style></defs><title>g9009</title><g id="Layer_2" data-name="Layer 2"><g id="svg2"><g id="g9009"><path id="path9011" class="cls-1" d="M31.5,1.56H330.63A29.88,29.88,0,0,1,360.57,31.5V510.63a29.88,29.88,0,0,1-29.94,29.94H31.5A29.88,29.88,0,0,1,1.56,510.63V31.5A29.88,29.88,0,0,1,31.5,1.56Z"/><path id="path9013" class="cls-2" d="M261.29,303.38l-9.53.67-12.23-2.37-13.46-5.28-11.73-6.62-9-7.52L188.65,261.5l-8.86-12.4-8.33-7.34-16.19-11.9-14-7.48-17.18-5.1L110.7,215.9l-9.71-.18L89.93,219l11.2,19.67,9.53-.68,12.26,2.41,13.43,5.25,11.76,6.66,9,7.47,16.69,20.77L182.66,293l8.33,7.3,16.16,11.91,14,7.51,17.18,5.1,13.43,1.35,9.71.18,11.05-3.23Z"/><path id="path9015" class="cls-3" d="M61.05,31.08h270v360h0"/><path id="path9017" d="M31.08,31.08v5h5v35a5,5,0,1,1-10,0v-5h-5v5a10,10,0,0,0,20,0v-40Z"/><path id="path9019" d="M331.05,511.05v-5h-5v-35a5,5,0,1,1,10,0v5h5v-5a10,10,0,0,0-20,0v40Z"/><path id="path9021" class="cls-2" d="M171.15,185.5,209,216.25,208.74,279l-3.86,2.66-6.81-6.81-10.34-13.89-8.58-12.12-3.86-4.14-4.71-3.86Z"/><path id="path9023" class="cls-2" d="M223.23,294.35l24.84-18,2.37,4.75-21.29,16.86Z"/><path id="path9025" class="cls-2" d="M204.88,281.06,241,257.39,243,262.1l-33.73,22.22Z"/><path id="path9027" class="cls-4" d="M218.2,209.45l-.32,63,24-15.69L238,239l-2.66-17.14-.6-16,.32-8.58Z"/><path id="path9029" d="M208.74,284.32,243,261.53s2.41,6.1,3.54,9.18c.71,1.84,2.09,5.6,2.09,5.6l-25.44,18.35s-6.48-2.12-9.18-4.14c-2.19-1.63-5.31-6.2-5.31-6.2Z"/><path id="path9031" d="M149.07,168.81l59.24,47.26,26.76-17-.25-14,.74-13.25.5-10.49-27.25,18.5-35-28.78-4.5-2.23-2.48-2.27-4-.49-2.27-3.26-3,.78-3-3.76h-3l-2.48-2.27Z"/><path id="path9033" d="M139.08,132.56l-.25,89,6,2.23,5,2.76-.24-89.25-3.26-.5-3.23-3.26-2,.78Z"/><path id="path9035" class="cls-5" d="M261.07,209.31l20.24-10s3.89,11.06,6,16.52,4,11,6.73,16.22a65.14,65.14,0,0,0,6.24,10,102.22,102.22,0,0,0,8,8.22l-.25,78.52s-9.89-12-14-18.49c-3.58-5.71-6.3-11.94-9.25-18-3.82-7.94-7.9-15.77-11-24a166.82,166.82,0,0,1-5-17c-1.52-6-2.87-12-4-18-.81-4.39-1.31-8.86-2-13.25-.57-3.62-1.74-10.77-1.74-10.77Z"/><path id="path9037" class="cls-2" d="M264.83,150.56l27.25,14.74-2.77,10.27,1,10,3,6.73-8,6-13.75,6-10.24,4.25-1-10v-12l.74-14,2.24-15.73Z"/><path id="path9039" class="cls-6" d="M227.55,297.82l22.75-17s4,8.68,6,13c1.63,3.44,5,10.24,5,10.24s-11.09.71-16.51-.24c-6-1.07-17.26-6-17.26-6Z"/><path id="path9041" d="M331.05,383.81l-16.86-14.63.25-279.74,16.61-.11Z"/><path id="path9043" class="cls-6" d="M97.05,149.67l.18,66.83-6.91,2.13S79.13,203,73.39,195.28c-4.19-5.57-8.69-10.92-12.76-16.62-1-1.38-2.84-4.22-2.84-4.22s11.1-8.08,16.8-11.87c4.07-2.66,8.19-5.17,12.4-7.58C90.29,153.11,97.05,149.67,97.05,149.67Z"/><path id="path9045" d="M113.32,141.56,113,215.79s-5.52-.28-8.29-.18-8.5.89-8.5.89l.18-66.83s6.3-3.4,9.53-4.92C108.32,143.58,113.32,141.56,113.32,141.56Z"/><path id="path9047" class="cls-2" d="M206.29,65.2c-7,.11-14.13-.11-21.18.35-5.89.36-11.73,1-17.51,1.92-3.82.6-7.55,1.56-11.34,2.3-.56,4.15-1.2,8.26-1.77,12.37-.6,4.67-1.1,9.32-1.73,14-.5,3.48-.78,7-1.6,10.42-.5,2.06-1.31,4-1.95,6l-2.66.36c-.88-.89-1.45-2.3-2.65-2.66a6.7,6.7,0,0,0-5,.89c-2.13,1.13-3.65,3.22-4.93,5.28a15.72,15.72,0,0,0-2.48,6.55,9.11,9.11,0,0,0,.71,4.43,5.13,5.13,0,0,0,2.13,2.66c1,.46,2.23,0,3.36,0a10.92,10.92,0,0,0,1.74,2.44c1.2,1,2.83,1.31,4.25,1.95.78.89,1.24,2.16,2.3,2.66s2,0,3,0c.89.81,1.53,2,2.66,2.48.92.35,2,0,3,0,1,1.17,1.59,2.91,3,3.54,1,.43,2.23-.14,3.37-.17.88,1.06,1.41,2.58,2.65,3.18,1,.47,2.24,0,3.37,0a26.83,26.83,0,0,0,3.33,2.8,16.19,16.19,0,0,0,4.61,1.95A11,11,0,0,0,185.28,149a17,17,0,0,0,4.22-4.57A30.83,30.83,0,0,0,193,136.6c1.6-4.93,2.09-10.1,3-15.2,1.17-6.63,2-13.33,3.19-20s2.41-13.21,3.69-19.77c1.1-5.49,2.27-11,3.36-16.44Z"/><path id="path9049" class="cls-5" d="M133.05,31.08l20,40s10.17-2.69,15.38-3.54a197.39,197.39,0,0,1,24.63-2.48,256.25,256.25,0,0,1,30,1c11.77,1.06,35,5,35,5l23-40Z"/><path id="path9051" class="cls-7" d="M147.9,32.53l15.17,29.55c6.48-2.27,11.41-2.34,19.7-3.26l-3.9-26.29h-5.74l5.1,22.75c-4.75.32-8.5.28-12.61,1.91L154.49,32.53Z"/><path id="path9053" class="cls-7" d="M187.76,32.53l3.05,25.3c10.06-.92,18.14-1.49,28.21-.46l5.49-24.84h-6.45L215,52.34c-7.9-.46-12.58,0-19.2.49l-2.24-20.3Z"/><path id="path9055" class="cls-7" d="M234.32,32.53l-7.33,25c7.37.64,18.07,1.6,26.08,3.47l13.71-28.52h-6.34L250.05,56.06c-4.46-1.21-12-1.74-16.47-2.38l6.23-21.15Z"/><path id="path9057" class="cls-8" d="M206.08,66.05s-3.47,16.65-5,25c-1.81,10-2.9,20.09-5,30-1.38,6.73-1.59,14-5,20-2.3,4.11-5.42,8.79-10,10s-10.21-.17-13.26-3.57c-2.55-2.87-3.08-7.8-1.73-11.41,1.42-3.94,5.28-8.33,9.46-8.19,4.36.14,9.18,4.89,9.25,9.21,0,3.9-4.18,8.26-8.08,8.51a5.87,5.87,0,0,1-5.64-4.54c-.39-2.8,2.17-6.84,5-6.8,1.7,0,4,2,2.94,4.15"/><path id="path9059" class="cls-8" d="M200.24,65.24c-3,9-3.69,18.07-5.25,27.17s-2,18.25-4.14,27.18c-1.7,7.09-3.62,14.63-6.81,20.76"/><path id="path9061" class="cls-8" d="M193.54,65.24c-2.23,7.79-2.91,16.05-4.15,24.09-1.2,7.87-1.63,15.87-3.15,23.67-1.1,5.67-1.91,11.34-4.32,16.69"/><path id="path9063" class="cls-8" d="M187.59,65.63c-2,7.44-2.59,15.34-3.69,23-1.06,7.51-1.45,15.2-2.8,22.64-1,5.38-1.7,10.84-3.86,15.94"/><path id="path9065" class="cls-8" d="M181.78,66.26c-1.81,7.09-2.34,14.57-3.34,21.9-.95,7.12-1.31,14.39-2.51,21.47-.89,5.14-1.52,10.31-3.47,15.13"/><path id="path9067" class="cls-8" d="M176.07,66.79c-1.77,6.74-2.34,13.86-3.29,20.8s-1.32,13.72-2.56,20.45c-.88,4.89-1.52,9.78-3.47,14.38"/><path id="path9069" class="cls-8" d="M169.69,67.68c-1.73,6.31-2.12,12.58-3,18.85s-1.28,12.76-2.49,19c-.85,4.53-1.45,9.1-3.36,13.39"/><path id="path9071" class="cls-8" d="M163.53,68.6c-1.67,5.74-2.16,11.8-3.05,17.72s-1.2,11.66-2.3,17.4c-.82,4.14-1.42,8.32-3.19,12.26"/><path id="path9073" class="cls-8" d="M156.55,70.55c-1.42,5.14-1.85,10.21-2.59,15.34s-1,10.46-2,15.59c-.68,3.72-1.17,7.48-2.7,11"/><path id="path9075" class="cls-8" d="M176.5,128.27c-1.63-1.1-3.09-3.08-5-3.15-3.22-.11-6.41,2-8.5,4.46a13.86,13.86,0,0,0-3.33,9.68,9.18,9.18,0,0,0,3.29,6.55c1,.71,2,.53,3.58.67"/><path id="path9077" class="cls-8" d="M170,125.05c-1.35-1.49-2.37-2.66-4-2.77-3.22-.17-6.41,2.06-8.5,4.5a13.72,13.72,0,0,0-3.33,9.64c.14,2.45,1.2,5.28,3.29,6.56,1,.6,1.88.7,3.48-.08"/><path id="path9079" class="cls-8" d="M165.12,122.07c-1.63-1.1-3.08-3.08-5-3.15-3.22-.11-6.41,2-8.5,4.5a13.65,13.65,0,0,0-3.33,9.63c.14,2.45,1.2,5.25,3.29,6.56.89.57,1.63.6,3.19.07"/><path id="path9081" class="cls-8" d="M158.39,118.7c-1.24-1.77-2.48-2.65-4.15-2.76-3.19-.14-6.41,2.06-8.5,4.5a14,14,0,0,0-3.33,9.64,9,9,0,0,0,3.29,6.55c.93.64,1.63.85,3.37.46"/><path id="path9083" class="cls-8" d="M152.68,115.34a4.5,4.5,0,0,0-3.75-2.62c-3.19-.22-6.41,2-8.47,4.46a14.08,14.08,0,0,0-3.37,9.67,8.89,8.89,0,0,0,3.33,6.52c.75.57,1.17.25,2.73.39"/><path id="path9085" class="cls-8" d="M146.73,112.75a3.3,3.3,0,0,0-3.08-2.48c-3.19-.32-6.41,2-8.5,4.47a14.43,14.43,0,0,0-3.34,9.63,6.91,6.91,0,0,0,2,5c1.06,1,2.55,1,4.11,1.1"/><path id="path9087" class="cls-8" d="M257.85,71.54C257,81.71,256.4,91.85,255.33,102c-.56,5.53-1.06,11.09-2,16.58-1.31,7.27-1.63,15-5,21.55a31.2,31.2,0,0,1-8.86,10,29.42,29.42,0,0,1-10.91,5.45,29,29,0,0,1-12.72.25c-4.15-.88-7.83-3.22-11.55-5.24-4.68-2.52-8.93-5.74-13.4-8.61"/><path id="path9089" class="cls-8" d="M204,84.94c3.93-1.14,7.76-2.77,11.8-3.41,2.62-.38,5.42-.92,8-.21,1.27.36,3.58,1.38,3.4,2.16-.11.39-.74.32-1.13.32-1.49,0-2.84-.92-4.33-1.13a29.63,29.63,0,0,0-6.59,0C211.4,83.06,207.75,84.19,204,84.94Z"/><path id="path9091" class="cls-8" d="M226.07,93.23c.46-.5,1.73-.92,1.34-1.45-.46-.75-3.29-2.56-5.21-3.3a16.7,16.7,0,0,0-5.77-1,21.59,21.59,0,0,0-6.17.78,31.94,31.94,0,0,0-4,1.67"/><path id="path9093" class="cls-8" d="M201.87,94.5c3.33-.85,6.59-2.12,10-2.51a23.56,23.56,0,0,1,7.26.1,15.87,15.87,0,0,1,5.49,2.2,13.3,13.3,0,0,1,2.7,2.8,31.22,31.22,0,0,1-4.89,2.16,23.12,23.12,0,0,1-8.4.67,21.68,21.68,0,0,1-6.8-2.16A52.32,52.32,0,0,1,201.87,94.5Z"/><path id="path9095" class="cls-8" d="M210.26,93c.11,1.16-.32,2.48.25,3.5a6,6,0,0,0,3.4,2.52,5.54,5.54,0,0,0,3.3,0A5,5,0,0,0,219.58,97c.75-1.24.6-2.8.92-4.21"/><path id="path9097" class="cls-7" d="M214.05,93.83a1.31,1.31,0,0,0,.08,1.42,1.65,1.65,0,0,0,1.31.81,1.5,1.5,0,0,0,1.31-.74c.32-.46.49-1.24.1-1.63a2.28,2.28,0,0,0-2.8.14Z"/><path id="path9099" class="cls-7" d="M209.94,104.92a51.67,51.67,0,0,0,8.4-2c2.38-.92,4.64-2.69,6.7-3.65"/><path id="path9101" class="cls-8" d="M238.22,87.56A26.92,26.92,0,0,0,236.38,92c-.57,3.19-.14,6.52.25,9.78.46,4,1.91,7.83,2.58,11.8.43,2.26,1.45,4.64.92,6.91a5.94,5.94,0,0,1-1.91,2.83,19.6,19.6,0,0,1-3.65,2.16"/><path id="path9103" class="cls-8" d="M224.93,112.33c-1.56,1.7-3.82,2.94-4.67,5.1a4.36,4.36,0,0,0,0,3.29,4.6,4.6,0,0,0,3,2.48,4.69,4.69,0,0,0,3.05-.78c1.2-.63,1.88-2,3.08-2.62a3.73,3.73,0,0,1,2.84-.56c.28.1.63.49.56.78-.32,1-2,.77-2.94,1.13-1.31.5-2.58.92-3.86,1.38"/><path id="path9105" class="cls-7" d="M217.39,133.52c1.59-.82,3.86-.64,5.77-.61s3.9,1,5.85.89c2.23-.11,4.28-1.6,6.55-1.6a17.63,17.63,0,0,1,4.79,1.07c-.07.56-.25,1.31,0,1.73-1.63-.6-4-1.48-6-1.24s-3.3,2.45-5.25,2.48c-2.23.07-4-2.48-6.23-2.58s-4.43,1.63-6.13,2a4.08,4.08,0,0,0,.64-2.16Z"/><path id="path9107" class="cls-8" d="M221.32,140.46c1.59.67,3.08,1.7,4.78,2a10,10,0,0,0,3.86,0,12.61,12.61,0,0,0,2.45-.88c.74-.32,1.45-.71,2.2-1"/><path id="path9109" class="cls-8" d="M232.83,145.46a8.81,8.81,0,0,0-3.43-.93,6.81,6.81,0,0,0-2.84.82"/><path id="path9111" class="cls-7" d="M239.35,84.62c1.56-1.84,5-2.31,7.69-2.52a16.55,16.55,0,0,1,5.85,1,27.43,27.43,0,0,1,3.93,1.73c-2.16-.42-4.39-1.2-6.62-1.27a24.4,24.4,0,0,0-5.81.78,16.7,16.7,0,0,0-3.8,1.59C240.1,86.18,239,85.08,239.35,84.62Z"/><path id="path9113" class="cls-8" d="M238.79,91.42a24.59,24.59,0,0,1,4.64-2.27,16.29,16.29,0,0,1,7.26-.56c1.6.28,2.94,1.34,4.43,2"/><path id="path9115" class="cls-8" d="M237.76,94.72a24.71,24.71,0,0,1,5.7-1.46,27.4,27.4,0,0,1,6.77-.07,10.63,10.63,0,0,1,3.86,1.1,11.31,11.31,0,0,1,1.78,1.81l-.36,2.73a22.62,22.62,0,0,1-3.58,1.24,20.52,20.52,0,0,1-5.14.21,17.63,17.63,0,0,1-5.45-.89,13.64,13.64,0,0,1-3.58-2.34,13.29,13.29,0,0,1-1-1c.32-.43.46-1.1,1-1.31Z"/><path id="path9117" class="cls-8" d="M242.15,94c.07,1.17-.32,2.48.25,3.51a5.88,5.88,0,0,0,3.4,2.52,5,5,0,0,0,3.3,0,4.84,4.84,0,0,0,2.37-2.06c.75-1.2.6-2.8.92-4.18"/><path id="path9119" class="cls-7" d="M245.63,94.82a1.29,1.29,0,0,0,.07,1.42,1.85,1.85,0,0,0,1.31.81,1.57,1.57,0,0,0,1.31-.74c.32-.46.49-1.28.1-1.66a2.27,2.27,0,0,0-2.79.17Z"/><path id="path9121" class="cls-8" d="M238.57,100.14a35.91,35.91,0,0,0,3.8,4.18,25.86,25.86,0,0,0,4,2.12"/><path id="path9123" class="cls-9" d="M254.63,109.67a23.63,23.63,0,0,0,2.62,7,17.07,17.07,0,0,0,4.78,5.64,9.1,9.1,0,0,0,5.56,1.73,6.83,6.83,0,0,0,4.75-2.4,8,8,0,0,0,1.17-5.28,7.84,7.84,0,0,0-1.66-4.65,6,6,0,0,0-3.87-2,3.74,3.74,0,0,0-2.94.78,3.16,3.16,0,0,0-.78,2.23c0,.85-.07,1.74,1,2.34-.78-.32-1.32-1.31-1.88-2.06a19.67,19.67,0,0,1-1.92-3.5A30.63,30.63,0,0,1,260,105.1c-.54-2-.93-4.11-1.35-6.13-.71-3.23-1.52-7.09-2.06-9.64-.56,5.53-1.34,14.78-1.94,20.34Z"/><path id="path9125" class="cls-9" d="M251.9,129.65A48.73,48.73,0,0,0,256.75,142a18.85,18.85,0,0,0,4.78,5.63c1.6,1.17,3.48,2.48,5.46,2.34a7,7,0,0,0,4.86-3,8.48,8.48,0,0,0,1.17-5.24,7.84,7.84,0,0,0-1.67-4.68,6.31,6.31,0,0,0-3.9-2.06,3.87,3.87,0,0,0-2.9.78,3,3,0,0,0-.78,2.24c.07.81,0,1.55,1.06,2.16a5.71,5.71,0,0,1-1.95-1.85,19.31,19.31,0,0,1-1.95-3.5c-.6-1.42-1-2.94-1.45-4.4-.53-1.73-1-3.51-1.56-5.24-1.17-4.11-3-9.71-3.51-12.26-.56,5.53-1.95,11.16-2.51,16.72Z"/><path id="path9127" class="cls-9" d="M249.66,137.48s.93,2.87,1.56,4.22c.75,1.52,2.63,4.36,2.63,4.36s3.22,1.45,4.89,2.05,4.74,1.46,4.74,1.46a42,42,0,0,1-5.13-4.68,25.27,25.27,0,0,1-3.05-5.24,57.59,57.59,0,0,1-2-5.57c-.57-1.66-1.56-5.06-1.56-5.06s-.57,3.33-1,5c-.29,1.17-1.07,3.47-1.07,3.47Z"/><path id="path9129" class="cls-9" d="M253.85,146.06l-6.81-3.9,2.62-4.75Z"/><path id="path9131" class="cls-9" d="M183.48,150.28,208.39,171l28.06-18.46-.67,9-27,18.6-35.11-29A13.24,13.24,0,0,0,183.48,150.28Z"/><path id="path9133" class="cls-8" d="M113.32,159.59l9.35,10.6-9.17,9.71"/><path id="path9135" class="cls-8" d="M113.67,166l3.37,3.9-3.37,3.5"/><path id="path9137" class="cls-7" d="M126.57,147.58l-9.35,9.71,9,9.89,9.1-9.89Zm-.18,4.18,5.35,5-5.35,5.88-5.17-5.17Z"/><path id="path9139" class="cls-9" d="M331.05,53.08l-38,36h38Z"/><path id="path9141" class="cls-5" d="M331.05,61.05l-23,22h23Z"/><path id="path9143" class="cls-8" d="M112.75,185.18l9.36,10.63-9.18,9.71"/><path id="path9145" class="cls-8" d="M113.11,191.63l3.36,3.86L113.11,199"/><path id="path9147" class="cls-8" d="M138.23,160.69l-9.18,9.85,9.18,9.71"/><path id="path9149" class="cls-8" d="M138.05,166.36l-3.37,3.9,3.37,3.51"/><path id="path9151" class="cls-8" d="M137.52,204.74l-8.61-9.29,9.18-9.71"/><path id="path9153" class="cls-8" d="M137.91,199.63l-3.33-3.86,3.33-3.54"/><path id="path9155" class="cls-7" d="M125.58,173.34l-9.36,9.71,9,9.89,9.5-10.07Zm-.18,4.18,5.35,5-5.35,5.88-5.17-5.17Z"/><path id="path9157" class="cls-7" d="M126,198.71l-9.32,9.71,9,9.43,9.67-9.22Zm-.14,4.18,5.35,5-5.35,5.88-5.21-5.14Z"/><path id="path9159" class="cls-8" d="M138.44,153.36l-8.4-9.07,7.83-8.4"/><path id="path9161" class="cls-8" d="M138.3,148.08l-3.37-3.51,2.77-3.33"/><path id="path9163" class="cls-8" d="M113.71,155.27l10-10.42-5.74-6.06"/><path id="path9165" class="cls-8" d="M114.06,148.86l3.37-3.9-3.37-3.54"/><path id="path9167" class="cls-5" d="M112.82,211.36l3.86,4.61"/><path id="path9169" class="cls-5" d="M138.55,211.15l-7.09,7.3"/><path id="path9171" class="cls-5" d="M113.21,141.84l-.56,73.88"/><path id="path9173" class="cls-5" d="M138.76,132.81l-.21,88.4"/><path id="path9175" class="cls-7" d="M122.25,137.24l4.39,4.39,8.47-8.43-1.35-2.31Z"/><path id="path9177" class="cls-9" d="M308.06,89.08v71l6,2v-73Z"/><path id="path9179" class="cls-9" d="M314.08,369.07v-202h-6v204l23,20v-7Z"/><path id="path9181" class="cls-2" d="M322.55,91.07a2.5,2.5,0,1,0,2.52,2.51A2.79,2.79,0,0,0,322.55,91.07Z"/><path id="path9183" class="cls-2" d="M322.55,105.06a2.5,2.5,0,1,0,2.52,2.52A2.79,2.79,0,0,0,322.55,105.06Z"/><path id="path9185" class="cls-2" d="M325.56,98.08a2.79,2.79,0,0,0-2.48,2.48,2.83,2.83,0,0,0,2.48,2.52,2.87,2.87,0,0,0,2.52-2.52A2.83,2.83,0,0,0,325.56,98.08Z"/><path id="path9187" class="cls-2" d="M319.57,98.08a2.83,2.83,0,0,0-2.51,2.48,2.86,2.86,0,0,0,2.51,2.52,2.83,2.83,0,0,0,2.48-2.52A2.79,2.79,0,0,0,319.57,98.08Z"/><path id="path9189" class="cls-2" d="M322.73,139.82a2.5,2.5,0,1,0,2.48,2.52A2.79,2.79,0,0,0,322.73,139.82Z"/><path id="path9191" class="cls-2" d="M322.73,153.82a2.82,2.82,0,0,0-2.52,2.51,2.5,2.5,0,1,0,2.52-2.51Z"/><path id="path9193" class="cls-2" d="M325.7,146.84a2.5,2.5,0,1,0,2.52,2.48A2.79,2.79,0,0,0,325.7,146.84Z"/><path id="path9195" class="cls-2" d="M319.72,146.84a2.5,2.5,0,1,0,2.51,2.48A2.83,2.83,0,0,0,319.72,146.84Z"/><path id="path9197" class="cls-2" d="M322.52,188.61a2.5,2.5,0,0,0,0,5,2.5,2.5,0,1,0,0-5Z"/><path id="path9199" class="cls-2" d="M322.52,202.61a2.5,2.5,0,0,0,0,5,2.5,2.5,0,1,0,0-5Z"/><path id="path9201" class="cls-2" d="M325.53,195.59a2.87,2.87,0,0,0-2.52,2.52,2.83,2.83,0,0,0,2.52,2.48,2.79,2.79,0,0,0,2.48-2.48A2.83,2.83,0,0,0,325.53,195.59Z"/><path id="path9203" class="cls-2" d="M319.54,195.59a2.83,2.83,0,0,0-2.52,2.52,2.5,2.5,0,0,0,5,0A2.83,2.83,0,0,0,319.54,195.59Z"/><path id="path9205" class="cls-2" d="M322.34,238.15a2.5,2.5,0,1,0,2.48,2.48A2.79,2.79,0,0,0,322.34,238.15Z"/><path id="path9207" class="cls-2" d="M322.34,252.15a2.5,2.5,0,1,0,0,5,2.5,2.5,0,0,0,0-5Z"/><path id="path9209" class="cls-2" d="M325.31,245.13a2.52,2.52,0,1,0,2.52,2.52A2.84,2.84,0,0,0,325.31,245.13Z"/><path id="path9211" class="cls-2" d="M319.33,245.13a2.52,2.52,0,0,0,0,5,2.52,2.52,0,0,0,0-5Z"/><path id="path9213" class="cls-2" d="M322.34,286.55a2.83,2.83,0,0,0-2.52,2.48,2.87,2.87,0,0,0,2.52,2.52,2.83,2.83,0,0,0,2.48-2.52A2.79,2.79,0,0,0,322.34,286.55Z"/><path id="path9215" class="cls-2" d="M322.34,300.55a2.5,2.5,0,1,0,0,5,2.5,2.5,0,0,0,0-5Z"/><path id="path9217" class="cls-2" d="M325.31,293.53a2.5,2.5,0,1,0,2.52,2.52A2.8,2.8,0,0,0,325.31,293.53Z"/><path id="path9219" class="cls-2" d="M319.33,293.53a2.5,2.5,0,1,0,2.51,2.52A2.82,2.82,0,0,0,319.33,293.53Z"/><path id="path9221" class="cls-2" d="M321.77,335.13a2.5,2.5,0,1,0,2.48,2.48A2.79,2.79,0,0,0,321.77,335.13Z"/><path id="path9223" class="cls-2" d="M321.77,349.13a2.5,2.5,0,1,0,2.48,2.48A2.79,2.79,0,0,0,321.77,349.13Z"/><path id="path9225" class="cls-2" d="M324.75,342.11a2.83,2.83,0,0,0-2.48,2.52,2.8,2.8,0,0,0,2.48,2.48,2.83,2.83,0,0,0,2.51-2.48A2.86,2.86,0,0,0,324.75,342.11Z"/><path id="path9227" class="cls-2" d="M318.76,342.11a2.87,2.87,0,0,0-2.52,2.52,2.84,2.84,0,0,0,2.52,2.48,2.8,2.8,0,0,0,2.48-2.48A2.83,2.83,0,0,0,318.76,342.11Z"/><path id="path9229" class="cls-2" d="M316.07,128.06v-5l13-12v5Z"/><path id="path9231" class="cls-2" d="M316.07,136.07v-5l13-12v5Z"/><path id="path9233" class="cls-2" d="M316.07,178.05v-5l13-12v5Z"/><path id="path9235" class="cls-2" d="M316.07,186.06v-5l13-12v5Z"/><path id="path9237" class="cls-2" d="M316.07,228.05v-5l13-12v5Z"/><path id="path9239" class="cls-2" d="M316.07,236.06v-5l13-12v5Z"/><path id="path9241" class="cls-2" d="M316.07,276.06v-5l13-12v5Z"/><path id="path9243" class="cls-2" d="M316.07,284.07v-5l13-12v5Z"/><path id="path9245" class="cls-2" d="M316.07,323.08v-5l13-12v5Z"/><path id="path9247" class="cls-2" d="M316.07,331.05v-5l13-12v5Z"/><path id="path9249" class="cls-2" d="M316.21,369.32l-.14-1.24,13-12v5l-10,9.88Z"/><path id="path9251" class="cls-2" d="M322.8,374.57l-2.38-2,8.65-8.5v5Z"/><path id="path9253" class="cls-7" d="M248.57,172l-9.36,9.75,9,9.88,9.68-9.71Zm-.18,4.22,5.35,5-5.35,5.85L243.22,182Z"/><path id="path9255" class="cls-7" d="M252.29,144.53,241.76,153,249.45,164l10.81-8.4Zm-.68,4.15,4.65,5.63-6.06,5.14-4.47-5.77Z"/><path id="path9257" class="cls-7" d="M248.21,197.9,240,207.82,250,216l8.37-9.92Zm.29,3.89,5.84,4.08-4.68,5.95-5.7-4.25Z"/><path id="path9259" class="cls-7" d="M250.66,221.28l-7.83,11,10.34,8.5,8.19-11Zm.46,4.18,6,4.15-4.43,6.59-5.88-4.32Z"/><path id="path9261" class="cls-7" d="M254.84,247.08l-6,12,11.52,6.8,6.38-12.15Zm1.1,4,6.59,3.19-3.37,7.19-6.48-3.37Z"/><path id="path9263" class="cls-7" d="M262.1,272.48l-4.89,12.58,12.12,5.67,5.21-12.68Zm1.49,3.94,6.84,2.55-2.66,7.47L261,283.72Z"/><path id="path9265" class="cls-7" d="M272.84,298.14l-2.41,13.25,13,3.29,2.69-13.42Zm2.19,3.58,7.23,1.2L281,310.75l-7.15-1.42Z"/><path id="path9267" class="cls-7" d="M286.3,321.84,285,335.27l13.21,2.16,1.53-13.64Zm2.48,3.4,7.3.57-.53,7.94-7.26-.82Z"/><path id="path9269" class="cls-8" d="M262.31,159.84,252.11,168l8.08,10"/><path id="path9271" class="cls-8" d="M261.53,165.05l-3.75,3.3,2.94,3.61"/><path id="path9273" class="cls-8" d="M263.55,150.56s-1.45,12.33-2,18.49c-.74,8.58-1.84,17.15-1.77,25.76a197.12,197.12,0,0,0,2,22.5c1,8,2.2,15.91,4,23.74a232.69,232.69,0,0,0,7.48,25.76,211.9,211.9,0,0,0,9.53,22.26,243.12,243.12,0,0,0,12.72,22.74c3.54,5.6,11.52,16.27,11.52,16.27"/><path id="path9275" class="cls-8" d="M236.09,177.2l10.63-11.33-9.49-11.41"/><path id="path9277" class="cls-8" d="M236.52,170.68l4.53-4.74-4.18-5.18"/><path id="path9279" class="cls-8" d="M259.59,185.64l-8.54,8.22,7.9,8.68"/><path id="path9281" class="cls-8" d="M259.27,190.49l-3.16,3.26,2.91,3.16"/><path id="path9283" class="cls-8" d="M235.14,207.11l10.24-11.69-9.85-11.09"/><path id="path9285" class="cls-8" d="M235.35,200.59l4.36-4.93-4.36-5"/><path id="path9287" class="cls-8" d="M237.9,232.41l9-12.69L236,209.7"/><path id="path9289" class="cls-8" d="M237.44,225.89l3.83-5.32L236.41,216"/><path id="path9291" class="cls-8" d="M242.65,257.74l7.44-13.64L238,235.42"/><path id="path9293" class="cls-8" d="M241.44,251.33l3.19-5.74-5.35-4"/><path id="path9295" class="cls-8" d="M253.07,283.82l5.31-14.63-13.18-6.77"/><path id="path9297" class="cls-8" d="M250.91,277.66l2.3-6.17-5.88-3.12"/><path id="path9299" class="cls-8" d="M265.61,310.29l3.54-15.16L255.23,290"/><path id="path9301" class="cls-8" d="M262.74,304.41l1.52-6.38-6.2-2.37"/><path id="path9303" class="cls-10" d="M280.39,334.42l2-15.41-13.22-3.9"/><path id="path9305" class="cls-10" d="M277.23,328.82l.92-6.48-5.91-1.84"/><path id="path9307" class="cls-10" d="M298.28,357.77l-.75-16-13.67-1.49"/><path id="path9309" class="cls-10" d="M294.2,352.14l-.24-6.49-6.13-.74"/><path id="path9311" class="cls-8" d="M261.82,304.8c4,6.7,7.79,13.46,12,20,5.39,8.43,10.88,16.79,17,24.73,5.18,6.73,11,12.86,16.51,19.28"/><path id="path9313" class="cls-8" d="M301.82,361.31l5.74.75"/><path id="path9315" class="cls-7" d="M307.31,358.05l-5.49-1.24.5-14.49,5,1.24Z"/><path id="path9317" class="cls-8" d="M303.31,324.32l-1,13,5,1.24"/><path id="path9319" class="cls-8" d="M260.76,208.88l-7.48,9.28,9,7.59"/><path id="path9321" class="cls-8" d="M261,213.77l-2.73,3.65,3.26,2.76"/><path id="path9323" class="cls-8" d="M263.06,233.51l-5.74,10.38,10.1,6"/><path id="path9325" class="cls-8" d="M264.19,238.26l-2.05,4,3.68,2.17"/><path id="path9327" class="cls-8" d="M269.58,257.85l-4.86,10.84,10.56,5.1"/><path id="path9329" class="cls-8" d="M271.1,262.53l-1.7,4.18,3.86,1.84"/><path id="path9331" class="cls-8" d="M277.76,282.3l-2.9,11.51,11.3,3.19"/><path id="path9333" class="cls-8" d="M280.07,286.62l-1,4.43,4.15,1.13"/><path id="path9335" class="cls-8" d="M289.74,305.33l-1.56,11.8L299.77,319"/><path id="path9337" class="cls-8" d="M292.54,309.37l-.43,4.5,4.22.67"/><path id="path9339" class="cls-7" d="M282.05,199.56c3.19,8.75,5.81,17.72,9.53,26.26,2.34,5.38,4.61,10.91,8,15.73,2.24,3.19,5.36,5.67,8,8.5l-.25-14-4.5,1,2.52-6.24-5.78-.24,3.51-4.26-5.24-.49,3.26-4.5-5.78-.25,4-5-6.49-.49,3.76-5-5.78-.53,3.51-4.75-5-.74,3.26-5.49-7-.25Z"/><path id="path9341" class="cls-11" d="M293.07,165.3c2.34-2.52,6.2-3.15,9.5-4.18a16.27,16.27,0,0,1,5.49-1,11.52,11.52,0,0,1,6,1.73,4.2,4.2,0,0,1,2,2.77,3,3,0,0,1-1.24,2.23,5.53,5.53,0,0,1-2.27.74c-1.24.36-2.62.14-3.76.75a5.28,5.28,0,0,0-2.41,2.55,7.35,7.35,0,0,0-.1,4.11,14.44,14.44,0,0,0,1.77,4.28l-.25,14.28c-2.83.32-5.81,1.24-8.75,1-1.74-.15-3.69-.36-5-1.49-2.37-2.13-3-5.67-3.75-8.75a27.41,27.41,0,0,1-.5-9.75c.46-3.26,1-6.87,3.26-9.28Z"/><path id="path9343" class="cls-11" d="M261.82,208.56c4.5-1.84,8.08-3.36,12-5.24,3.37-1.63,6.7-3.44,10-5.25,3.12-1.7,6.73-3.57,9.25-5.24"/><path id="path9345" class="cls-11" d="M263.31,150.31c5.42,2.59,10.91,5.07,16.26,7.76,4.29,2.16,8.5,4.5,12.76,6.73"/><path id="path9347" class="cls-11" d="M287.58,162.57a87,87,0,0,0-2.77,11,41.93,41.93,0,0,0,0,11.52c.57,3.37,3.26,9.74,3.26,9.74l-12.75,7.27,5.49-9-6-6,6.49-7.22-6-8.26,5.24-4.25-3.26-10Z"/><path id="path9349" class="cls-8" d="M265.08,152.33l7.47,12.22-6.48,6.28,6.24,8.5-6.49,8,5.74,5.78-7,13.5"/><path id="path9351" class="cls-8" d="M263.55,158.81l2.52,4-3.76,3"/><path id="path9353" class="cls-8" d="M261.57,175.82l3,3.76-3.26,4.25"/><path id="path9355" class="cls-8" d="M260.83,190.31l3.22,4.5-3.22,5"/><path id="path9357" class="cls-9" d="M267.81,214.8l11.26-5.49s3.41,11.44,5.5,17c1.77,4.75,3.47,9.61,6,14,2.95,5.07,10.53,14,10.53,14v52.26s-9.89-15.7-14-24a201.46,201.46,0,0,1-11-26.5,186.56,186.56,0,0,1-5.74-23.28C269.19,226.88,267.81,214.8,267.81,214.8Z"/><path id="path9359" class="cls-9" d="M265.75,57.58s.67,7.3,2.3,10.49a22.79,22.79,0,0,0,7,7.76,21.18,21.18,0,0,0,8.26,3.47,24.94,24.94,0,0,0,7.47,0,42.15,42.15,0,0,0,5-1s-3.19-1-4.22-2.23c-2.23-2.55-2.55-6.27-3.51-9.5s-1.16-6.62-2.26-9.78-2.09-6.62-4.26-9.25a11,11,0,0,0-4.5-3.22,13.86,13.86,0,0,0-3.29-.53Z"/><path id="path9361" class="cls-8" d="M270.57,50.53c1.21,4,2.23,7.8,4.25,11.27a41.26,41.26,0,0,0,6.49,8c1.56,1.63,3.33,3,5,4.5"/><path id="path9363" class="cls-8" d="M279.18,53.68c-1.77,1-5.7.11-7.65-.28-1.35,2.66-2.45,4.71-2.34,7.19"/><path id="path9365" class="cls-8" d="M280.78,58.22c-1.78,1-5.11.67-7.06.28-1.34,2.66-2.44,5.25-2.33,7.73"/><path id="path9367" class="cls-8" d="M283,64.39c-1.8,1-4.36.24-6.3-.15-1.35,2.66-1.07,5.07-1,7.55"/><path id="path9369" class="cls-8" d="M285.63,68.89c-1.77,1-2.91.07-4.85-.32-1.35,2.65-.64,3.68-.54,6.16"/><path id="path9371" class="cls-8" d="M271.07,49.43a9,9,0,0,0,5.31-.35"/><path id="path9373" class="cls-2" d="M151,142.66c-.85.32-1.95.88-2,1.8s.88,1.67,1.63,2.17a7.23,7.23,0,0,0,1.52.42c.53.18,1.24.25,1.6.74s.1,1.24.24,1.85c.43,1.49.61,3.26,1.74,4.28a6.37,6.37,0,0,0,3.86,1.28,16.31,16.31,0,0,0,3.48-.42,14,14,0,0,1,2.72-.32,2.61,2.61,0,0,1,1.31.39,1.91,1.91,0,0,1,.5,1.13,13.43,13.43,0,0,1,.11,2.62,15.08,15.08,0,0,0,.1,3.37,6.63,6.63,0,0,0,1.92,3.47,6.85,6.85,0,0,0,4,1.17,16.93,16.93,0,0,0,3.47-.64,11,11,0,0,1,2.66-.49,1.57,1.57,0,0,1,1.13.28c.18.14.18.46.22.67a10.87,10.87,0,0,1-.22,2.2,12.24,12.24,0,0,0-.24,3,6.24,6.24,0,0,0,1.38,3.44,7.27,7.27,0,0,0,3.79,1.63,19.22,19.22,0,0,0,3.54-.29c1.46,0,3.23-.74,4.36.18.89.71.57,2.16.78,3.26a15.9,15.9,0,0,0,.5,3,6.31,6.31,0,0,0,2.16,3,5,5,0,0,0,3,.53,10.1,10.1,0,0,0,2.2-.67c.6-.18,1.28-.78,1.88-.53.18.07.21.32.25.49a17.14,17.14,0,0,1,.6,1.88,6.76,6.76,0,0,0,1,2.37,4.36,4.36,0,0,0,3.08,1.81,4.47,4.47,0,0,0,3-1.81,7,7,0,0,0,.82-2.37c.21-.6.32-1.2.53-1.81.07-.1.07-.28.17-.32s.36,0,.54,0a16.92,16.92,0,0,1,1.7.71,9.9,9.9,0,0,0,2.41.85,5,5,0,0,0,3.29-.63,5.63,5.63,0,0,0,1.81-3.37,11.3,11.3,0,0,0-.11-3.12,11.44,11.44,0,0,1-.1-2.2c0-.17,0-.38.14-.49s.74-.14,1.1-.14a10.74,10.74,0,0,1,2.37.49c1.06.36,2,1.21,3.12,1.28s2.34,0,2.76-.85-.28-2-.92-2.73c-1-1-2.48-1.1-3.75-1.49a12.16,12.16,0,0,0-3.34-.71,6.34,6.34,0,0,0-3.61.85,5.76,5.76,0,0,0-1.84,3.37,12.75,12.75,0,0,0,.07,3.08c0,.78.64,1.81.07,2.34s-1.24,0-1.84-.18c-.82-.21-1.53-.78-2.34-.92a5.82,5.82,0,0,0-3.23.22,6.2,6.2,0,0,0-2.16,2.4c-.39.68,0,2.17-.81,2.17s-.43-1.6-.82-2.31A5.13,5.13,0,0,0,206,181.6c-1.56-.64-3.37.42-5.07.39-.64,0-1.45.25-1.95-.18s-.21-1.52-.42-2.27c-.61-2.09-.61-4.71-2.31-6.06-1.95-1.56-4.89-.95-7.37-1a23,23,0,0,1-2.69.24,2,2,0,0,1-1.28-.49,1.27,1.27,0,0,1-.24-.75,11.35,11.35,0,0,1,.24-2.23,15.13,15.13,0,0,0,.25-3,5.79,5.79,0,0,0-1.56-3.4,6.67,6.67,0,0,0-3.93-1.31,14.74,14.74,0,0,0-3.47.64,18.67,18.67,0,0,1-2.73.5,2,2,0,0,1-1.24-.25,2,2,0,0,1-.53-1.1,14.49,14.49,0,0,1-.07-2.55,15.4,15.4,0,0,0-.15-3.4,6.41,6.41,0,0,0-1.84-3.51,6.87,6.87,0,0,0-3.83-1.31,14.91,14.91,0,0,0-3.5.35,18.76,18.76,0,0,1-2.77.36c-.46,0-1.06,0-1.34-.36s-.14-1-.25-1.45c-.32-1.45-.36-3.12-1.31-4.29a7.58,7.58,0,0,0-3.33-1.88,12.94,12.94,0,0,0-1.95-.49,1.15,1.15,0,0,0-.36-.07Z"/><path id="path9375" class="cls-2" d="M151.09,154.21a2.16,2.16,0,0,0-1.88,1.38,2.07,2.07,0,0,0,.71,2.23l58.15,45.89a2.08,2.08,0,0,0,2.37,0l22.75-15.94a2.07,2.07,0,0,0,.57-2.84,2.09,2.09,0,0,0-2.84-.46l-21.58,15.13-57-45a2.13,2.13,0,0,0-1.28-.46Z"/><path id="path9377" d="M208.14,214.8v63.88l9.74-6.8.32-63.32Z"/><path id="path9379" class="cls-4" d="M149.57,169l21,16.86.28,54.43-21.29-14.49Z"/><path id="path9381" class="cls-12" d="M170.86,184.89l.6,56.24"/><path id="path9383" class="cls-12" d="M176.78,189.11l.28,57.33"/><path id="path9385" class="cls-12" d="M203.71,211.82l.28,68.35"/><path id="path9387" class="cls-8" d="M241.55,256.5l-36.39,24.24"/><path id="path9389" class="cls-12" d="M203.67,270.82,177.35,244l26.5-25.65-26.79-27.5"/><path id="path9391" class="cls-12" d="M192.94,202.26l-16.05,16.4,26.78,27.92-15.16,14.18"/><path id="path9393" class="cls-12" d="M190.1,212.5l-4.92,5.28,4.92,5.81,5.1-5.28Z"/><path id="path9395" class="cls-12" d="M190,240.17l-4.29,4.71,4.86,4.93,4.32-4.61Z"/><path id="path9397" class="cls-13" d="M178,198.75l4.89,5.35-5.14,5.42Z"/><path id="path9399" class="cls-13" d="M203.14,226.78l-5.24,5.45,5.31,5.18Z"/><path id="path9401" class="cls-13" d="M177.66,226.74l4.82,5.24-4.92,4.54Z"/><path id="path9403" class="cls-13" d="M203.28,254.27l-4.6,4.75,4.85,4.75Z"/><path id="path9405" class="cls-8" d="M134,130.57c-7.09,3.55-14.17,7.06-21.22,10.63-5.07,2.56-10.21,5-15.2,7.76-7.2,3.94-14.35,7.94-21.23,12.41-6.45,4.18-12.47,8.92-18.74,13.42,4.14,5.53,8.18,11.13,12.4,16.62,3.58,4.64,7.48,9.07,11,13.79,3.22,4.35,6.13,9,9.18,13.43a60.62,60.62,0,0,1,7.44-2.13,72.78,72.78,0,0,1,15.2-.35,90.33,90.33,0,0,1,12,1.77,91.78,91.78,0,0,1,12.75,3.19,79.75,79.75,0,0,1,12.37,5.67A125.72,125.72,0,0,1,163,235.24a108.28,108.28,0,0,1,13.07,10.6c3.86,3.86,7,8.43,10.28,12.75,3.61,4.75,6.83,9.82,10.59,14.5a94.24,94.24,0,0,0,8.11,9.17,82.21,82.21,0,0,0,13.11,10.6,76.07,76.07,0,0,0,14.14,6.73,66.73,66.73,0,0,0,14.49,4.25c4.89.71,9.89,0,14.85,0-2.73-5.56-5.63-11-8.15-16.62-3.12-7.08-6.06-14.24-8.47-21.57a195.49,195.49,0,0,1-5.67-20.87c-1.48-7.23-2.41-14.57-3.19-21.9-.56-5.53-.88-11.09-1.06-16.62-.18-6.13,0-12.26,0-18.39.07-5.78.14-11.55.36-17.33.24-6,.7-12,1.06-18"/><path id="path9407" class="cls-2" d="M191,356.64l-37.88-30.76.28-62.72,3.87-2.65,6.8,6.8,10.35,13.89L183,293.32l3.86,4.14,4.71,3.87Z"/><path id="path9409" class="cls-2" d="M138.9,247.79l-24.84,18-2.37-4.75L133,244.21Z"/><path id="path9411" class="cls-2" d="M157.26,261.07l-36.11,23.67L119.09,280l33.74-22.22Z"/><path id="path9413" class="cls-4" d="M143.93,332.68l.32-63-24,15.7,3.87,17.75,2.65,17.15.61,16-.32,8.57Z"/><path id="path9415" d="M153.39,257.81l-34.3,22.79s-2.41-6.1-3.54-9.18c-.71-1.84-2.09-5.6-2.09-5.6l25.44-18.35s6.49,2.12,9.18,4.14c2.2,1.63,5.31,6.2,5.31,6.2Z"/><path id="path9417" d="M213.06,373.33l-59.24-47.27-26.75,17,.24,14-.74,13.25-.5,10.49,27.25-18.49,35,28.77,4.5,2.23,2.48,2.27,4,.49,2.27,3.26,3-.78,3,3.76h3l2.48,2.27Z"/><path id="path9419" d="M223.05,409.57l.25-89-6-2.24-5-2.76.25,89.26,3.26.49,3.22,3.26,2-.78Z"/><path id="path9421" class="cls-5" d="M101.06,332.83l-20.23,10s-3.9-11.06-6-16.51-4-11-6.73-16.23a63.08,63.08,0,0,0-6.27-10,98.82,98.82,0,0,0-8-8.22l.24-78.52s9.89,12,14,18.5c3.58,5.7,6.31,11.94,9.25,18,3.83,7.93,7.9,15.76,11,24a157.73,157.73,0,0,1,5,17c1.56,6,2.9,12,4,18,.82,4.4,1.31,8.86,2,13.25C99.89,325.67,101.06,332.83,101.06,332.83Z"/><path id="path9423" class="cls-2" d="M97.3,391.57,70.05,376.83l2.77-10.27-1-10-3-6.74,8-6,13.75-6,10.24-4.25,1,10v12l-.74,14L98.83,385.3Z"/><path id="path9425" class="cls-6" d="M134.58,244.31l-22.75,17s-4-8.68-6-13c-1.63-3.44-5-10.24-5-10.24s11.09-.71,16.51.25c6,1.06,17.26,6,17.26,6Z"/><path id="path9427" d="M31.08,158.32,47.94,173,47.7,452.7l-16.62.1Z"/><path id="path9429" class="cls-6" d="M265.08,392.46l-.18-66.83,6.91-2.12s11.2,15.62,16.94,23.35c4.18,5.56,8.68,10.91,12.75,16.62,1,1.38,2.84,4.21,2.84,4.21s-11.09,8.08-16.8,11.87c-4.07,2.66-8.18,5.18-12.4,7.59-3.29,1.87-10.06,5.31-10.06,5.31Z"/><path id="path9431" d="M248.81,400.57l.36-74.23s5.53.29,8.29.18,8.5-.89,8.5-.89l-.17,66.83s-6.31,3.4-9.53,4.93c-2.45,1.16-7.45,3.18-7.45,3.18Z"/><path id="path9433" class="cls-2" d="M155.84,476.93c7-.1,14.14.11,21.19-.35,5.88-.36,11.73-1,17.5-1.92,3.83-.6,7.55-1.55,11.34-2.3.57-4.14,1.2-8.25,1.77-12.36.6-4.68,1.1-9.32,1.74-14,.49-3.47.78-7,1.59-10.42.5-2.05,1.31-4,1.95-6l2.66-.36c.88.89,1.45,2.31,2.66,2.66a6.71,6.71,0,0,0,5-.88,14.21,14.21,0,0,0,4.92-5.28,15.81,15.81,0,0,0,2.48-6.56,9,9,0,0,0-.71-4.43,5.16,5.16,0,0,0-2.12-2.66c-1-.46-2.24,0-3.37,0a11.15,11.15,0,0,0-1.74-2.44c-1.2-1-2.83-1.31-4.25-1.95-.78-.88-1.24-2.16-2.3-2.66s-2,0-3,0c-.89-.81-1.53-2-2.66-2.48-.92-.35-2,0-3,0-1-1.17-1.59-2.9-3-3.54-1-.43-2.23.14-3.36.18-.89-1.07-1.42-2.59-2.66-3.19-1-.46-2.23,0-3.37,0a27.73,27.73,0,0,0-3.33-2.8,16.25,16.25,0,0,0-4.6-1.95,11.14,11.14,0,0,0-10.28,1.95,17.21,17.21,0,0,0-4.22,4.57,31.35,31.35,0,0,0-3.54,7.79c-1.59,4.93-2.09,10.1-3,15.21-1.17,6.62-2,13.32-3.19,20s-2.41,13.22-3.69,19.77c-1.09,5.49-2.26,11-3.36,16.44Z"/><path id="path9435" class="cls-5" d="M229.08,511.05l-20-40s-10.17,2.69-15.38,3.54a195.52,195.52,0,0,1-24.63,2.48,256.25,256.25,0,0,1-30-1c-11.77-1.06-35-5-35-5l-23,40Z"/><path id="path9437" class="cls-7" d="M214.23,509.6l-15.16-29.55c-6.49,2.27-11.41,2.34-19.7,3.26l3.89,26.29H189l-5.1-22.75c4.75-.32,8.51-.28,12.62-1.91l11.12,24.66Z"/><path id="path9439" class="cls-7" d="M174.37,509.6l-3.05-25.3c-10.06.92-18.14,1.49-28.2.46l-5.49,24.84h6.44l3.05-19.81c7.9.47,12.58,0,19.21-.49l2.23,20.3Z"/><path id="path9441" class="cls-7" d="M127.81,509.6l7.34-25.05c-7.37-.64-18.08-1.56-26.08-3.47L95.35,509.6h6.35l10.38-23.53c4.46,1.21,12,1.74,16.47,2.38l-6.23,21.15Z"/><path id="path9443" class="cls-8" d="M156.05,476.08s3.47-16.65,5-25c1.81-10,2.91-20.09,5-30,1.38-6.73,1.59-14,5-20,2.31-4.11,5.43-8.79,10-10s10.2.18,13.25,3.58c2.55,2.87,3.08,7.79,1.73,11.41-1.41,3.93-5.27,8.32-9.46,8.18-4.35-.14-9.17-4.89-9.24-9.21,0-3.9,4.18-8.26,8.07-8.51a5.89,5.89,0,0,1,5.64,4.54c.39,2.8-2.16,6.84-5,6.8-1.7,0-4-2-2.94-4.14"/><path id="path9445" class="cls-8" d="M161.9,476.9c2.94-9,3.68-18.07,5.24-27.18s2-18.25,4.15-27.18c1.7-7.08,3.61-14.63,6.8-20.76"/><path id="path9447" class="cls-8" d="M168.59,476.9c2.24-7.8,2.91-16,4.15-24.1,1.2-7.86,1.63-15.87,3.15-23.67,1.1-5.67,1.92-11.34,4.33-16.69"/><path id="path9449" class="cls-8" d="M174.55,476.51c2-7.44,2.58-15.35,3.68-23,1.06-7.52,1.45-15.2,2.8-22.65,1-5.38,1.7-10.84,3.86-15.94"/><path id="path9451" class="cls-8" d="M180.36,475.87c1.8-7.09,2.34-14.56,3.33-21.9,1-7.12,1.31-14.38,2.51-21.47.89-5.14,1.53-10.31,3.48-15.13"/><path id="path9453" class="cls-8" d="M186.06,475.34c1.77-6.73,2.34-13.86,3.3-20.8s1.31-13.71,2.55-20.45c.88-4.89,1.52-9.78,3.47-14.38"/><path id="path9455" class="cls-8" d="M192.44,474.45c1.74-6.3,2.13-12.58,3.05-18.85s1.27-12.75,2.48-19c.85-4.53,1.45-9.1,3.36-13.39"/><path id="path9457" class="cls-8" d="M198.61,473.53c1.66-5.74,2.16-11.8,3-17.72.89-5.77,1.21-11.65,2.31-17.39.81-4.15,1.41-8.33,3.19-12.26"/><path id="path9459" class="cls-8" d="M205.59,471.58c1.41-5.14,1.84-10.2,2.58-15.34s1-10.45,2-15.59c.67-3.72,1.17-7.48,2.69-11"/><path id="path9461" class="cls-8" d="M185.64,413.86c1.63,1.14,3.08,3.08,5,3.16,3.22.1,6.41-2.06,8.5-4.47a13.81,13.81,0,0,0,3.33-9.67,9.15,9.15,0,0,0-3.29-6.56c-1-.71-2-.53-3.58-.67"/><path id="path9463" class="cls-8" d="M192.12,417.09c1.35,1.48,2.38,2.65,4,2.76,3.22.18,6.41-2.06,8.5-4.5a13.67,13.67,0,0,0,3.33-9.64c-.14-2.44-1.2-5.28-3.29-6.55-1-.61-1.88-.71-3.47.07"/><path id="path9465" class="cls-8" d="M197,420.06c1.63,1.1,3.08,3.09,5,3.16,3.23.1,6.42-2.06,8.51-4.5a13.73,13.73,0,0,0,3.33-9.64c-.14-2.45-1.21-5.25-3.3-6.56-.88-.56-1.63-.6-3.19-.07"/><path id="path9467" class="cls-8" d="M203.74,423.43c1.24,1.77,2.48,2.66,4.15,2.76,3.19.14,6.41-2.05,8.5-4.5a14,14,0,0,0,3.33-9.64,9,9,0,0,0-3.29-6.55c-.92-.64-1.63-.85-3.37-.46"/><path id="path9469" class="cls-8" d="M209.45,426.79a4.53,4.53,0,0,0,3.75,2.63c3.19.21,6.42-2.06,8.47-4.47a14,14,0,0,0,3.37-9.67,8.87,8.87,0,0,0-3.33-6.52c-.75-.57-1.17-.25-2.73-.39"/><path id="path9471" class="cls-8" d="M215.4,429.38a3.29,3.29,0,0,0,3.08,2.48c3.19.32,6.42-2,8.51-4.46a14.52,14.52,0,0,0,3.33-9.64,6.91,6.91,0,0,0-2-5c-1.06-.95-2.55-1-4.11-1.1"/><path id="path9473" class="cls-8" d="M104.28,470.59c.85-10.17,1.46-20.3,2.52-30.44.57-5.52,1.06-11.09,2-16.58,1.31-7.26,1.63-15,5-21.54a31.23,31.23,0,0,1,8.86-10,29.53,29.53,0,0,1,10.92-5.45,29,29,0,0,1,12.72-.25c4.14.89,7.83,3.22,11.55,5.24,4.67,2.52,8.93,5.74,13.39,8.61"/><path id="path9475" class="cls-8" d="M158.11,457.2c-3.94,1.13-7.76,2.76-11.8,3.4-2.63.39-5.42.92-8,.21-1.27-.35-3.57-1.38-3.4-2.16.11-.39.75-.32,1.14-.32,1.48,0,2.83.92,4.32,1.13a28.48,28.48,0,0,0,6.59,0c3.76-.39,7.41-1.52,11.13-2.26Z"/><path id="path9477" class="cls-8" d="M136.07,448.91c-.46.49-1.74.92-1.35,1.45.46.74,3.3,2.55,5.21,3.29a16.51,16.51,0,0,0,5.77,1,21.59,21.59,0,0,0,6.17-.78,33.33,33.33,0,0,0,4-1.66"/><path id="path9479" class="cls-8" d="M160.27,447.63c-3.33.85-6.59,2.13-10,2.52A23.94,23.94,0,0,1,143,450a15.68,15.68,0,0,1-5.49-2.2,13.25,13.25,0,0,1-2.69-2.8,31.75,31.75,0,0,1,4.89-2.16,23.05,23.05,0,0,1,8.39-.67,22.19,22.19,0,0,1,6.81,2.16A56.59,56.59,0,0,1,160.27,447.63Z"/><path id="path9481" class="cls-8" d="M151.87,449.12c-.11-1.17.32-2.48-.25-3.51a6,6,0,0,0-3.4-2.52,5.62,5.62,0,0,0-3.3,0,5,5,0,0,0-2.37,2.06c-.74,1.24-.6,2.8-.92,4.22"/><path id="path9483" class="cls-7" d="M148.08,448.3a1.28,1.28,0,0,0-.07-1.41,1.67,1.67,0,0,0-1.31-.82,1.48,1.48,0,0,0-1.31.74c-.32.47-.5,1.24-.11,1.63a2.28,2.28,0,0,0,2.8-.14Z"/><path id="path9485" class="cls-7" d="M152.19,437.21a51.67,51.67,0,0,0-8.4,2c-2.37.92-4.64,2.69-6.7,3.65"/><path id="path9487" class="cls-8" d="M123.91,454.57a26,26,0,0,0,1.85-4.42c.56-3.19.14-6.52-.25-9.78-.46-4-1.92-7.84-2.59-11.8-.42-2.27-1.45-4.65-.92-6.91a6,6,0,0,1,1.91-2.84,20.51,20.51,0,0,1,3.65-2.16"/><path id="path9489" class="cls-8" d="M137.2,429.81c1.56-1.7,3.83-2.94,4.68-5.11a4.4,4.4,0,0,0,0-3.29,4.62,4.62,0,0,0-3-2.48,4.77,4.77,0,0,0-3.05.78c-1.2.64-1.87,2.05-3.08,2.62a3.71,3.71,0,0,1-2.83.57c-.29-.11-.64-.5-.57-.78.32-1,2-.78,2.94-1.14,1.31-.49,2.59-.92,3.86-1.38"/><path id="path9491" class="cls-7" d="M144.75,408.62c-1.6.81-3.86.64-5.78.6s-3.9-1-5.84-.89c-2.24.11-4.29,1.6-6.56,1.6a17.85,17.85,0,0,1-4.78-1.06,3.3,3.3,0,0,0,0-1.74c1.63.6,4,1.49,6,1.24s3.29-2.45,5.24-2.48c2.23-.07,4,2.48,6.24,2.59s4.42-1.63,6.13-2a3.88,3.88,0,0,0-.64,2.16Z"/><path id="path9493" class="cls-8" d="M140.81,401.67c-1.59-.67-3.08-1.7-4.78-2a10.24,10.24,0,0,0-3.86,0,13.31,13.31,0,0,0-2.45.88c-.74.32-1.45.71-2.19,1"/><path id="path9495" class="cls-8" d="M129.3,396.68a9,9,0,0,0,3.44.92,6.77,6.77,0,0,0,2.83-.82"/><path id="path9497" class="cls-7" d="M122.78,457.52c-1.56,1.84-5,2.3-7.69,2.51a16.62,16.62,0,0,1-5.85-1,28.44,28.44,0,0,1-3.93-1.73c2.16.42,4.39,1.2,6.63,1.27a24.47,24.47,0,0,0,5.81-.78,16,16,0,0,0,3.79-1.59c.49-.28,1.63.81,1.24,1.28Z"/><path id="path9499" class="cls-8" d="M123.35,450.71A24.67,24.67,0,0,1,118.7,453a16.43,16.43,0,0,1-7.26.57c-1.59-.29-2.94-1.35-4.43-2"/><path id="path9501" class="cls-8" d="M124.37,447.42a25.21,25.21,0,0,1-5.7,1.45,27.39,27.39,0,0,1-6.77.07,10.44,10.44,0,0,1-3.86-1.1,10.14,10.14,0,0,1-1.77-1.81l.35-2.72a20.77,20.77,0,0,1,3.58-1.24,21,21,0,0,1,5.14-.22,17.93,17.93,0,0,1,5.45.89,13.57,13.57,0,0,1,3.58,2.34,11.7,11.7,0,0,1,1,1c-.32.42-.46,1.09-1,1.31Z"/><path id="path9503" class="cls-8" d="M120,448.16c-.07-1.17.32-2.48-.25-3.51a5.8,5.8,0,0,0-3.4-2.51,5,5,0,0,0-3.3,0,4.77,4.77,0,0,0-2.37,2.05c-.74,1.21-.6,2.8-.92,4.18"/><path id="path9505" class="cls-7" d="M116.51,447.31c.32-.35.17-1-.07-1.42a1.89,1.89,0,0,0-1.31-.81,1.6,1.6,0,0,0-1.32.74c-.31.46-.49,1.28-.1,1.67a2.31,2.31,0,0,0,2.8-.18Z"/><path id="path9507" class="cls-8" d="M123.56,442a35.14,35.14,0,0,0-3.79-4.19,27.36,27.36,0,0,0-4-2.12"/><path id="path9509" class="cls-9" d="M107.51,432.46a23.91,23.91,0,0,0-2.62-7,17.2,17.2,0,0,0-4.79-5.64,9.08,9.08,0,0,0-5.56-1.73,6.82,6.82,0,0,0-4.75,2.41,8,8,0,0,0-1.17,5.28,7.82,7.82,0,0,0,1.67,4.64,6,6,0,0,0,3.86,2,3.72,3.72,0,0,0,2.94-.78,3.11,3.11,0,0,0,.78-2.23c0-.85.07-1.73-1-2.34.78.32,1.31,1.31,1.88,2.06a19.73,19.73,0,0,1,1.91,3.51,30.54,30.54,0,0,1,1.49,4.35c.53,2,.92,4.12,1.34,6.13.71,3.23,1.53,7.09,2.06,9.64C106.13,447.28,106.91,438,107.51,432.46Z"/><path id="path9511" class="cls-9" d="M110.24,412.48a49.32,49.32,0,0,0-4.86-12.37,18.83,18.83,0,0,0-4.78-5.63c-1.6-1.17-3.47-2.48-5.46-2.34a7,7,0,0,0-4.85,3,8.39,8.39,0,0,0-1.17,5.25,7.76,7.76,0,0,0,1.66,4.67,6.31,6.31,0,0,0,3.9,2.06,3.86,3.86,0,0,0,2.91-.78,3,3,0,0,0,.78-2.23c-.08-.82,0-1.56-1.07-2.16a5.68,5.68,0,0,1,2,1.84,18.5,18.5,0,0,1,2,3.51c.6,1.41,1,2.94,1.45,4.39.53,1.74,1,3.51,1.56,5.24,1.17,4.11,3,9.71,3.51,12.26.57-5.52,2-11.16,2.52-16.72Z"/><path id="path9513" class="cls-9" d="M112.47,404.65s-.92-2.87-1.56-4.22c-.75-1.52-2.62-4.36-2.62-4.36s-3.23-1.45-4.89-2.05-4.75-1.45-4.75-1.45a43.14,43.14,0,0,1,5.14,4.67,25.76,25.76,0,0,1,3,5.25,54,54,0,0,1,2,5.56c.57,1.67,1.56,5.07,1.56,5.07s.57-3.33,1-5c.28-1.17,1.06-3.47,1.06-3.47Z"/><path id="path9515" class="cls-9" d="M108.29,396.07l6.8,3.9-2.62,4.75Z"/><path id="path9517" class="cls-9" d="M178.66,391.86l-24.91-20.7-28.07,18.47.68-9,27-18.6,35.12,29a13.29,13.29,0,0,0-9.85.82Z"/><path id="path9519" class="cls-8" d="M248.81,382.54l-9.35-10.6,9.18-9.7"/><path id="path9521" class="cls-8" d="M248.46,376.13l-3.37-3.9,3.37-3.51"/><path id="path9523" class="cls-7" d="M235.56,394.55l9.36-9.71-9-9.88-9.11,9.88Zm.18-4.18-5.35-5,5.35-5.88,5.17,5.17Z"/><path id="path9525" class="cls-9" d="M31.08,489.05l38-36h-38Z"/><path id="path9527" class="cls-5" d="M31.08,481.08l23-22h-23Z"/><path id="path9529" class="cls-8" d="M249.38,357,240,346.33l9.17-9.71"/><path id="path9531" class="cls-8" d="M249,350.51l-3.37-3.86L249,343.1"/><path id="path9533" class="cls-8" d="M223.91,381.44l9.17-9.85-9.17-9.71"/><path id="path9535" class="cls-8" d="M224.08,375.77l3.37-3.9-3.37-3.5"/><path id="path9537" class="cls-8" d="M224.61,337.4l8.61,9.28-9.17,9.71"/><path id="path9539" class="cls-8" d="M224.22,342.5l3.33,3.86-3.33,3.55"/><path id="path9541" class="cls-7" d="M236.55,368.79l9.36-9.71-9-9.88-9.5,10.06Zm.18-4.18-5.35-5,5.35-5.88,5.18,5.17Z"/><path id="path9543" class="cls-7" d="M236.16,343.42l9.32-9.71-9-9.56-9.67,9.35Zm.15-4.18-5.35-5,5.35-5.88,5.21,5.14Z"/><path id="path9545" class="cls-8" d="M223.69,388.78l8.4,9.07-7.83,8.39"/><path id="path9547" class="cls-8" d="M223.83,394.05l3.37,3.51-2.76,3.33"/><path id="path9549" class="cls-8" d="M248.42,386.86l-9.95,10.42,5.74,6.06"/><path id="path9551" class="cls-8" d="M248.07,393.28l-3.37,3.89,3.37,3.55"/><path id="path9553" class="cls-5" d="M249.31,330.77l-3.86-4.61"/><path id="path9555" class="cls-5" d="M223.59,331l7.08-7.3"/><path id="path9557" class="cls-5" d="M248.92,400.29l.67-74.13"/><path id="path9559" class="cls-5" d="M223.37,409.33l.22-88.91"/><path id="path9561" class="cls-7" d="M239.89,404.9l-4.4-4.4L227,408.94l1.35,2.3Z"/><path id="path9563" class="cls-9" d="M54.07,453.05v-71l-6-2v73Z"/><path id="path9565" class="cls-9" d="M48.05,173.06v202h6v-204l-23-20v7Z"/><path id="path9567" class="cls-2" d="M39.58,451.07a2.5,2.5,0,0,0,0-5,2.5,2.5,0,1,0,0,5Z"/><path id="path9569" class="cls-2" d="M39.58,437.07a2.5,2.5,0,0,0,0-5,2.5,2.5,0,1,0,0,5Z"/><path id="path9571" class="cls-2" d="M36.57,444.05a2.79,2.79,0,0,0,2.48-2.48,2.83,2.83,0,0,0-2.48-2.52,2.87,2.87,0,0,0-2.52,2.52A2.83,2.83,0,0,0,36.57,444.05Z"/><path id="path9573" class="cls-2" d="M42.56,444.05a2.82,2.82,0,0,0,2.51-2.48,2.86,2.86,0,0,0-2.51-2.52,2.83,2.83,0,0,0-2.48,2.52A2.79,2.79,0,0,0,42.56,444.05Z"/><path id="path9575" class="cls-2" d="M39.41,402.31a2.5,2.5,0,1,0,0-5,2.5,2.5,0,0,0,0,5Z"/><path id="path9577" class="cls-2" d="M39.41,388.31a2.82,2.82,0,0,0,2.51-2.51,2.79,2.79,0,0,0-2.51-2.48,2.8,2.8,0,0,0-2.49,2.48A2.83,2.83,0,0,0,39.41,388.31Z"/><path id="path9579" class="cls-2" d="M36.43,395.29a2.5,2.5,0,0,0,0-5,2.5,2.5,0,1,0,0,5Z"/><path id="path9581" class="cls-2" d="M42.42,395.29a2.5,2.5,0,1,0,0-5,2.5,2.5,0,1,0,0,5Z"/><path id="path9583" class="cls-2" d="M39.62,353.52a2.5,2.5,0,0,0,0-5,2.5,2.5,0,1,0,0,5Z"/><path id="path9585" class="cls-2" d="M39.62,339.52a2.5,2.5,0,0,0,0-5,2.5,2.5,0,1,0,0,5Z"/><path id="path9587" class="cls-2" d="M36.61,346.54A2.86,2.86,0,0,0,39.12,344a2.82,2.82,0,0,0-2.51-2.48A2.79,2.79,0,0,0,34.13,344,2.83,2.83,0,0,0,36.61,346.54Z"/><path id="path9589" class="cls-2" d="M42.59,346.54A2.83,2.83,0,0,0,45.11,344a2.79,2.79,0,0,0-2.52-2.48A2.79,2.79,0,0,0,40.11,344,2.83,2.83,0,0,0,42.59,346.54Z"/><path id="path9591" class="cls-2" d="M39.79,304a2.5,2.5,0,1,0,0-5,2.5,2.5,0,0,0,0,5Z"/><path id="path9593" class="cls-2" d="M39.79,290a2.5,2.5,0,1,0,0-5,2.5,2.5,0,0,0,0,5Z"/><path id="path9595" class="cls-2" d="M36.82,297a2.52,2.52,0,0,0,0-5,2.52,2.52,0,1,0,0,5Z"/><path id="path9597" class="cls-2" d="M42.81,297a2.52,2.52,0,0,0,0-5,2.52,2.52,0,1,0,0,5Z"/><path id="path9599" class="cls-2" d="M39.79,255.58a2.83,2.83,0,0,0,2.52-2.48,2.86,2.86,0,0,0-2.52-2.51,2.83,2.83,0,0,0-2.48,2.51A2.8,2.8,0,0,0,39.79,255.58Z"/><path id="path9601" class="cls-2" d="M39.79,241.59a2.5,2.5,0,1,0,0-5,2.5,2.5,0,0,0,0,5Z"/><path id="path9603" class="cls-2" d="M36.82,248.6a2.5,2.5,0,0,0,0-5,2.5,2.5,0,1,0,0,5Z"/><path id="path9605" class="cls-2" d="M42.81,248.6a2.5,2.5,0,0,0,0-5,2.5,2.5,0,1,0,0,5Z"/><path id="path9607" class="cls-2" d="M40.36,207a2.5,2.5,0,1,0,0-5,2.5,2.5,0,0,0,0,5Z"/><path id="path9609" class="cls-2" d="M40.36,193a2.5,2.5,0,1,0,0-5,2.5,2.5,0,0,0,0,5Z"/><path id="path9611" class="cls-2" d="M37.39,200a2.83,2.83,0,0,0,2.48-2.51A2.8,2.8,0,0,0,37.39,195a2.83,2.83,0,0,0-2.52,2.48A2.86,2.86,0,0,0,37.39,200Z"/><path id="path9613" class="cls-2" d="M43.37,200a2.86,2.86,0,0,0,2.52-2.51A2.83,2.83,0,0,0,43.37,195a2.79,2.79,0,0,0-2.48,2.48A2.82,2.82,0,0,0,43.37,200Z"/><path id="path9615" class="cls-2" d="M46.07,414.07v5l-13,12v-5Z"/><path id="path9617" class="cls-2" d="M46.07,406.07v5l-13,12v-5Z"/><path id="path9619" class="cls-2" d="M46.07,364.08v5l-13,12v-5Z"/><path id="path9621" class="cls-2" d="M46.07,356.07v5l-13,12v-5Z"/><path id="path9623" class="cls-2" d="M46.07,314.08v5l-13,12v-5Z"/><path id="path9625" class="cls-2" d="M46.07,306.07v5l-13,12v-5Z"/><path id="path9627" class="cls-2" d="M46.07,266.07v5l-13,12v-5Z"/><path id="path9629" class="cls-2" d="M46.07,258.06v5l-13,12v-5Z"/><path id="path9631" class="cls-2" d="M46.07,219.05v5l-13,12v-5Z"/><path id="path9633" class="cls-2" d="M46.07,211.08v5l-13,12v-5Z"/><path id="path9635" class="cls-2" d="M45.92,172.81l.15,1.24-13,12v-5l10-9.89Z"/><path id="path9637" class="cls-2" d="M39.3,167.57l2.41,2-8.65,8.5v-5Z"/><path id="path9639" class="cls-7" d="M113.57,370.1l9.35-9.74-9-9.89-9.67,9.71Zm.17-4.21-5.35-5,5.35-5.85,5.18,5.14Z"/><path id="path9641" class="cls-7" d="M109.85,397.6l10.52-8.47-7.69-10.95-10.81,8.4Zm.67-4.15-4.64-5.63,6.06-5.14,4.46,5.78Z"/><path id="path9643" class="cls-7" d="M113.92,344.24l8.26-9.93-10-8.22L103.79,336Zm-.28-3.9-5.85-4.08,4.68-5.95,5.7,4.25Z"/><path id="path9645" class="cls-7" d="M111.48,320.85l7.83-11L109,301.36l-8.18,11Zm-.46-4.18-6-4.15,4.43-6.59,5.88,4.33Z"/><path id="path9647" class="cls-7" d="M107.29,295.05l6-12L101.8,276.2l-6.38,12.16Zm-1.09-4-6.59-3.19,3.36-7.2,6.49,3.37Z"/><path id="path9649" class="cls-7" d="M100,269.65l4.89-12.58L92.8,251.4l-5.21,12.69Zm-1.49-3.93-6.84-2.56,2.66-7.47,6.77,2.73Z"/><path id="path9651" class="cls-7" d="M89.29,244l2.41-13.26-13-3.29L76,240.88Zm-2.19-3.58-7.23-1.21,1.24-7.83,7.16,1.42Z"/><path id="path9653" class="cls-7" d="M75.83,220.29l1.28-13.43L63.89,204.7l-1.52,13.64Zm-2.48-3.4-7.3-.57.53-7.93,7.27.81Z"/><path id="path9655" class="cls-8" d="M99.82,382.29l10.2-8.18-8.08-10"/><path id="path9657" class="cls-8" d="M100.6,377.08l3.75-3.29-2.94-3.62"/><path id="path9659" class="cls-8" d="M98.58,391.57s1.45-12.33,2-18.49c.75-8.58,1.85-17.15,1.74-25.76a190.49,190.49,0,0,0-2-22.5c-1-8-2.19-15.91-4-23.74a224.49,224.49,0,0,0-7.51-25.76,203.44,203.44,0,0,0-9.5-22.25,239.79,239.79,0,0,0-12.72-22.75c-3.54-5.6-11.51-16.27-11.51-16.27"/><path id="path9661" class="cls-8" d="M126,364.93l-10.63,11.34,9.5,11.41"/><path id="path9663" class="cls-8" d="M125.61,371.45l-4.53,4.75,4.18,5.17"/><path id="path9665" class="cls-8" d="M102.55,356.5l8.54-8.22-7.91-8.69"/><path id="path9667" class="cls-8" d="M102.87,351.64l3.15-3.26-2.91-3.15"/><path id="path9669" class="cls-8" d="M127,335l-10.24,11.7,9.85,11.09"/><path id="path9671" class="cls-8" d="M126.78,341.54l-4.36,4.93,4.36,5"/><path id="path9673" class="cls-8" d="M124.23,309.72l-9,12.69,10.91,10"/><path id="path9675" class="cls-8" d="M124.69,316.24l-3.82,5.32,4.85,4.57"/><path id="path9677" class="cls-8" d="M119.48,284.39,112,298l12,8.68"/><path id="path9679" class="cls-8" d="M120.69,290.8l-3.19,5.74,5.35,4"/><path id="path9681" class="cls-8" d="M109.07,258.31l-5.32,14.63,13.18,6.77"/><path id="path9683" class="cls-8" d="M111.23,264.48l-2.31,6.16,5.89,3.12"/><path id="path9685" class="cls-8" d="M96.52,231.84,93,247l13.93,5.14"/><path id="path9687" class="cls-8" d="M99.39,237.72l-1.52,6.38,6.2,2.38"/><path id="path9689" class="cls-10" d="M81.75,207.71l-2,15.42L92.94,227"/><path id="path9691" class="cls-10" d="M84.9,213.31,84,219.79l5.92,1.85"/><path id="path9693" class="cls-10" d="M63.85,184.36l.75,16,13.68,1.49"/><path id="path9695" class="cls-10" d="M67.93,190l.25,6.48,6.13.74"/><path id="path9697" class="cls-8" d="M100.31,237.33c-4-6.69-7.79-13.46-12-20-5.38-8.43-10.88-16.79-17-24.73-5.17-6.73-11-12.86-16.51-19.27"/><path id="path9699" class="cls-8" d="M60.31,180.82l-5.74-.75"/><path id="path9701" class="cls-7" d="M54.82,184.08l5.49,1.24-.5,14.49-5-1.24Z"/><path id="path9703" class="cls-8" d="M58.82,217.81l1-13-5-1.24"/><path id="path9705" class="cls-8" d="M101.38,333.25l7.47-9.28-9-7.58"/><path id="path9707" class="cls-8" d="M101.09,328.36l2.73-3.65L100.56,322"/><path id="path9709" class="cls-8" d="M99.07,308.63l5.74-10.39-10.09-5.95"/><path id="path9711" class="cls-8" d="M97.94,303.88l2.06-4-3.69-2.16"/><path id="path9713" class="cls-8" d="M92.55,284.28l4.86-10.84-10.56-5.1"/><path id="path9715" class="cls-8" d="M91,279.61l1.7-4.19-3.86-1.84"/><path id="path9717" class="cls-8" d="M84.37,259.83l2.91-11.51L76,245.13"/><path id="path9719" class="cls-8" d="M82.07,255.51l1-4.43L78.88,250"/><path id="path9721" class="cls-8" d="M72.39,236.8,74,225l-11.58-1.84"/><path id="path9723" class="cls-8" d="M69.59,232.76l.43-4.5-4.22-.67"/><path id="path9725" class="cls-7" d="M80.08,342.57c-3.19-8.75-5.81-17.72-9.53-26.26-2.34-5.38-4.61-10.91-8-15.73-2.23-3.19-5.35-5.67-8-8.5l.25,14,4.5-1-2.52,6.24,5.78.25-3.51,4.25,5.24.49-3.26,4.5,5.78.25-4,5,6.48.49-3.76,5,5.78.53-3.51,4.75,5,.74-3.26,5.5,7,.24Z"/><path id="path9727" class="cls-11" d="M69.06,376.83c-2.34,2.52-6.2,3.16-9.49,4.19a16.58,16.58,0,0,1-5.5,1,11.56,11.56,0,0,1-6-1.74,4.19,4.19,0,0,1-2-2.76,2.94,2.94,0,0,1,1.24-2.23,5.31,5.31,0,0,1,2.26-.75c1.24-.35,2.63-.14,3.76-.74a5.32,5.32,0,0,0,2.41-2.55,7.44,7.44,0,0,0,.11-4.11,14.51,14.51,0,0,0-1.78-4.29l.25-14.28c2.84-.32,5.81-1.24,8.75-1,1.74.14,3.69.35,5,1.48,2.37,2.13,3,5.67,3.76,8.76a27.58,27.58,0,0,1,.49,9.74c-.46,3.26-1,6.87-3.26,9.28Z"/><path id="path9729" class="cls-11" d="M100.31,333.57c-4.5,1.84-8.07,3.37-12,5.24-3.36,1.63-6.69,3.44-10,5.25-3.12,1.7-6.73,3.58-9.25,5.24"/><path id="path9731" class="cls-11" d="M98.83,391.82c-5.42-2.58-10.92-5.06-16.27-7.76-4.28-2.16-8.5-4.5-12.75-6.73"/><path id="path9733" class="cls-11" d="M74.55,379.56a85.21,85.21,0,0,0,2.77-11,41.93,41.93,0,0,0,0-11.52c-.57-3.36-3.26-9.74-3.26-9.74l12.75-7.27-5.49,9,6,6-6.48,7.23,6,8.25-5.24,4.25,3.26,10Z"/><path id="path9735" class="cls-8" d="M97.05,389.8l-7.47-12.22,6.48-6.27-6.23-8.51,6.48-8-5.74-5.78,7-13.5"/><path id="path9737" class="cls-8" d="M98.58,383.32l-2.52-4,3.76-3"/><path id="path9739" class="cls-8" d="M100.56,366.31l-3-3.76,3.26-4.25"/><path id="path9741" class="cls-8" d="M101.31,351.82l-3.23-4.5,3.23-5"/><path id="path9743" class="cls-9" d="M94.33,327.33l-11.27,5.5s-3.4-11.45-5.49-17c-1.78-4.75-3.48-9.6-6-14-2.94-5.06-10.53-14-10.53-14V235.56s9.89,15.7,14,24a202,202,0,0,1,11,26.5,187,187,0,0,1,5.74,23.28C92.94,315.25,94.33,327.33,94.33,327.33Z"/><path id="path9745" class="cls-9" d="M96.38,484.55s-.67-7.3-2.3-10.49a22.69,22.69,0,0,0-7-7.76,21.38,21.38,0,0,0-8.25-3.47,25,25,0,0,0-7.48,0,43.1,43.1,0,0,0-5,1s3.22,1,4.25,2.23c2.23,2.56,2.55,6.28,3.51,9.5s1.17,6.63,2.27,9.78,2.09,6.63,4.25,9.25a11,11,0,0,0,4.5,3.22,13.41,13.41,0,0,0,3.29.53Z"/><path id="path9747" class="cls-8" d="M91.56,491.6c-1.2-4-2.23-7.79-4.25-11.27a41.52,41.52,0,0,0-6.48-8c-1.56-1.63-3.33-3-5-4.5"/><path id="path9749" class="cls-8" d="M83,488.45c1.77-1,5.71-.11,7.66.28,1.34-2.66,2.44-4.71,2.33-7.19"/><path id="path9751" class="cls-8" d="M81.36,483.91c1.77-1,5.1-.67,7-.28,1.35-2.66,2.44-5.24,2.34-7.72"/><path id="path9753" class="cls-8" d="M79.09,477.75c1.81-1,4.36-.25,6.31.14,1.34-2.66,1.06-5.07.95-7.55"/><path id="path9755" class="cls-8" d="M76.5,473.25c1.78-1,2.91-.07,4.86.32,1.34-2.66.64-3.69.53-6.17"/><path id="path9757" class="cls-8" d="M91.07,492.7a9.23,9.23,0,0,0-5.32.35"/><path id="path9759" class="cls-2" d="M211.15,399.48c.85-.32,1.95-.89,2-1.81s-.88-1.67-1.63-2.16a6.54,6.54,0,0,0-1.52-.43c-.53-.18-1.24-.25-1.59-.74s-.11-1.24-.25-1.84c-.43-1.49-.6-3.26-1.74-4.29a6.35,6.35,0,0,0-3.86-1.28,16.81,16.81,0,0,0-3.47.43,15,15,0,0,1-2.73.32,2.72,2.72,0,0,1-1.31-.39,2,2,0,0,1-.5-1.14,12.67,12.67,0,0,1-.1-2.62,15.71,15.71,0,0,0-.11-3.37,6.72,6.72,0,0,0-1.91-3.47,7.19,7.19,0,0,0-4-1.17,17.63,17.63,0,0,0-3.47.64,11.56,11.56,0,0,1-2.66.5,1.53,1.53,0,0,1-1.13-.29c-.18-.14-.18-.46-.21-.67a11,11,0,0,1,.21-2.2,12.76,12.76,0,0,0,.25-3,6.36,6.36,0,0,0-1.39-3.44,7.23,7.23,0,0,0-3.79-1.63,20.13,20.13,0,0,0-3.54.29c-1.45,0-3.22.74-4.36-.18-.88-.71-.57-2.16-.78-3.26a15.9,15.9,0,0,0-.49-3,6.45,6.45,0,0,0-2.17-3,5,5,0,0,0-3-.53,10.87,10.87,0,0,0-2.2.67c-.6.18-1.27.78-1.88.54-.17-.07-.21-.32-.24-.5a16.51,16.51,0,0,1-.61-1.88,7,7,0,0,0-.95-2.37A4.42,4.42,0,0,0,153,350.4a4.53,4.53,0,0,0-3,1.81,6.8,6.8,0,0,0-.81,2.37c-.22.6-.32,1.21-.53,1.81-.08.11-.08.28-.18.32s-.36,0-.53,0a13.51,13.51,0,0,1-1.7-.71,10.5,10.5,0,0,0-2.41-.85,5,5,0,0,0-3.3.64,5.63,5.63,0,0,0-1.81,3.36,11.71,11.71,0,0,0,.11,3.12,11.43,11.43,0,0,1,.11,2.2c0,.18,0,.39-.15.49-.28.25-.74.15-1.09.15a11.32,11.32,0,0,1-2.38-.5c-1.06-.35-2-1.21-3.12-1.28-.95,0-2.33,0-2.76.85s.28,2,.92,2.73c1,1,2.48,1.1,3.76,1.49a12.09,12.09,0,0,0,3.33.71,6.34,6.34,0,0,0,3.61-.85,5.82,5.82,0,0,0,1.85-3.37,13.29,13.29,0,0,0-.08-3.08c0-.78-.63-1.81-.07-2.34s1.24,0,1.85.18c.81.21,1.52.78,2.33.92a5.9,5.9,0,0,0,3.23-.21,6.22,6.22,0,0,0,2.16-2.41c.39-.67,0-2.16.82-2.16s.42,1.59.81,2.3a5.06,5.06,0,0,0,2.2,2.44c1.56.64,3.36-.42,5.06-.38.64,0,1.46-.25,1.95.17s.22,1.53.43,2.27c.6,2.09.6,4.71,2.3,6.06,1.95,1.56,4.89,1,7.37,1a23,23,0,0,1,2.69-.25,2,2,0,0,1,1.28.49,1.29,1.29,0,0,1,.25.75,12.09,12.09,0,0,1-.25,2.23A15.19,15.19,0,0,0,177,376a5.79,5.79,0,0,0,1.56,3.4,6.67,6.67,0,0,0,3.93,1.31A14.41,14.41,0,0,0,186,380a18.5,18.5,0,0,1,2.72-.49,2,2,0,0,1,1.24.25,2,2,0,0,1,.54,1.09,16.72,16.72,0,0,1,.07,2.55,15.49,15.49,0,0,0,.14,3.41,6.48,6.48,0,0,0,1.84,3.5,7,7,0,0,0,3.83,1.32,15,15,0,0,0,3.51-.36,17.37,17.37,0,0,1,2.76-.35c.46,0,1.06,0,1.35.35s.14,1,.24,1.45c.32,1.46.36,3.12,1.32,4.29a7.53,7.53,0,0,0,3.33,1.88,11.48,11.48,0,0,0,1.94.49,1.17,1.17,0,0,0,.36.08Z"/><path id="path9761" class="cls-2" d="M211,387.92a2.14,2.14,0,0,0,1.88-1.38,2.06,2.06,0,0,0-.71-2.23l-58.14-45.89a2.09,2.09,0,0,0-2.38,0l-22.75,15.94a2,2,0,1,0,2.27,3.3l21.58-15.13,57,45a2,2,0,0,0,1.27.46Z"/><path id="path9763" d="M154,327.33V263.45l-9.75,6.8-.32,63.32Z"/><path id="path9765" class="cls-4" d="M212.57,373.18l-21-16.86-.28-54.43,21.3,14.5Z"/><path id="path9767" class="cls-12" d="M191.27,357.24l-.6-56.23"/><path id="path9769" class="cls-12" d="M185.35,353l-.28-57.33"/><path id="path9771" class="cls-12" d="M158.42,330.31,158.14,262"/><path id="path9773" class="cls-8" d="M120.58,285.63,157,261.39"/><path id="path9775" class="cls-12" d="M158.46,271.31l26.33,26.86-26.51,25.66,26.79,27.49"/><path id="path9777" class="cls-12" d="M169.2,339.88l16.05-16.41-26.79-27.92,15.17-14.17"/><path id="path9779" class="cls-12" d="M172,329.64l4.93-5.28L172,318.55l-5.1,5.28Z"/><path id="path9781" class="cls-12" d="M172.17,302l4.29-4.71-4.85-4.92-4.33,4.6Z"/><path id="path9783" class="cls-13" d="M184.18,343.39,179.29,338l5.14-5.42Z"/><path id="path9785" class="cls-13" d="M159,315.36l5.25-5.46-5.32-5.17Z"/><path id="path9787" class="cls-13" d="M184.47,315.39l-4.82-5.24,4.92-4.54Z"/><path id="path9789" class="cls-13" d="M158.85,287.86l4.61-4.75-4.86-4.74Z"/><path id="path9791" class="cls-8" d="M228.12,411.56c7.09-3.54,14.17-7.05,21.23-10.63,5.06-2.55,10.2-5,15.2-7.76,7.19-3.93,14.35-7.94,21.22-12.4,6.45-4.18,12.47-8.93,18.75-13.43-4.15-5.53-8.19-11.13-12.41-16.62-3.58-4.64-7.47-9.07-10.95-13.78-3.22-4.36-6.13-9-9.17-13.43a61.08,61.08,0,0,1-7.44,2.12,72.14,72.14,0,0,1-15.2.36,92.15,92.15,0,0,1-12-1.77A93.58,93.58,0,0,1,224.58,321a82.11,82.11,0,0,1-12.37-5.67,124.06,124.06,0,0,1-13.07-8.47,107.6,107.6,0,0,1-13.08-10.6c-3.86-3.86-6.94-8.43-10.27-12.75-3.62-4.75-6.84-9.82-10.6-14.49a94.36,94.36,0,0,0-8.11-9.18A81.6,81.6,0,0,0,144,249.28a76.75,76.75,0,0,0-14.14-6.74,67.29,67.29,0,0,0-14.49-4.25c-4.89-.71-9.89,0-14.85,0,2.73,5.56,5.64,11,8.15,16.62,3.12,7.09,6.06,14.24,8.47,21.58a193.15,193.15,0,0,1,5.67,20.87c1.49,7.23,2.41,14.56,3.19,21.9.56,5.52.88,11.09,1.06,16.61.18,6.13,0,12.26,0,18.39-.07,5.78-.14,11.55-.35,17.33-.25,6-.71,12-1.07,18"/><path id="path9793" class="cls-3" d="M31.08,151.05v360h270"/><path id="path9795" d="M189,270.53c-.67.08-1.41.68-2.83,1.71l-3.12,2.19L180,276.66c-3.86,2.31-2.8,2.59-.18,5.74l2.94,3.55,2.91,3.51c2.69,3.61,2.55,3.86,5.7,1l2.84-2.58,2.83-2.59c3.33-2.59,2.66-2.76.14-5.78l-2.62-3.15-2.66-3.15c-1.38-1.92-2-2.7-2.87-2.63Zm-.53,5.53a2.84,2.84,0,0,1,1.95.75,2,2,0,0,1,.43,1.34c0,.22-.29.5-.11.68s.39-.18.6-.18a2.05,2.05,0,0,1,1.38.5,2.69,2.69,0,0,1,.75,1.91,2.79,2.79,0,0,1-.75,1.95,2.22,2.22,0,0,1-1.38.42c-.21,0-.46-.28-.6-.1s.11.39.11.6a2.07,2.07,0,0,1-.43,1.38,2.94,2.94,0,0,1-3.9,0,2.33,2.33,0,0,1-.46-1.38c0-.21.32-.46.18-.6s-.46.14-.67.1a2.13,2.13,0,0,1-1.35-.42,2.78,2.78,0,0,1-.74-1.95,2.68,2.68,0,0,1,.74-1.91,2,2,0,0,1,1.35-.5c.21,0,.49.32.67.18s-.18-.46-.18-.68a2.28,2.28,0,0,1,.46-1.34A2.86,2.86,0,0,1,188.47,276.06Z"/><path id="path9797" d="M202.5,286.3c-.63.14-1.31.89-2.51,2.13l-2.7,2.69-2.65,2.69c-3.48,2.95-2.34,3.05.74,5.71l3.51,3,3.44,3c3.26,3.12,3.15,3.4,5.81,0l2.34-3.05,2.37-3c2.87-3.11,2.2-3.19-.82-5.74l-3.11-2.69-3.12-2.66c-1.7-1.66-2.48-2.34-3.3-2.09Zm.39,5.53a2.75,2.75,0,0,1,2.06.43,1.82,1.82,0,0,1,.64,1.24c.07.21-.18.53,0,.67s.35-.25.6-.25a2.23,2.23,0,0,1,1.42.21,2.77,2.77,0,0,1,1.06,1.81,2.69,2.69,0,0,1-.43,2,2.08,2.08,0,0,1-1.27.67c-.21,0-.5-.21-.64,0s.21.39.25.6a2.53,2.53,0,0,1-.21,1.42,2.77,2.77,0,0,1-1.81,1.06,2.73,2.73,0,0,1-2-.42,2.12,2.12,0,0,1-.71-1.28c0-.21.25-.5.07-.64s-.39.21-.64.25a2,2,0,0,1-1.38-.21,2.7,2.7,0,0,1-1.06-1.77,2.79,2.79,0,0,1,.42-2.06,2,2,0,0,1,1.24-.67c.22-.07.54.21.68,0s-.25-.39-.29-.6a2.2,2.2,0,0,1,.25-1.42,2.78,2.78,0,0,1,1.77-1.06Z"/><path id="path9799" d="M218.38,298.63c-.57.36-1,1.28-1.74,2.84l-1.7,3.4-1.66,3.4c-2.38,3.86-1.25,3.62,2.51,5.17l4.25,1.74,4.22,1.74c4.07,1.91,4.07,2.23,5.49-1.85l1.28-3.61,1.31-3.58c1.73-3.9,1.06-3.72-2.59-5.21L226,301.15l-3.83-1.56c-2.12-1-3-1.45-3.75-1Zm2.12,5.14a2.79,2.79,0,0,1,2.06-.25,2.09,2.09,0,0,1,1,1c.1.21,0,.57.17.64s.29-.32.5-.43a2.26,2.26,0,0,1,1.42-.21,2.66,2.66,0,0,1,1.56,1.35,2.59,2.59,0,0,1,.24,2.05,2,2,0,0,1-1,1c-.18.14-.57,0-.6.21s.28.28.39.46a2.13,2.13,0,0,1,.25,1.45,2.87,2.87,0,0,1-3.4,1.81,2,2,0,0,1-1.07-1c-.1-.18,0-.57-.14-.64s-.32.32-.53.43a1.94,1.94,0,0,1-1.38.25,2.74,2.74,0,0,1-1.6-1.35,2.89,2.89,0,0,1-.25-2.09,2,2,0,0,1,1-1c.17-.11.56,0,.63-.18s-.35-.32-.46-.49a2.27,2.27,0,0,1-.21-1.42,2.75,2.75,0,0,1,1.38-1.56Z"/><path id="path9801" d="M237.09,306.46c-.43.54-.57,1.53-.82,3.23l-.64,3.75-.6,3.76c-1.13,4.36-.14,3.79,3.93,4.18l4.57.43,4.58.42c4.42.64,4.5.92,4.67-3.36L253,315l.18-3.83c.53-4.21-.07-3.82-4-4.18l-4.11-.39-4.11-.35c-2.34-.36-3.33-.46-3.86.17Zm3.5,4.29a2.83,2.83,0,0,1,1.92-.81,1.85,1.85,0,0,1,1.27.63c.14.15.14.54.36.54s.17-.39.35-.54a2.16,2.16,0,0,1,1.28-.63,2.62,2.62,0,0,1,1.91.81,2.81,2.81,0,0,1,.85,1.91,2.11,2.11,0,0,1-.67,1.28c-.14.18-.53.14-.53.35s.39.18.53.36a2.12,2.12,0,0,1,.67,1.27,2.92,2.92,0,0,1-2.73,2.77,2.22,2.22,0,0,1-1.31-.67c-.18-.15-.1-.54-.35-.54s-.18.39-.36.54a2.32,2.32,0,0,1-1.27.67,2.74,2.74,0,0,1-1.88-.85,2.81,2.81,0,0,1-.85-1.92,2,2,0,0,1,.6-1.27c.18-.18.6-.11.57-.36s-.43-.17-.57-.35a2,2,0,0,1-.6-1.28A2.82,2.82,0,0,1,240.59,310.75Z"/><path id="path9803" d="M174.76,273.76c.64-.07,1.42-.67,2.83-1.67l3.09-2.23,3.11-2.2c3.87-2.3,2.77-2.62.18-5.77L181,258.38l-2.9-3.54c-2.7-3.58-2.56-3.86-5.71-1l-2.83,2.62-2.84,2.55c-3.36,2.59-2.69,2.77-.14,5.78l2.62,3.15,2.66,3.16c1.38,1.91,2,2.73,2.87,2.62Zm.53-5.53a2.82,2.82,0,0,1-1.95-.74,2,2,0,0,1-.42-1.35c0-.21.24-.49.1-.64s-.39.18-.6.15a2.32,2.32,0,0,1-1.38-.47,2.76,2.76,0,0,1-.75-1.94,2.82,2.82,0,0,1,.75-1.95,2.29,2.29,0,0,1,1.38-.43c.21,0,.46.29.6.14s-.14-.42-.1-.63a2.09,2.09,0,0,1,.42-1.39,2.82,2.82,0,0,1,1.95-.74,2.72,2.72,0,0,1,1.91.74,2.15,2.15,0,0,1,.5,1.39c0,.21-.32.46-.18.63s.43-.14.68-.14a2.26,2.26,0,0,1,1.34.43,2.82,2.82,0,0,1,.75,1.95,2.76,2.76,0,0,1-.75,1.94,2.29,2.29,0,0,1-1.34.47c-.25,0-.5-.32-.68-.15s.18.43.18.64a2,2,0,0,1-.5,1.35A2.72,2.72,0,0,1,175.29,268.23Z"/><path id="path9805" d="M161.54,257.71c.64-.18,1.31-.92,2.55-2.13l2.66-2.73,2.69-2.69c3.44-2.9,2.31-3-.78-5.7l-3.47-3-3.47-3c-3.22-3.08-3.12-3.37-5.78,0l-2.33,3-2.38,3c-2.87,3.12-2.2,3.15.78,5.7l3.12,2.69,3.15,2.66c1.7,1.67,2.45,2.34,3.26,2.13Zm-.39-5.53a2.84,2.84,0,0,1-2-.42,2.08,2.08,0,0,1-.67-1.28c0-.21.21-.53,0-.64s-.39.21-.61.25a2.09,2.09,0,0,1-1.41-.25,2.75,2.75,0,0,1-1.07-1.77,2.78,2.78,0,0,1,.39-2,2.1,2.1,0,0,1,1.31-.64c.22-.07.5.21.64,0s-.21-.36-.25-.57a2,2,0,0,1,.22-1.45,2.72,2.72,0,0,1,1.77-1.07,2.8,2.8,0,0,1,2,.43,2.14,2.14,0,0,1,.68,1.28c0,.21-.22.49,0,.63s.39-.21.6-.21a2.12,2.12,0,0,1,1.42.18,2.76,2.76,0,0,1,1.06,1.81,2.67,2.67,0,0,1-.42,2,2.09,2.09,0,0,1-1.24.71c-.21,0-.57-.24-.68-.07s.25.43.25.64a2.2,2.2,0,0,1-.21,1.42,3,3,0,0,1-1.81,1.06Z"/><path id="path9807" d="M144.43,244.1c.57-.39,1-1.27,1.73-2.83l1.71-3.4,1.66-3.44c2.34-3.83,1.24-3.58-2.51-5.14l-4.26-1.74-4.25-1.77c-4-1.91-4-2.19-5.46,1.88l-1.27,3.62-1.31,3.57c-1.74,3.87-1.06,3.69,2.58,5.18l3.8,1.56,3.82,1.52C142.8,244.17,143.72,244.56,144.43,244.1ZM142.3,239a2.76,2.76,0,0,1-2.05.25,2,2,0,0,1-1-1c-.11-.18,0-.57-.18-.64s-.28.36-.49.43a2,2,0,0,1-1.42.25,2.84,2.84,0,0,1-1.84-3.44,2.21,2.21,0,0,1,1-1c.18-.11.54,0,.61-.18s-.32-.28-.39-.49a2.25,2.25,0,0,1-.29-1.42,2.88,2.88,0,0,1,1.39-1.56,2.76,2.76,0,0,1,2.05-.25,2,2,0,0,1,1.06,1c.11.17-.07.53.15.6s.31-.32.53-.39a1.93,1.93,0,0,1,1.38-.25,2.81,2.81,0,0,1,1.59,1.35,2.78,2.78,0,0,1,.25,2.05,2.21,2.21,0,0,1-1,1.06c-.18.11-.57-.07-.64.18s.36.29.43.5a2.16,2.16,0,0,1,.24,1.42A2.9,2.9,0,0,1,142.3,239Z"/><path id="path9809" d="M125.76,236.13c.42-.5.53-1.49.81-3.19l.6-3.76.61-3.75c1.13-4.4.14-3.83-3.94-4.22l-4.57-.42-4.53-.43c-4.43-.64-4.54-.92-4.72,3.4l-.14,3.83-.21,3.79c-.53,4.22.07,3.86,4,4.22l4.08.35,4.11.36C124.2,236.7,125.22,236.8,125.76,236.13Zm-3.55-4.29a2.77,2.77,0,0,1-1.91.85,2,2,0,0,1-1.24-.64c-.18-.14-.18-.56-.39-.56s-.14.42-.32.56a2.1,2.1,0,0,1-1.31.64,2.85,2.85,0,0,1-1.91-.85,2.67,2.67,0,0,1-.82-1.88,2,2,0,0,1,.64-1.27c.14-.18.53-.14.53-.36s-.39-.21-.53-.35a2.3,2.3,0,0,1-.67-1.31,2.92,2.92,0,0,1,2.76-2.73,2.17,2.17,0,0,1,1.31.64c.14.14.11.57.32.57s.21-.43.39-.57a1.9,1.9,0,0,1,1.24-.64,2.77,2.77,0,0,1,1.91.85,2.73,2.73,0,0,1,.82,1.88,2,2,0,0,1-.61,1.27c-.14.18-.56.15-.56.36s.42.21.56.35a2.29,2.29,0,0,1,.64,1.31A2.76,2.76,0,0,1,122.21,231.84Z"/><path id="path9811" d="M262.35,307.21l-1.56.32c-2.13.25-3,.42-3.33,1.2a9.11,9.11,0,0,0,.07,3.26l.36,3.79.35,3.83c.07,4.5.78,3.72,4.39,3.05l4-.78,3.89-.71-1.91-3.3a2.59,2.59,0,0,1-.78.39,1.83,1.83,0,0,1-1.27-.28c-.18-.11-.22-.5-.39-.43s-.11.43-.22.64a1.78,1.78,0,0,1-.95.89,2.07,2.07,0,0,1-1.81-.29,2.83,2.83,0,0,1-1.17-1.66,2.35,2.35,0,0,1,.21-1.38c.07-.18.5-.25.43-.46s-.43-.11-.6-.22a1.93,1.93,0,0,1-.82-1.09,3,3,0,0,1,.28-2.06,2.6,2.6,0,0,1,1.42-1.27,1.53,1.53,0,0,1,1.24.28c.18.1.25.49.46.46l.11-.11-2.41-4.07Z"/><path id="path9813" d="M100.42,235.42l1.56-.32c2.13-.25,3-.42,3.33-1.2.25-.61.11-1.56,0-3.26l-.39-3.83-.36-3.79c0-4.5-.78-3.72-4.36-3.05l-4,.78-3.89.71,1.94,3.3a2.16,2.16,0,0,1,.75-.39,1.83,1.83,0,0,1,1.27.28c.18.11.22.46.43.42s.07-.42.18-.63a2,2,0,0,1,1-.92,2.22,2.22,0,0,1,1.81.31,3.19,3.19,0,0,1,1.21,1.63,2.28,2.28,0,0,1-.25,1.42c-.07.18-.5.25-.43.46s.43.11.6.21a2,2,0,0,1,.82,1.1,2.89,2.89,0,0,1-.28,2A2.34,2.34,0,0,1,99.82,232a1.74,1.74,0,0,1-1.24-.28c-.18-.11-.25-.5-.46-.46,0,0-.07.07-.11.11l2.41,4.07Z"/><path id="path9815" d="M96.06,102.05c2,4,7,10,12,10,9,0,13-8,13-18s-4-19-13-19c-5,0-8,5-11,8-1,1-2,0-1-1,3-3,8-11,8-18,0-8-5-18-13-18s-13,10-13,18c0,7,5,15,8,18,1,1,0,2-1,1-3-3-6-8-11-8-9,0-13,9-13,19s4,18,13,18c5,0,10-6,12-10,1-1,1,0,1,1-1,8-1,10-2,16s-4,17-4,17c5-2,15-2,20,0,0,0-3-11-4-17s-1-8-2-16C95.07,102.05,95.07,101.06,96.06,102.05Z"/><path id="path9817" d="M33.56,119.06c1,2,3.51,5,6,5,4.5,0,6.49-4,6.49-9s-2-9.49-6.49-9.49c-2.51,0-4,2.51-5.53,4-.49.5-1,0-.49-.49,1.52-1.49,4-5.5,4-9,0-4-2.48-9-6.48-9s-6.52,5-6.52,9c0,3.5,2.51,7.51,4,9,.5.49,0,1-.49.49-1.49-1.49-3-4-5.5-4-4.5,0-6.52,4.5-6.52,9.49s2,9,6.52,9c2.48,0,5-3,6-5,.5-.5.5,0,.5.49-.5,4-.5,5-1,8s-2,8.51-2,8.51a17,17,0,0,1,10,0s-1.52-5.5-2-8.51-.49-4-1-8C33.06,119.06,33.06,118.56,33.56,119.06Z"/><path id="path9819" d="M266.07,440.08c-2-4-7-10-12-10-9,0-13,8-13,18s4,19,13,19c5,0,8-5,11-8,1-1,2,0,1,1-3,3-8,11-8,18,0,8,5,18,13,18s13-10,13-18c0-7-5-15-8-18-1-1,0-2,1-1,3,3,6,8,11,8,9,0,13-9,13-19s-4-18-13-18c-5,0-10,6-12,10-1,1-1,0-1-1,1-8,1-10,2-16s4-17,4-17c-5,2-15,2-20,0,0,0,3,11,4,17s1,8,2,16C267.06,440.08,267.06,441.07,266.07,440.08Z"/><path id="path9821" d="M328.57,423.07c-1-2-3.5-5-6-5-4.5,0-6.48,4-6.48,9s2,9.49,6.48,9.49c2.52,0,4-2.51,5.53-4,.49-.5,1,0,.49.5-1.52,1.48-4,5.49-4,9,0,4,2.48,9,6.48,9s6.52-5,6.52-9c0-3.51-2.51-7.52-4-9-.5-.5,0-1,.5-.5,1.48,1.49,3,4,5.49,4,4.5,0,6.52-4.5,6.52-9.49s-2-9-6.52-9c-2.48,0-5,3-6,5-.5.5-.5,0-.5-.49.5-4,.5-5,1-8s2-8.5,2-8.5a17.17,17.17,0,0,1-10,0s1.52,5.49,2,8.5.49,4,1,8C329.07,423.07,329.07,423.57,328.57,423.07Z"/></g></g></g></svg>