<svg xmlns="http://www.w3.org/2000/svg" viewBox="0 0 361.5 541.5"><defs><style>.cls-1{fill:#fff;stroke:#000;stroke-width:2.5px;}</style></defs><title>g3026</title><g id="Layer_2" data-name="Layer 2"><g id="svg2"><g id="g3026"><rect id="rect6472-82" class="cls-1" x="1.25" y="1.25" width="359" height="539" rx="29.94"/><path id="rect3163-52-9-8-1-38-1" d="M30.75,30.75a10,10,0,0,0-10,10v5h5v-5a5,5,0,0,1,10,0v5a8.13,8.13,0,0,1-1,3.9c-4.46,9.1-9.28,17.13-14,26.1v5h20v-10h-5v5h-9.5c4.49-7.92,8.22-15.57,12.5-23.6a11.2,11.2,0,0,0,2-6.4v-5A10,10,0,0,0,30.75,30.75Z"/><path id="rect3163-52-9-8-1-38-8-6" d="M330.75,510.75a10,10,0,0,0,10-10v-5h-5v5a5,5,0,0,1-10,0v-5a8.13,8.13,0,0,1,1-3.9c4.46-9.1,9.28-17.13,14-26.1v-5h-20v10h5v-5h9.5c-4.49,7.92-8.22,15.57-12.5,23.6a11.2,11.2,0,0,0-2,6.4v5A10,10,0,0,0,330.75,510.75Z"/><path id="path3037-1-83" d="M33.25,118.75c1,2,3.5,5,6,5,4.5,0,6.5-4,6.5-9s-2-9.5-6.5-9.5c-2.5,0-4,2.5-5.5,4-.5.5-1,0-.5-.5,1.5-1.5,4-5.5,4-9,0-4-2.5-9-6.5-9s-6.5,5-6.5,9c0,3.5,2.5,7.5,4,9,.5.5,0,1-.5.5-1.5-1.5-3-4-5.5-4-4.5,0-6.5,4.5-6.5,9.5s2,9,6.5,9c2.5,0,5-3,6-5,.5-.5.5,0,.5.5-.5,4-.5,5-1,8s-2,8.5-2,8.5a17,17,0,0,1,10,0s-1.5-5.5-2-8.5-.5-4-1-8C32.75,118.75,32.75,118.25,33.25,118.75Z"/><path id="path3037-1-1-14" d="M333.25,422.75c1-2,3.5-5,6-5,4.5,0,6.5,4,6.5,9s-2,9.5-6.5,9.5c-2.5,0-4-2.5-5.5-4-.5-.5-1,0-.5.5,1.5,1.5,4,5.5,4,9,0,4-2.5,9-6.5,9s-6.5-5-6.5-9c0-3.5,2.5-7.5,4-9,.5-.5,0-1-.5-.5-1.5,1.5-3,4-5.5,4-4.5,0-6.5-4.5-6.5-9.5s2-9,6.5-9c2.5,0,5,3,6,5,.5.5.5,0,.5-.5-.5-4-.5-5-1-8s-2-8.5-2-8.5a17,17,0,0,0,10,0s-1.5,5.5-2,8.5-.5,4-1,8C332.75,422.75,332.75,423.25,333.25,422.75Z"/><path id="path3037-84" d="M185.75,101.75c2,4,7,10,12,10,9,0,13-8,13-18s-4-19-13-19c-5,0-8,5-11,8-1,1-2,0-1-1,3-3,8-11,8-18,0-8-5-18-13-18s-13,10-13,18c0,7,5,15,8,18,1,1,0,2-1,1-3-3-6-8-11-8-9,0-13,9-13,19s4,18,13,18c5,0,10-6,12-10,1-1,1,0,1,1-1,8-1,10-2,16s-4,17-4,17c5-2,15-2,20,0,0,0-3-11-4-17s-1-8-2-16C184.75,101.75,184.75,100.75,185.75,101.75Z"/><path id="path3037-7-92" d="M185.75,439.75c2-4,7-10,12-10,9,0,13,8,13,18s-4,19-13,19c-5,0-8-5-11-8-1-1-2,0-1,1,3,3,8,11,8,18,0,8-5,18-13,18s-13-10-13-18c0-7,5-15,8-18,1-1,0-2-1-1-3,3-6,8-11,8-9,0-13-9-13-19s4-18,13-18c5,0,10,6,12,10,1,1,1,0,1-1-1-8-1-10-2-16s-4-17-4-17c5,2,15,2,20,0,0,0-3,11-4,17s-1,8-2,16C184.75,439.75,184.75,440.75,185.75,439.75Z"/></g></g></g></svg>