<svg xmlns="http://www.w3.org/2000/svg" viewBox="0 0 361.5 541.5"><defs><style>.cls-1{fill:#fff;stroke:#000;stroke-width:2.5px;}</style></defs><title>g3087</title><g id="Layer_2" data-name="Layer 2"><g id="svg2"><g id="g3087"><rect id="rect6472-13" class="cls-1" x="1.25" y="1.25" width="359" height="539" rx="29.94"/><path id="rect3163-5-18-0-7-5" d="M30.75,30.75a10,10,0,0,0-10,10v5a9.92,9.92,0,0,0,3.41,7.5,9.92,9.92,0,0,0-3.41,7.5v10a10,10,0,0,0,20,0v-10a9.92,9.92,0,0,0-3.41-7.5,9.92,9.92,0,0,0,3.41-7.5v-5A10,10,0,0,0,30.75,30.75Zm0,5a5,5,0,0,1,5,5v5a5,5,0,0,1-10,0v-5A5,5,0,0,1,30.75,35.75Zm0,20a5,5,0,0,1,5,5v10a5,5,0,0,1-10,0v-10A5,5,0,0,1,30.75,55.75Z"/><path id="rect3163-5-18-0-7-4-9" d="M330.75,510.75a10,10,0,0,1-10-10v-5a9.92,9.92,0,0,1,3.41-7.5,9.92,9.92,0,0,1-3.41-7.5v-10a10,10,0,0,1,20,0v10a9.92,9.92,0,0,1-3.41,7.5,9.92,9.92,0,0,1,3.41,7.5v5a10,10,0,0,1-10,10Zm0-5a5,5,0,0,0,5-5v-5a5,5,0,0,0-10,0v5A5,5,0,0,0,330.75,505.75Zm0-20a5,5,0,0,0,5-5v-10a5,5,0,0,0-10,0v10A5,5,0,0,0,330.75,485.75Z"/><path id="path3037-1-8" d="M33.25,118.75c1,2,3.5,5,6,5,4.5,0,6.5-4,6.5-9s-2-9.5-6.5-9.5c-2.5,0-4,2.5-5.5,4-.5.5-1,0-.5-.5,1.5-1.5,4-5.5,4-9,0-4-2.5-9-6.5-9s-6.5,5-6.5,9c0,3.5,2.5,7.5,4,9,.5.5,0,1-.5.5-1.5-1.5-3-4-5.5-4-4.5,0-6.5,4.5-6.5,9.5s2,9,6.5,9c2.5,0,5-3,6-5,.5-.5.5,0,.5.5-.5,4-.5,5-1,8s-2,8.5-2,8.5a17,17,0,0,1,10,0s-1.5-5.5-2-8.5-.5-4-1-8C32.75,118.75,32.75,118.25,33.25,118.75Z"/><path id="path3037-1-1-4" d="M333.25,422.75c1-2,3.5-5,6-5,4.5,0,6.5,4,6.5,9s-2,9.5-6.5,9.5c-2.5,0-4-2.5-5.5-4-.5-.5-1,0-.5.5,1.5,1.5,4,5.5,4,9,0,4-2.5,9-6.5,9s-6.5-5-6.5-9c0-3.5,2.5-7.5,4-9,.5-.5,0-1-.5-.5-1.5,1.5-3,4-5.5,4-4.5,0-6.5-4.5-6.5-9.5s2-9,6.5-9c2.5,0,5,3,6,5,.5.5.5,0,.5-.5-.5-4-.5-5-1-8s-2-8.5-2-8.5a17,17,0,0,0,10,0s-1.5,5.5-2,8.5-.5,4-1,8C332.75,422.75,332.75,423.25,333.25,422.75Z"/><path id="path3037-07" d="M95.75,101.75c2,4,7,10,12,10,9,0,13-8,13-18s-4-19-13-19c-5,0-8,5-11,8-1,1-2,0-1-1,3-3,8-11,8-18,0-8-5-18-13-18s-13,10-13,18c0,7,5,15,8,18,1,1,0,2-1,1-3-3-6-8-11-8-9,0-13,9-13,19s4,18,13,18c5,0,10-6,12-10,1-1,1,0,1,1-1,8-1,10-2,16s-4,17-4,17c5-2,15-2,20,0,0,0-3-11-4-17s-1-8-2-16C94.75,101.75,94.75,100.75,95.75,101.75Z"/><path id="path3037-7-6" d="M275.75,101.75c2,4,7,10,12,10,9,0,13-8,13-18s-4-19-13-19c-5,0-8,5-11,8-1,1-2,0-1-1,3-3,8-11,8-18,0-8-5-18-13-18s-13,10-13,18c0,7,5,15,8,18,1,1,0,2-1,1-3-3-6-8-11-8-9,0-13,9-13,19s4,18,13,18c5,0,10-6,12-10,1-1,1,0,1,1-1,8-1,10-2,16s-4,17-4,17c5-2,15-2,20,0,0,0-3-11-4-17s-1-8-2-16C274.75,101.75,274.75,100.75,275.75,101.75Z"/><path id="path3037-4-3" d="M185.75,191.75c2,4,7,10,12,10,9,0,13-8,13-18s-4-19-13-19c-5,0-8,5-11,8-1,1-2,0-1-1,3-3,8-11,8-18,0-8-5-18-13-18s-13,10-13,18c0,7,5,15,8,18,1,1,0,2-1,1-3-3-6-8-11-8-9,0-13,9-13,19s4,18,13,18c5,0,10-6,12-10,1-1,1,0,1,1-1,8-1,10-2,16s-4,17-4,17c5-2,15-2,20,0,0,0-3-11-4-17s-1-8-2-16C184.75,191.75,184.75,190.75,185.75,191.75Z"/><path id="path3037-0-6" d="M95.75,281.75c2,4,7,10,12,10,9,0,13-8,13-18s-4-19-13-19c-5,0-8,5-11,8-1,1-2,0-1-1,3-3,8-11,8-18,0-8-5-18-13-18s-13,10-13,18c0,7,5,15,8,18,1,1,0,2-1,1-3-3-6-8-11-8-9,0-13,9-13,19s4,18,13,18c5,0,10-6,12-10,1-1,1,0,1,1-1,8-1,10-2,16s-4,17-4,17c5-2,15-2,20,0,0,0-3-11-4-17s-1-8-2-16C94.75,281.75,94.75,280.75,95.75,281.75Z"/><path id="path3037-9-1" d="M275.75,281.75c2,4,7,10,12,10,9,0,13-8,13-18s-4-19-13-19c-5,0-8,5-11,8-1,1-2,0-1-1,3-3,8-11,8-18,0-8-5-18-13-18s-13,10-13,18c0,7,5,15,8,18,1,1,0,2-1,1-3-3-6-8-11-8-9,0-13,9-13,19s4,18,13,18c5,0,10-6,12-10,1-1,1,0,1,1-1,8-1,10-2,16s-4,17-4,17c5-2,15-2,20,0,0,0-3-11-4-17s-1-8-2-16C274.75,281.75,274.75,280.75,275.75,281.75Z"/><path id="path3037-488-5" d="M185.75,349.75c2-4,7-10,12-10,9,0,13,8,13,18s-4,19-13,19c-5,0-8-5-11-8-1-1-2,0-1,1,3,3,8,11,8,18,0,8-5,18-13,18s-13-10-13-18c0-7,5-15,8-18,1-1,0-2-1-1-3,3-6,8-11,8-9,0-13-9-13-19s4-18,13-18c5,0,10,6,12,10,1,1,1,0,1-1-1-8-1-10-2-16s-4-17-4-17c5,2,15,2,20,0,0,0-3,11-4,17s-1,8-2,16C184.75,349.75,184.75,350.75,185.75,349.75Z"/><path id="path3037-2-4" d="M95.75,439.75c2-4,7-10,12-10,9,0,13,8,13,18s-4,19-13,19c-5,0-8-5-11-8-1-1-2,0-1,1,3,3,8,11,8,18,0,8-5,18-13,18s-13-10-13-18c0-7,5-15,8-18,1-1,0-2-1-1-3,3-6,8-11,8-9,0-13-9-13-19s4-18,13-18c5,0,10,6,12,10,1,1,1,0,1-1-1-8-1-10-2-16s-4-17-4-17c5,2,15,2,20,0,0,0-3,11-4,17s-1,8-2,16C94.75,439.75,94.75,440.75,95.75,439.75Z"/><path id="path3037-45-2" d="M275.75,439.75c2-4,7-10,12-10,9,0,13,8,13,18s-4,19-13,19c-5,0-8-5-11-8-1-1-2,0-1,1,3,3,8,11,8,18,0,8-5,18-13,18s-13-10-13-18c0-7,5-15,8-18,1-1,0-2-1-1-3,3-6,8-11,8-9,0-13-9-13-19s4-18,13-18c5,0,10,6,12,10,1,1,1,0,1-1-1-8-1-10-2-16s-4-17-4-17c5,2,15,2,20,0,0,0-3,11-4,17s-1,8-2,16C274.75,439.75,274.75,440.75,275.75,439.75Z"/></g></g></g></svg>